<?xml version="1.0" encoding="UTF-8" standalone="no"?>
<svg
   xmlns:dc="http://purl.org/dc/elements/1.1/"
   xmlns:cc="http://creativecommons.org/ns#"
   xmlns:rdf="http://www.w3.org/1999/02/22-rdf-syntax-ns#"
   xmlns:svg="http://www.w3.org/2000/svg"
   xmlns="http://www.w3.org/2000/svg"
   xmlns:sodipodi="http://sodipodi.sourceforge.net/DTD/sodipodi-0.dtd"
   xmlns:inkscape="http://www.inkscape.org/namespaces/inkscape"
   width="51.064583mm"
   height="142.66875mm"
   viewBox="0 0 51.064583 142.66875"
   version="1.1"
   id="svg8"
   inkscape:version="1.0 (4035a4fb49, 2020-05-01)"
   sodipodi:docname="back-combined-muscle-structure.svg">
  <defs
     id="defs2">
    <inkscape:path-effect
       effect="bspline"
       id="path-effect849"
       is_visible="true"
       lpeversion="1"
       weight="33.333333"
       steps="2"
       helper_size="0"
       apply_no_weight="true"
       apply_with_weight="true"
       only_selected="false" />
    <inkscape:path-effect
       only_selected="false"
       apply_with_weight="true"
       apply_no_weight="true"
       helper_size="0"
       steps="2"
       weight="33.333333"
       lpeversion="1"
       is_visible="true"
       id="path-effect937"
       effect="bspline" />
    <inkscape:path-effect
       only_selected="false"
       apply_with_weight="true"
       apply_no_weight="true"
       helper_size="0"
       steps="2"
       weight="33.333333"
       lpeversion="1"
       is_visible="true"
       id="path-effect903"
       effect="bspline" />
    <inkscape:path-effect
       only_selected="false"
       apply_with_weight="true"
       apply_no_weight="true"
       helper_size="0"
       steps="2"
       weight="33.333333"
       lpeversion="1"
       is_visible="true"
       id="path-effect899"
       effect="bspline" />
    <inkscape:path-effect
       only_selected="false"
       apply_with_weight="true"
       apply_no_weight="true"
       helper_size="0"
       steps="2"
       weight="33.333333"
       lpeversion="1"
       is_visible="true"
       id="path-effect999"
       effect="bspline" />
    <inkscape:path-effect
       only_selected="false"
       apply_with_weight="true"
       apply_no_weight="true"
       helper_size="0"
       steps="2"
       weight="33.333333"
       lpeversion="1"
       is_visible="true"
       id="path-effect1592"
       effect="bspline" />
    <inkscape:path-effect
       only_selected="false"
       apply_with_weight="true"
       apply_no_weight="true"
       helper_size="0"
       steps="2"
       weight="33.333333"
       lpeversion="1"
       is_visible="true"
       id="path-effect1027"
       effect="bspline" />
    <inkscape:path-effect
       only_selected="false"
       apply_with_weight="true"
       apply_no_weight="true"
       helper_size="0"
       steps="2"
       weight="33.333333"
       lpeversion="1"
       is_visible="true"
       id="path-effect969"
       effect="bspline" />
    <inkscape:path-effect
       only_selected="false"
       apply_with_weight="true"
       apply_no_weight="true"
       helper_size="0"
       steps="2"
       weight="33.333333"
       lpeversion="1"
       is_visible="true"
       id="path-effect965"
       effect="bspline" />
    <inkscape:path-effect
       only_selected="false"
       apply_with_weight="true"
       apply_no_weight="true"
       helper_size="0"
       steps="2"
       weight="33.333333"
       lpeversion="1"
       is_visible="true"
       id="path-effect2834"
       effect="bspline" />
    <inkscape:path-effect
       only_selected="false"
       apply_with_weight="true"
       apply_no_weight="true"
       helper_size="0"
       steps="2"
       weight="33.333333"
       lpeversion="1"
       is_visible="true"
       id="path-effect2830"
       effect="bspline" />
    <inkscape:path-effect
       only_selected="false"
       apply_with_weight="true"
       apply_no_weight="true"
       helper_size="0"
       steps="2"
       weight="33.333333"
       lpeversion="1"
       is_visible="true"
       id="path-effect2796"
       effect="bspline" />
    <inkscape:path-effect
       only_selected="false"
       apply_with_weight="true"
       apply_no_weight="true"
       helper_size="0"
       steps="2"
       weight="33.333333"
       lpeversion="1"
       is_visible="true"
       id="path-effect2792"
       effect="bspline" />
  </defs>
  <sodipodi:namedview
     fit-margin-top="0"
     id="base"
     pagecolor="#ffffff"
     bordercolor="#666666"
     borderopacity="1.0"
     inkscape:pageopacity="0.0"
     inkscape:pageshadow="2"
     inkscape:zoom="1"
     inkscape:cx="315.34726"
     inkscape:cy="244.10751"
     inkscape:document-units="mm"
     inkscape:current-layer="layer1"
     inkscape:document-rotation="0"
     showgrid="false"
     inkscape:snap-global="false"
     inkscape:window-width="1920"
     inkscape:window-height="1001"
     inkscape:window-x="-9"
     inkscape:window-y="-9"
     inkscape:window-maximized="1"
     inkscape:lockguides="false" />
  <metadata
     id="metadata5">
    <rdf:RDF>
      <cc:Work
         rdf:about="">
        <dc:format>image/svg+xml</dc:format>
        <dc:type
           rdf:resource="http://purl.org/dc/dcmitype/StillImage" />
        <dc:title></dc:title>
      </cc:Work>
    </rdf:RDF>
  </metadata>
  <g
     inkscape:label="MainBody"
     id="layer1"
     transform="translate(-51.46146,-84.534378)"
     inkscape:groupmode="layer">
    <path
       style="fill:#ffffff;stroke:#000000;stroke-width:0.264583px;stroke-linecap:butt;stroke-linejoin:miter;stroke-opacity:1"
       d="m 71.932061,90.8955 c 0.07793,-0.467614 0.233842,-1.403058 0.420926,-2.073523 0.187083,-0.670465 0.405349,-1.075816 0.77959,-1.450065 0.37424,-0.374249 0.904314,-0.717238 1.465662,-0.935505 0.561348,-0.218267 1.153784,-0.31181 1.668295,-0.374164 0.514512,-0.06235 0.951044,-0.09353 1.621482,-0.03113 0.670439,0.0624 1.574684,0.218305 2.369795,0.654961 0.795112,0.436656 1.481091,1.153816 1.964308,2.182835 0.483218,1.029019 0.763845,2.369794 0.90413,3.274039 0.140284,0.904246 0.140284,1.371959 0.265048,1.52771 0.124764,0.155751 0.374211,-1.53e-4 0.592526,0.109166 0.218316,0.10932 0.405401,0.48349 0.498866,0.966782 0.09347,0.483292 0.09347,1.075727 -0.02341,1.505387 -0.116872,0.429659 -0.319685,0.661446 -0.506793,0.957723 -0.187109,0.296277 -0.343013,0.639266 -0.514433,0.857451 -0.17142,0.218185 -0.358505,0.311727 -0.545537,0.233946 -0.187033,-0.07778 -0.374118,-0.327228 -0.467773,-0.249286 -0.09366,0.07794 -0.09366,0.483292 -0.109256,0.873052 -0.0156,0.389761 -0.04678,0.763931 -0.124744,1.044472 -0.07796,0.280539 -0.20269,0.467629 -0.280632,0.779539 -0.07794,0.31191 -0.109121,0.74844 -0.03108,1.15384 0.07804,0.40539 0.265128,0.77956 0.654979,1.15369 0.38985,0.37412 0.982285,0.74829 1.605925,1.07567 0.62364,0.32738 1.278437,0.608 2.011209,0.91982 0.732773,0.31182 1.543473,0.6548 2.447739,1.15374 0.904265,0.49895 1.902053,1.15375 2.634813,1.66826 0.732761,0.51452 1.20047,0.88868 1.621432,1.20049 0.420962,0.3118 0.795135,0.56125 1.294051,0.82626 0.498916,0.26501 1.122531,0.54564 1.668154,1.02904 0.545623,0.4834 1.013336,1.16938 1.403052,2.02689 0.389716,0.8575 0.701525,1.88647 0.966562,2.82192 0.265037,0.93545 0.483301,1.77733 0.498827,2.5724 0.01553,0.79507 -0.17156,1.54341 -0.343061,2.18263 -0.171502,0.63922 -0.327407,1.1693 -0.238915,1.86694 0.08849,0.69765 0.379405,1.45402 0.628827,2.3427 0.249422,0.88867 0.436506,1.85527 0.530021,2.71274 0.09351,0.85748 0.09351,1.54346 0.09351,2.1515 0,0.60805 0,1.10694 0.171606,1.60587 0.171607,0.49893 0.514598,0.99782 0.826368,1.62146 0.31177,0.62364 0.5924,1.37199 0.74824,2.12033 0.15585,0.74834 0.18701,1.49668 0.20259,2.12031 0.0156,0.62362 0.0156,1.12252 0.14037,1.69941 0.12479,0.57689 0.37423,1.23169 0.5145,1.91766 0.14027,0.68598 0.17147,1.40314 0.14028,2.30739 -0.0312,0.90426 -0.12473,1.99559 -0.21828,2.79071 -0.0936,0.79512 -0.1871,1.294 -0.23386,1.8709 -0.0468,0.57689 -0.0468,1.23168 -0.0468,2.08918 0,0.85751 0,1.91765 -0.0312,2.96223 -0.0312,1.04458 -0.0936,2.07355 -0.10914,3.28966 -0.0156,1.2161 0.0156,2.61924 -0.0468,4.24067 -0.0624,1.62144 -0.21828,3.46111 -0.31182,4.64601 -0.0935,1.1849 -0.1247,1.71498 -0.23922,2.22727 -0.11453,0.51229 -0.29086,0.95312 -0.47795,1.40525 -0.18709,0.45213 -0.37418,0.88867 -0.57686,1.3252 -0.20268,0.43653 -0.420945,0.87306 -0.607857,1.07573 -0.186912,0.20266 -0.342821,0.1715 -0.420925,0.0469 -0.0781,-0.12462 -0.0781,-0.34289 -0.187175,-0.40541 -0.109071,-0.0625 -0.32734,0.031 -0.498814,-0.0312 -0.171474,-0.0622 -0.296199,-0.28045 -0.374212,-0.46754 -0.07801,-0.1871 -0.109195,-0.343 -0.2027,-0.59245 -0.09351,-0.24945 -0.24941,-0.59244 -0.327436,-0.91987 -0.07803,-0.32744 -0.07803,-0.63925 0.03109,-0.98234 0.109113,-0.34308 0.327378,-0.71725 0.623683,-0.99796 0.296304,-0.2807 0.670478,-0.46779 0.873094,-0.76387 0.202616,-0.29608 0.233796,-0.70143 0.311733,-1.02891 0.07794,-0.32747 0.202662,-0.57692 0.155992,-0.91981 -0.04667,-0.3429 -0.264936,-0.77943 -0.483208,-1.21597 -0.218272,-0.43655 -0.436536,-0.87308 -0.623586,-1.18491 -0.187049,-0.31183 -0.342956,-0.49892 -0.514443,-0.5926 -0.171487,-0.0937 -0.358571,-0.0937 -0.499039,0.18705 -0.140468,0.28075 -0.234011,0.84201 -0.343153,1.3409 -0.109143,0.49888 -0.233865,0.93541 -0.405298,1.21594 -0.171433,0.28052 -0.389697,0.40524 -0.607881,0.46763 -0.218184,0.0624 -0.436449,0.0624 -0.608053,-0.28046 -0.171604,-0.34285 -0.296327,-1.02883 -0.374305,-1.80839 -0.07798,-0.77956 -0.10916,-1.65263 -0.09359,-2.36983 0.01557,-0.71719 0.07793,-1.27845 0.374169,-1.85542 0.296234,-0.57697 0.826311,-1.16941 1.184883,-1.83973 0.358572,-0.67033 0.545657,-1.41867 0.608051,-2.29171 0.06239,-0.87304 3.2e-5,-1.87082 -0.249359,-2.83744 -0.249391,-0.96662 -0.685925,-1.90204 -1.04453,-2.75954 -0.358606,-0.8575 -0.639233,-1.63702 -0.888696,-2.38538 -0.249464,-0.74837 -0.467727,-1.46552 -0.623667,-2.24508 -0.15594,-0.77955 -0.249482,-1.62143 -0.29627,-2.32304 -0.04679,-0.7016 -0.04679,-1.26286 0.03114,-1.79299 0.07793,-0.53014 0.233834,-1.02904 0.09367,-1.49672 -0.140162,-0.46767 -0.576693,-0.9042 -0.779513,-1.40312 -0.20282,-0.49892 -0.171641,-1.06017 -0.156044,-1.57466 0.0156,-0.51449 0.0156,-0.9822 -0.06232,-1.51227 -0.07791,-0.53007 -0.233816,-1.1225 -0.389713,-1.65259 -0.155897,-0.53009 -0.3118,-0.9978 -0.561217,-1.52789 -0.249417,-0.53009 -0.592409,-1.12253 -0.841907,-1.6838 -0.249497,-0.56127 -0.4054,-1.09134 -0.608026,-1.54348 -0.202626,-0.45214 -0.452071,-0.82631 -0.701655,-0.63929 -0.249584,0.18702 -0.49903,0.93536 -0.795257,1.6837 -0.296227,0.74834 -0.639218,1.49668 -0.888664,2.27627 -0.249445,0.77959 -0.405349,1.59029 -0.530071,2.32307 -0.124722,0.73278 -0.218264,1.38758 -0.218235,2.24511 2.9e-5,0.85753 0.09357,1.91768 0.140332,2.86871 0.04676,0.95103 0.04676,1.79292 0.233945,2.52571 0.187186,0.7328 0.561352,1.35641 0.826337,2.02682 0.264984,0.6704 0.420888,1.38756 0.452016,2.01115 0.03113,0.62359 -0.06241,1.15366 -0.171545,1.49657 -0.109132,0.3429 -0.233854,0.49881 -0.155829,0.98227 0.07802,0.48346 0.358652,1.29416 0.576891,2.21402 0.21824,0.91985 0.374144,1.94881 0.452075,2.88425 0.07793,0.93544 0.07793,1.77732 0.140329,2.49452 0.0624,0.7172 0.18712,1.30964 0.389804,2.21391 0.202684,0.90427 0.483313,2.12033 0.786713,3.47857 0.3034,1.35823 0.600855,2.72652 0.772325,4.0985 0.171469,1.37199 0.202652,2.68158 0.218241,3.86648 0.01559,1.1849 0.01559,2.24505 -6e-6,3.67941 -0.01559,1.43437 -0.04678,3.24286 -0.09355,4.87989 -0.04678,1.63704 -0.109138,3.10254 -0.218282,4.49011 -0.109145,1.38758 -0.265049,2.69717 -0.389775,3.80412 -0.124726,1.10696 -0.218268,2.0112 -0.249433,2.93108 -0.03117,0.91988 1.4e-5,1.85531 0.233942,2.83756 0.233927,0.98225 0.67046,2.01122 0.997824,3.19611 0.327363,1.1849 0.54563,2.52568 0.639146,3.96001 0.09352,1.43434 0.06233,2.9622 -0.171552,4.64599 -0.233887,1.68379 -0.670416,3.52345 -0.997517,5.22073 -0.327101,1.69728 -0.545967,3.2606 -0.526651,4.55377 0.01932,1.29316 0.261427,2.26161 0.526491,3.15029 0.265064,0.88868 0.545691,1.6682 0.701562,2.1671 0.15587,0.49889 0.187049,0.71715 0.561364,1.06011 0.374315,0.34295 1.091479,0.81066 1.683929,1.20043 0.592451,0.38978 1.060163,0.70159 1.380971,0.87481 0.320809,0.17321 0.458728,0.20078 0.692572,0.21634 0.233843,0.0156 0.545651,0.0156 0.795037,0.24958 0.249385,0.23402 0.436469,0.70174 0.409101,1.00449 -0.02737,0.30276 -0.222124,0.41405 -0.440331,0.49202 -0.218208,0.078 -0.436459,0.10917 -0.592504,0.34316 -0.156045,0.23398 -0.249587,0.67051 -0.420992,0.93543 -0.171405,0.26492 -0.420854,0.35846 -0.841817,0.52996 -0.420963,0.1715 -1.0134,0.42095 -1.683801,0.686 -0.670401,0.26504 -1.418742,0.54567 -2.026843,0.87309 -0.6081,0.32742 -1.075806,0.70159 -1.621372,0.8887 -0.545567,0.1871 -1.169182,0.1871 -1.823972,0.0624 -0.65479,-0.12467 -1.34077,-0.37412 -1.870895,-0.71704 -0.530125,-0.34291 -0.904295,-0.77944 -1.106673,-1.55901 -0.202378,-0.77957 -0.234403,-1.96441 -0.07852,-2.97788 0.155879,-1.01348 0.498867,-1.88654 0.748322,-2.52576 0.249454,-0.63922 0.405358,-1.04457 0.358759,-1.34076 -0.0466,-0.29618 -0.296048,-0.48327 -0.436497,-0.73269 -0.140449,-0.24943 -0.171628,-0.56124 -0.109295,-1.2005 0.06233,-0.63927 0.218236,-1.60587 0.296207,-2.44775 0.07797,-0.84188 0.07797,-1.55904 5e-5,-2.2762 -0.07792,-0.71716 -0.233825,-1.43432 -0.467667,-2.24504 -0.233843,-0.81072 -0.545653,-1.71497 -0.841881,-2.58805 -0.296228,-0.87309 -0.576858,-1.71498 -0.919838,-2.58807 -0.342981,-0.87308 -0.74833,-1.77733 -1.075749,-2.55687 -0.327419,-0.77955 -0.576863,-1.43434 -0.748397,-2.0268 -0.171534,-0.59246 -0.265076,-1.12253 -0.233938,-1.83976 0.03114,-0.71723 0.187042,-1.62147 0.405306,-2.41665 0.218264,-0.79517 0.498893,-1.48115 0.701575,-2.02681 0.202682,-0.54567 0.327405,-0.95102 0.171603,-1.55899 -0.155801,-0.60797 -0.592332,-1.41867 -1.028871,-2.19821 -0.43654,-0.77955 -0.873072,-1.52789 -1.184958,-2.60367 -0.311886,-1.07578 -0.498971,-2.47892 -0.623713,-4.24071 -0.124743,-1.76178 -0.187105,-3.88207 -0.389765,-5.92446 -0.20266,-2.04239 -0.545649,-4.00678 -0.858088,-5.67806 -0.312438,-1.67128 -0.591814,-3.03712 -0.825658,-4.01933 -0.233843,-0.98222 -0.420929,-1.57466 -0.670301,-1.87104 -0.249372,-0.29638 -0.561181,-0.29638 -0.87315,0.54564 -0.311968,0.84201 -0.623778,2.52578 -0.892655,4.27149 -0.268877,1.74571 -0.479466,3.43043 -0.744513,5.42607 -0.265047,1.99563 -0.576855,4.24065 -0.873081,6.45456 -0.296226,2.2139 -0.576853,4.39655 -0.997817,5.95556 -0.420965,1.55901 -0.982218,2.49443 -1.309621,3.21168 -0.327402,0.71724 -0.420944,1.21613 -0.218185,2.18283 0.202759,0.96669 0.701653,2.40101 0.919859,3.61706 0.218206,1.21605 0.155844,2.21384 -0.155995,3.42988 -0.31184,1.21604 -0.873092,2.65035 -1.465546,4.06911 -0.592454,1.41876 -1.216072,2.8219 -1.621426,3.99125 -0.405355,1.16936 -0.592439,2.10478 -0.654774,3.19618 -0.06234,1.0914 2.7e-5,2.33863 0.09359,3.32087 0.09356,0.98224 0.218289,1.6994 0.180497,2.2414 -0.03779,0.542 -0.211765,0.86095 -0.320879,1.37553 -0.109115,0.51458 -0.140294,1.20056 -0.03109,1.90218 0.109199,0.70162 0.358646,1.41878 0.467721,2.44775 0.109076,1.02897 0.07789,2.36975 -0.358591,3.22709 -0.436485,0.85733 -1.278366,1.2315 -2.104593,1.34069 -0.826227,0.1092 -1.636926,-0.0467 -2.400877,-0.35846 -0.763951,-0.31175 -1.481109,-0.77946 -2.120332,-1.09133 -0.639222,-0.31187 -1.200478,-0.46778 -1.73057,-0.70159 -0.530092,-0.23381 -1.028986,-0.54562 -1.449936,-0.81066 -0.420951,-0.26505 -0.763943,-0.48331 -0.982288,-0.68593 -0.218346,-0.20262 -0.311891,-0.38971 -0.530106,-0.63919 -0.218215,-0.24949 -0.561199,-0.5613 -0.639312,-0.85762 -0.07811,-0.29632 0.108975,-0.57695 0.358551,-0.7485 0.249576,-0.17155 0.561384,-0.23391 0.997866,-0.43659 0.436482,-0.20269 0.997736,-0.54568 1.465453,-0.8419 0.467718,-0.29623 0.841889,-0.54568 1.262851,-0.81072 0.420963,-0.26505 0.888678,-0.54568 1.21602,-1.01329 0.327342,-0.46762 0.514427,-1.12242 0.763881,-2.0111 0.249454,-0.88868 0.561263,-2.01119 0.640967,-3.2586 0.0797,-1.2474 -0.07962,-2.68134 -0.266704,-4.03774 -0.187082,-1.3564 -0.405347,-2.66599 -0.639197,-3.8353 -0.233851,-1.16931 -0.483298,-2.19828 -0.608062,-3.13376 -0.124763,-0.93547 -0.124763,-1.77735 -0.04682,-2.77519 0.07794,-0.99784 0.233844,-2.15153 0.452109,-3.30527 0.218265,-1.15375 0.498893,-2.30744 0.810706,-3.25851 0.311813,-0.95108 0.654803,-1.69942 0.826328,-2.49448 0.171526,-0.79506 0.171526,-1.63695 0.078,-2.66593 -0.09352,-1.02899 -0.280608,-2.24504 -0.45211,-3.42994 -0.171502,-1.18491 -0.327407,-2.3386 -0.483318,-3.58587 -0.155912,-1.24727 -0.311817,-2.58805 -0.467727,-3.99123 -0.15591,-1.40319 -0.311814,-2.86869 -0.327429,-4.39661 -0.01561,-1.52793 0.109109,-3.11815 0.232518,-4.63058 0.123409,-1.51243 0.250767,-3.00888 0.578165,-4.78628 0.327398,-1.77739 0.857471,-3.8665 1.231651,-5.39439 0.374181,-1.5279 0.592447,-2.49451 0.701604,-3.63261 0.109157,-1.1381 0.109157,-2.4477 0.265042,-3.58588 0.155884,-1.13818 0.467691,-2.10478 0.514518,-3.13371 0.04683,-1.02893 -0.171438,-2.12026 -0.07795,-3.19611 0.09349,-1.07585 0.498842,-2.136 0.81073,-2.72855 0.311887,-0.59254 0.530151,-0.71726 0.639243,-1.21602 0.109092,-0.49875 0.109092,-1.37182 0.109092,-2.33846 0,-0.96663 0,-2.02678 0,-2.8375 0,-0.81072 0,-1.37198 -0.155835,-1.98 -0.155835,-0.60802 -0.46764,-1.26281 -0.717136,-2.01118 -0.249495,-0.74837 -0.43658,-1.59025 -0.639231,-2.27624 -0.20265,-0.686 -0.420915,-1.21607 -0.732795,-1.29418 -0.311879,-0.0781 -0.717231,0.29605 -1.138217,0.91975 -0.420987,0.6237 -0.857518,1.49676 -1.185975,2.34262 -0.328458,0.84585 -0.544615,1.64873 -0.669322,2.41272 -0.124708,0.76399 -0.155887,1.48115 -0.171471,2.22951 -0.01559,0.74837 -0.01559,1.52789 -0.155927,2.15143 -0.140342,0.62354 -0.420969,1.09125 -0.498881,1.85532 -0.07791,0.76407 0.04681,1.82421 -0.124737,3.02464 -0.171546,1.20043 -0.639261,2.54121 -1.075804,3.86644 -0.436544,1.32523 -0.841893,2.63482 -1.247256,3.91327 -0.405363,1.27845 -0.810712,2.52568 -0.950978,3.53916 -0.140265,1.01347 -0.01554,1.79299 0.296358,2.54136 0.3119,0.74836 0.810794,1.46552 1.091333,2.26064 0.280538,0.79513 0.3429,1.66819 0.374071,2.71277 0.03117,1.04458 0.03117,2.19827 -0.06235,2.85293 -0.09352,0.65466 -0.2806,0.77938 -0.467618,0.7016 -0.187018,-0.0778 -0.374104,-0.35841 -0.561237,-0.74818 -0.187133,-0.38977 -0.374217,-0.88866 -0.530137,-1.34079 -0.15592,-0.45214 -0.280644,-0.85749 -0.405261,-1.09143 -0.124616,-0.23394 -0.249339,-0.2963 -0.452203,-0.0937 -0.202864,0.20264 -0.483495,0.67036 -0.701768,1.15372 -0.218274,0.48336 -0.374177,0.98225 -0.483306,1.40323 -0.109129,0.42098 -0.171491,0.76396 -0.109057,1.23174 0.06243,0.46778 0.24952,1.06022 0.498789,1.49259 0.24927,0.43237 0.436905,0.59655 0.639501,0.92399 0.202595,0.32744 0.358502,0.76398 0.389605,1.23165 0.0311,0.46767 -0.06244,0.96656 -0.144066,1.35541 -0.08163,0.38885 -0.13665,0.60894 -0.244751,0.7528 -0.1081,0.14386 -0.203481,0.1677 -0.34376,0.1833 -0.140279,0.0156 -0.296183,0.0156 -0.452252,0.18717 -0.156068,0.17156 -0.311972,0.51455 -0.576915,0.29637 -0.264942,-0.21818 -0.639111,-0.9977 -0.88856,-1.51219 -0.249449,-0.5145 -0.374173,-0.76395 -0.483364,-1.16932 -0.109191,-0.40537 -0.202733,-0.96662 -0.249531,-1.43437 -0.0468,-0.46774 -0.0468,-0.84191 -0.140328,-1.93327 -0.09353,-1.09136 -0.280617,-2.89985 -0.374176,-4.58367 -0.09356,-1.68382 -0.09356,-3.24287 -0.124733,-4.5369 -0.03117,-1.29404 -0.09353,-2.323 -0.1559,-3.60145 -0.06237,-1.27846 -0.124729,-2.80632 -0.21826,-4.03799 -0.09353,-1.23167 -0.218255,-2.16709 -0.280637,-3.0402 -0.06238,-0.8731 -0.06238,-1.6838 -0.01562,-2.5569 0.04676,-0.87311 0.140304,-1.80853 0.327391,-2.46344 0.187088,-0.65491 0.467716,-1.02908 0.530111,-1.83969 0.0624,-0.8106 -0.09351,-2.05783 -0.04678,-2.99336 0.04673,-0.93553 0.296177,-1.55915 0.654778,-2.19842 0.358601,-0.63926 0.826315,-1.29406 1.106959,-2.47887 0.280644,-1.18482 0.374186,-2.89977 0.592441,-4.28739 0.218254,-1.38763 0.56124,-2.44777 0.785134,-3.04777 0.223894,-0.59999 0.306213,-0.70975 0.181536,-1.50476 -0.124677,-0.79501 -0.467666,-2.26051 -0.530085,-3.46106 -0.06242,-1.20055 0.155846,-2.13597 0.452069,-3.19617 0.296223,-1.06019 0.670392,-2.24506 1.138164,-3.05588 0.467772,-0.81083 1.029026,-1.24736 1.46564,-1.51241 0.436614,-0.26506 0.748417,-0.3586 1.060134,-0.60801 0.311717,-0.24941 0.623524,-0.65476 0.965552,-0.90821 0.342029,-0.25346 0.655989,-0.33909 1.37313,-0.68209 0.71714,-0.343 1.808471,-0.93543 2.853071,-1.46553 1.044599,-0.53009 2.042384,-0.9978 2.884292,-1.38757 0.841907,-0.38977 1.527886,-0.70158 2.167071,-1.09134 0.639184,-0.38976 1.23162,-0.85747 1.621346,-1.40305 0.389726,-0.54558 0.576812,-1.1692 0.561348,-1.63686 -0.01546,-0.46766 -0.233726,-0.77946 -0.389715,-1.21601 -0.155989,-0.436543 -0.249532,-0.997797 -0.280751,-1.418784 -0.03122,-0.420987 -4.1e-5,-0.701614 -0.07797,-0.764102 -0.07793,-0.06249 -0.265015,0.09342 -0.576724,-0.07794 -0.311709,-0.171351 -0.74824,-0.670245 -1.013391,-1.371832 -0.265151,-0.701588 -0.358694,-1.605832 -0.233965,-2.198438 0.124728,-0.592606 0.467717,-0.873234 0.748461,-0.88867 0.280743,-0.01544 0.499009,0.23401 0.608022,0.09368 0.109012,-0.14033 0.109012,-0.670404 0.109012,-1.091357 0,-0.420952 0,-0.732761 0,-0.888801 0,-0.156039 2e-5,-0.156053 0.07796,-0.623667 z"
       id="MainBody" />
    <g
       transform="translate(-39.789909,2.2344131)"
       id="BackMuscle_B"
       inkscape:label="BackMuscle_B"
       sodipodi:insensitive="true"
       style="fill:#ffffff">
      <path
         sodipodi:nodetypes="sccccccccccccccccccccccccccccccccccccccccccccs"
         id="path935"
         d="m 103.87101,116.65646 c 0.18712,1.07592 0.5613,3.22744 0.85752,4.91125 0.29623,1.68381 0.51449,2.89986 0.85755,3.94445 0.34306,1.04459 0.81077,1.91766 1.09134,2.72837 0.28057,0.81072 0.37411,1.55906 0.42087,2.44772 0.0467,0.88867 0.0467,1.91764 0.0156,2.89986 -0.0312,0.98221 -0.0935,1.91763 -0.29626,2.79066 -0.2027,0.87304 -0.54569,1.68374 -0.78269,2.40029 -0.237,0.71655 -0.35543,1.27913 -0.41778,1.80925 -0.0623,0.53012 -0.0623,0.87311 0.0157,1.32527 0.078,0.45216 0.23391,0.95105 0.57692,1.07559 0.34301,0.12454 0.87309,-0.12491 1.59031,-0.34317 0.71723,-0.21826 1.62148,-0.40535 2.22955,-0.49888 0.60807,-0.0935 0.91988,-0.0935 3.21176,-0.0935 2.29188,0 6.56365,0 9.12055,0.078 2.55691,0.078 3.39879,0.23389 4.08479,0.46782 0.68601,0.23393 1.21608,0.54574 1.52773,0.21835 0.31164,-0.32739 0.40518,-1.294 0.34289,-2.08909 -0.0623,-0.79508 -0.28057,-1.4187 -0.53,-2.01116 -0.24943,-0.59246 -0.53005,-1.15371 -0.67045,-2.0736 -0.14039,-0.91989 -0.14039,-2.19831 -0.14039,-3.49235 0,-1.29404 0,-2.60364 0.21825,-3.77302 0.21824,-1.16938 0.65477,-2.19834 1.06014,-3.35205 0.40536,-1.15371 0.77953,-2.43212 1.06017,-3.53906 0.28064,-1.10693 0.46773,-2.04235 0.67041,-3.13371 0.20268,-1.09136 0.42095,-2.33859 0.42104,-3.18044 1e-4,-0.84186 -0.21816,-1.27839 -0.43645,-1.74612 -0.21828,-0.46773 -0.43655,-0.96661 -0.60808,-1.48112 -0.17153,-0.5145 -0.29625,-1.04457 -0.21228,-1.99771 0.084,-0.95313 0.41481,-2.50812 0.33701,-3.24098 -0.0778,-0.73286 -0.54552,-0.73286 -1.1068,-0.71728 -0.56127,0.0156 -1.21607,0.0467 -1.94882,-1e-5 -0.73276,-0.0468 -1.54346,-0.17148 -2.55686,-0.32739 -1.01341,-0.1559 -2.22945,-0.34299 -3.36764,-1.27831 -1.13819,-0.93533 -2.19832,-2.61907 -3.11831,-2.93102 -0.91998,-0.31196 -1.69949,0.74816 -2.55696,1.60563 -0.85746,0.85747 -1.79289,1.51228 -2.55677,1.91763 -0.76388,0.40535 -1.35631,0.56125 -2.07347,0.68599 -0.71716,0.12474 -1.55904,0.21829 -2.36978,0.32742 -0.81073,0.10913 -1.59025,0.23385 -2.15147,0.23393 -0.56122,7e-5 -0.90421,-0.12465 -1.07586,0.20283 -0.17166,0.32749 -0.17166,1.10701 -0.0151,1.84099 0.15651,0.73397 0.46725,1.41759 0.54511,2.08794 0.0778,0.67034 -0.0781,1.32515 -0.35869,2.02668 -0.28063,0.70154 -0.68598,1.44988 -0.88864,1.82401 -0.20265,0.37413 -0.20265,0.37417 -0.0155,1.45008 z"
         style="fill:#ffffff;stroke:#000000;stroke-width:0.264583px;stroke-linecap:butt;stroke-linejoin:miter;stroke-opacity:1" />
      <path
         transform="matrix(0.26458333,0,0,0.26458333,91.148956,81.623962)"
         id="path939"
         d="m 56.667677,230.81402 c -0.310487,-0.37412 -0.794143,-1.70483 -1.074791,-2.95713 -0.688356,-3.07158 0.0071,-7.21039 2.467146,-14.68219 2.497256,-7.58486 2.969828,-10.97547 2.982121,-21.39608 0.01163,-9.85931 -0.629696,-13.63699 -3.468536,-20.43113 -1.079576,-2.58373 -2.422497,-6.37959 -2.984268,-8.43524 -1.121076,-4.10228 -6.037292,-31.40498 -6.037292,-33.5287 0,-0.72873 1.045341,-3.53169 2.322979,-6.22881 2.925149,-6.17505 3.329829,-9.68022 1.735624,-15.03326 -1.303146,-4.37572 -1.787002,-7.71869 -1.362179,-9.411325 0.301281,-1.2004 0.519444,-1.285454 3.297157,-1.285454 4.546504,0 20.163908,-2.379587 23.028891,-3.508858 4.001913,-1.577407 7.87791,-4.289057 12.477528,-8.729288 7.96237,-7.686457 7.77156,-7.689086 15.446743,0.21288 4.73519,4.875109 6.40141,6.252644 9.05326,7.484734 4.26527,1.981711 14.20851,3.632996 22,3.653566 7.80334,0.0206 7.7183,-0.04118 7.31879,5.317245 -0.17714,2.37585 -0.51719,5.92279 -0.75566,7.8821 -0.56678,4.65666 -0.0356,7.73107 2.25747,13.06419 2.37084,5.51419 2.57294,8.15691 1.2289,16.06989 -1.78905,10.53294 -3.50554,17.39705 -7.0778,28.30354 -1.89151,5.775 -3.67502,11.5125 -3.96336,12.75 -0.84678,3.63431 -1.20896,19.63354 -0.57483,25.39355 0.41661,3.78423 1.04819,6.36093 2.38986,9.75 1.52723,3.85783 1.85889,5.37841 2.04076,9.35645 0.1664,3.63951 0.0474,4.97607 -0.50903,5.71697 -0.71576,0.95308 -0.7808,0.95076 -4.52743,-0.16149 -5.82666,-1.72974 -11.34436,-2.03132 -38.489958,-2.10371 l -25.087715,-0.0669 -5.75,1.53159 c -3.1625,0.84237 -6.215717,1.67142 -6.784928,1.84233 -0.607519,0.18241 -1.268068,0.0298 -1.599452,-0.36946 z"
         style="fill:#ffffff;stroke-width:0.353386" />
    </g>
    <g
       transform="translate(-9.0355643,0.62211992)"
       id="ShoulderMuscle_B"
       inkscape:label="ShoulderMuscle_B"
       onmouseover=""
       style="fill:#ffffff"
       sodipodi:insensitive="true">
      <path
         id="path897"
         d="m 69.552559,109.27293 c -0.694624,0.15428 -1.620668,0.5732 -2.216066,1.33401 -0.595398,0.76081 -0.859976,1.86322 -1.146614,2.95463 -0.286638,1.09141 -0.595313,2.17177 -0.672437,3.31837 -0.07712,1.1466 0.07721,2.35925 0.220624,3.05378 0.143409,0.69453 0.2757,0.87092 0.826827,0.56207 0.551126,-0.30885 1.521244,-1.10258 2.491453,-1.67586 0.97021,-0.57329 1.94033,-0.92606 2.722995,-1.36701 0.782664,-0.44096 1.377967,-0.97012 1.785836,-1.65354 0.407869,-0.68341 0.628351,-1.52124 0.507183,-2.3921 -0.121167,-0.87087 -0.584177,-1.77484 -1.124308,-2.4584 -0.540131,-0.68356 -1.157478,-1.14657 -1.697668,-1.43328 -0.540189,-0.28671 -1.003201,-0.39695 -1.697825,-0.24267 z"
         style="fill:#ffffff;stroke:#000000;stroke-width:0.264583px;stroke-linecap:butt;stroke-linejoin:miter;stroke-opacity:1" />
      <path
         id="path901"
         d="m 103.32003,109.26197 c 0.79382,0.0994 1.52142,0.58441 2.07255,1.29004 0.55113,0.70562 0.92595,1.63165 1.23461,2.56872 0.30866,0.93707 0.55119,1.88514 0.70541,2.72199 0.15422,0.83685 0.22055,1.56642 0.14278,2.40667 -0.0778,0.84024 -0.29713,1.78345 -0.57256,2.20232 -0.27543,0.41888 -0.60615,0.30864 -1.00304,0.0662 -0.3969,-0.24248 -0.85991,-0.6173 -1.36702,-0.95908 -0.50711,-0.34179 -1.05832,-0.65047 -1.65363,-0.95916 -0.59532,-0.30869 -1.23471,-0.61737 -1.74183,-0.85991 -0.50713,-0.24253 -0.88194,-0.41892 -1.31195,-0.8488 -0.430006,-0.42988 -0.915069,-1.11337 -1.179749,-1.76382 -0.26468,-0.65045 -0.308777,-1.2678 -0.253688,-1.86317 0.05509,-0.59536 0.209426,-1.16861 0.628391,-1.75301 0.418965,-0.58439 1.102456,-1.17969 1.874236,-1.62069 0.77178,-0.44099 1.63166,-0.72762 2.42549,-0.62827 z"
         style="fill:#ffffff;stroke:#000000;stroke-width:0.264583px;stroke-linecap:butt;stroke-linejoin:miter;stroke-opacity:1" />
      <path
         transform="matrix(0.26458333,0,0,0.26458333,60.457291,83.476044)"
         id="path905"
         d="m 21.003604,138.99797 c -0.735223,-1.75964 -1.197655,-5.65311 -1.204308,-10.13975 -0.0074,-4.97971 0.304211,-6.8246 2.593464,-15.35527 1.995499,-7.43603 3.083033,-9.80297 5.504438,-11.98002 2.233375,-2.008 6.168915,-3.66471 8.705565,-3.66471 3.214239,0 8.299872,3.58133 11.120915,7.83141 4.363667,6.57415 4.189845,13.21443 -0.48103,18.37591 -1.949368,2.15412 -3.546094,3.17333 -10.084216,6.43688 -4.328919,2.1608 -6.577374,3.46849 -9.644877,5.60939 -3.591168,2.50638 -5.578041,3.74641 -6.002797,3.74641 -0.08124,0 -0.309463,-0.38711 -0.507154,-0.86025 z"
         style="fill:#ffffff;stroke-width:0.176693" />
      <path
         transform="matrix(0.26458333,0,0,0.26458333,60.457291,83.476044)"
         id="path907"
         d="m 170.45397,138.24281 c -4.84905,-3.36212 -7.11376,-4.69052 -12.94041,-7.59041 -6.58933,-3.27946 -7.65171,-3.98112 -9.48508,-6.26457 -4.31717,-5.377 -5.26409,-11.02932 -2.72728,-16.27961 1.80412,-3.73389 7.07727,-7.9492 11.78003,-9.416866 1.72893,-0.539573 2.40473,-0.626773 4.125,-0.532262 2.86764,0.157546 4.49532,0.96169 6.94721,3.432218 1.58267,1.5947 2.12081,2.37061 3.31038,4.77308 2.23837,4.52063 4.3496,11.53753 5.31412,17.66199 0.90458,5.74391 -0.11485,13.39933 -2.08328,15.64434 -0.6671,0.76084 -1.47749,0.48797 -4.24069,-1.42791 z"
         style="fill:#ffffff;stroke-width:0.176693" />
    </g>
    <g
       transform="translate(-81.187317,32.464537)"
       id="GluteMuscle_B"
       inkscape:label="GluteMuscle_B"
       sodipodi:insensitive="true"
       style="fill:#ffffff">
      <path
         id="path997"
         d="m 147.59324,115.27161 c -0.15593,0.38983 -0.46775,1.16936 -0.68787,2.08905 -0.22012,0.91968 -0.34111,1.91791 -0.40346,2.85339 -0.0624,0.93547 -0.0624,1.71499 -0.17151,2.74396 -0.10915,1.02898 -0.32742,2.27621 -0.68602,3.72614 -0.3586,1.44993 -0.85749,3.10251 -1.1225,4.2095 -0.26502,1.10698 -0.29619,1.66825 0.43673,1.90197 0.73292,0.23373 2.2296,0.14019 3.49244,-1.4e-4 1.26284,-0.14033 2.2918,-0.32742 3.55463,-0.73279 1.26282,-0.40538 2.7595,-1.029 3.71051,-1.46553 0.95101,-0.43654 1.35636,-0.68598 1.8711,-0.78096 0.51475,-0.095 1.20045,-0.0297 2.16711,0.2822 0.96665,0.31188 2.24507,0.87313 3.52352,1.35643 1.27845,0.4833 2.55686,0.88864 3.55465,1.09127 0.99779,0.20263 1.71495,0.20263 2.72835,0.14026 1.01339,-0.0624 2.32298,-0.1871 2.93098,-0.34284 0.608,-0.15574 0.51445,-0.34283 0.31174,-0.96646 -0.20271,-0.62364 -0.51452,-1.68379 -0.77958,-2.6972 -0.26506,-1.01342 -0.48332,-1.98002 -0.65483,-2.85311 -0.17151,-0.87309 -0.29624,-1.65262 -0.35862,-2.41658 -0.0624,-0.76397 -0.0624,-1.51231 -0.12474,-2.3698 -0.0623,-0.85748 -0.18707,-1.82409 -0.35185,-2.76104 -0.16478,-0.93696 -0.39645,-1.9629 -0.58347,-2.55536 -0.18701,-0.59245 -0.34292,-0.81072 -0.60792,-1.04463 -0.265,-0.23391 -0.63917,-0.48336 -1.02893,-0.70166 -0.38976,-0.2183 -0.79512,-0.40539 -1.29403,-0.57692 -0.49891,-0.17153 -1.09135,-0.32743 -1.57467,-0.53005 -0.48332,-0.20263 -0.85749,-0.45207 -1.32525,-0.54573 -0.46776,-0.0937 -1.02902,-0.0313 -2.69724,-0.0157 -1.66822,0.0156 -4.44331,-0.0156 -5.95561,-0.0311 -1.51231,-0.0156 -1.76175,-0.0156 -2.01121,-0.0156 -0.24945,0 -0.4989,0 -0.86905,0.14717 -0.37014,0.14718 -0.81493,0.41404 -1.29821,0.6479 -0.48329,0.23386 -0.98218,0.42095 -1.57467,0.71718 -0.59248,0.29623 -1.27846,0.70158 -1.6215,0.90429 -0.34303,0.2027 -0.34308,0.20266 -0.49902,0.5925 z"
         style="fill:#ffffff;stroke:#000000;stroke-width:0.264583px;stroke-linecap:butt;stroke-linejoin:miter;stroke-opacity:1" />
      <path
         transform="matrix(0.26458333,0,0,0.26458333,132.68854,53.048962)"
         id="path1001"
         d="m 45.623481,299.76053 c -0.879553,-1.0598 -0.549214,-3.00812 2.683652,-15.82803 3.053281,-12.10777 3.809813,-16.38099 4.403434,-24.87251 0.690118,-9.87185 2.426104,-19.14366 4.339648,-23.1778 0.692956,-1.4609 3.212407,-3.06452 10.458798,-6.65698 l 9.545942,-4.73249 20.973984,0.23956 c 20.621611,0.23554 21.055221,0.27058 25.809391,2.08541 8.52093,3.25274 13.91039,6.28496 15.20421,8.55422 1.82065,3.19324 3.98305,15.04942 4.77176,26.16295 0.76437,10.77073 1.75117,16.26838 5.11384,28.49028 1.20819,4.3913 2.00079,8.18011 1.76132,8.41958 -0.80426,0.80426 -7.11434,1.54281 -13.54464,1.58531 -7.53609,0.0498 -12.62548,-1.21326 -26.07317,-6.47067 -13.345169,-5.21734 -15.493459,-5.26637 -26.215178,-0.59826 -12.732284,5.54348 -18.977627,7.16321 -29.379706,7.61965 -7.783398,0.34153 -8.971177,0.24265 -9.853285,-0.82022 z"
         style="fill:#ffffff;stroke-width:0.499763" />
    </g>
    <g
       transform="translate(-45.031904,24.195449)"
       id="HamstringMuscle_B"
       inkscape:label="HamstringMuscle_B"
       style="fill:#ffffff"
       sodipodi:insensitive="true">
      <path
         sodipodi:nodetypes="cccccccccccccccccccccccc"
         id="path1025"
         d="m 108.58949,141.97109 c -0.55133,0.28676 -0.59542,0.59544 -0.72771,1.94044 -0.13229,1.345 -0.35277,3.7262 -0.35274,5.75472 3e-5,2.02852 0.22051,3.70418 0.46304,6.39414 0.24253,2.68997 0.50711,6.39406 0.63939,8.46662 0.13228,2.07257 0.13228,2.51353 0.41889,2.18271 0.28661,-0.33082 0.85987,-1.43324 1.34512,-1.87417 0.48526,-0.44093 0.88213,-0.22044 1.67587,-0.0882 0.79374,0.13221 1.98434,0.1763 2.75601,0.46309 0.77167,0.28678 1.12444,0.81594 1.38897,1.41126 0.26452,0.59532 0.44091,1.25677 0.70542,1.16847 0.26452,-0.0883 0.61729,-0.92612 0.99213,-1.80808 0.37483,-0.88195 0.77169,-1.80798 1.05834,-3.30725 0.28665,-1.49926 0.46304,-3.57179 0.70557,-5.6003 0.24253,-2.0285 0.55121,-4.01284 0.79375,-5.95312 0.24254,-1.94029 0.41893,-3.83643 0.66145,-5.33578 0.24253,-1.49935 0.5512,-2.60175 0.68352,-3.77029 0.13232,-1.16854 0.0882,-2.40324 -0.19828,-3.02074 -0.28651,-0.6175 -0.81567,-0.6175 -1.32293,-0.3529 -0.50727,0.2646 -0.99232,0.79375 -1.60963,1.23469 -0.6173,0.44094 -1.36694,0.79371 -2.33711,1.32289 -0.97017,0.52918 -2.16075,1.23471 -3.04263,1.25692 -0.88187,0.0222 -1.45513,-0.63923 -2.27097,-0.83783 -0.81584,-0.1986 -1.87415,0.066 -2.42547,0.35274 z"
         style="fill:#ffffff;stroke:#000000;stroke-width:0.264583px;stroke-linecap:butt;stroke-linejoin:miter;stroke-opacity:1" />
      <path
         id="path1590"
         d="m 123.1857,139.67808 c -0.11033,1.12464 0.0661,3.2854 0.35272,5.22571 0.28666,1.94031 0.68353,3.66006 0.92604,5.33576 0.2425,1.6757 0.3307,3.30725 0.5071,5.26961 0.1764,1.96236 0.44098,4.25537 0.70559,5.93108 0.26461,1.67572 0.52918,2.73403 0.99227,3.81442 0.46308,1.08039 1.12452,2.18281 1.58742,2.38115 0.4629,0.19835 0.72748,-0.50719 1.71977,-1.279 0.99228,-0.77181 2.71204,-1.60964 3.7704,-1.56535 1.05835,0.0443 1.45521,0.97031 1.71981,1.56563 0.26459,0.59531 0.39688,0.85989 0.485,0.24249 0.0881,-0.61741 0.13221,-2.11669 0.15426,-3.616 0.0221,-1.49932 0.0221,-2.99859 0.17638,-4.71843 0.15432,-1.71984 0.463,-3.66008 0.6394,-5.42396 0.1764,-1.76388 0.2205,-3.35135 0.17641,-4.9609 -0.0441,-1.60955 -0.17637,-3.24112 -0.221,-4.33683 -0.0446,-1.09571 4.9e-4,-1.68245 -0.52854,-1.99125 -0.52903,-0.3088 -1.63144,-0.35289 -2.33715,-0.17648 -0.70571,0.1764 -1.01438,0.57326 -1.34497,0.77168 -0.33059,0.19842 -0.68336,0.19842 -1.01406,0.11032 -0.33071,-0.0881 -0.63938,-0.26449 -1.21266,-0.50706 -0.57327,-0.24257 -1.4111,-0.55124 -2.2269,-0.92605 -0.81581,-0.3748 -1.60955,-0.81576 -2.29307,-1.23467 -0.68351,-0.41891 -1.25676,-0.81578 -1.74189,-0.97025 -0.48514,-0.15446 -0.882,-0.0663 -0.99233,1.05838 z"
         style="fill:#ffffff;stroke:#000000;stroke-width:0.264583px;stroke-linecap:butt;stroke-linejoin:miter;stroke-opacity:1" />
      <path
         transform="matrix(0.26458333,0,0,0.26458333,96.440628,62.309376)"
         id="path1594"
         d="m 75.818501,395.06359 c -2.458036,-5.93046 -4.454645,-7.05248 -15.120594,-8.49725 -4.895633,-0.66314 -6.641223,-0.73069 -7.599476,-0.29408 -0.684198,0.31174 -2.248663,2.06441 -3.476589,3.89482 l -2.232591,3.32801 -0.278916,-2.68066 c -0.153403,-1.47437 -0.400326,-4.59317 -0.548718,-6.93067 -0.502164,-7.9102 -2.271168,-30.20532 -3.015105,-38 -0.40682,-4.2625 -0.74045,-11.70159 -0.7414,-16.5313 -0.0018,-9.13554 1.201533,-24.47997 2.04306,-26.05238 0.766139,-1.43154 3.398976,-2.52695 6.712944,-2.79297 2.693536,-0.21621 3.445623,-0.0557 6.388907,1.36386 5.439669,2.6235 7.040374,2.39493 16.254741,-2.32112 4.208259,-2.15385 9.694815,-5.43484 12.192346,-7.29109 6.94647,-5.16285 8.36465,-4.57662 8.76943,3.625 0.158475,3.21108 -0.110315,5.90006 -1.099565,11 -0.720125,3.7125 -2.0696,12.7125 -2.998832,20 -0.929231,7.2875 -2.154782,16.7375 -2.723447,21 -0.568664,4.2625 -1.603109,12.5875 -2.298766,18.5 -1.408895,11.97442 -2.449124,16.97665 -4.718172,22.68865 -1.50486,3.78826 -3.893904,8.81135 -4.190789,8.81135 -0.08226,0 -0.675574,-1.26908 -1.318468,-2.82017 z"
         style="opacity:0.554098;fill:#ffffff;stroke-width:0.353386" />
      <path
         transform="matrix(0.26458333,0,0,0.26458333,96.440628,62.309376)"
         id="path1596"
         d="m 119.06742,395.80926 c -1.60275,-1.90476 -4.0671,-6.69654 -5.32651,-10.35708 -2.00223,-5.81958 -3.98348,-19.58771 -5.69396,-39.56842 -0.94715,-11.06398 -1.30535,-13.74827 -3.26933,-24.5 -2.80925,-15.37916 -3.76486,-28.19747 -2.31106,-31 0.94593,-1.82349 2.19339,-1.47221 8.80186,2.47861 7.15084,4.27507 20.47654,10.02086 23.24119,10.02117 1.3545,1.6e-4 2.73516,-0.49962 4.48857,-1.62478 2.33316,-1.49718 2.8566,-1.625 6.65489,-1.625 6.12504,0 5.97032,-0.27706 6.69176,11.9838 0.8071,13.71689 0.35249,28.08359 -1.28207,40.5162 -1.14561,8.71365 -2.00945,24.02385 -2.24279,39.75 l -0.026,1.75 -1.53032,-2.6686 c -2.75182,-4.79866 -7.04777,-5.52021 -14.15429,-2.37737 -3.2955,1.45742 -8.31828,4.9151 -10.52455,7.24508 -0.8077,0.85299 -1.63145,1.55089 -1.83055,1.55089 -0.19911,0 -0.9582,-0.70853 -1.68687,-1.5745 z"
         style="opacity:0.554098;fill:#ffffff;stroke-width:0.353386" />
    </g>
    <g
       transform="translate(-13.027541,14.363232)"
       id="TricepMuscle_B"
       inkscape:label="TricepMuscle_B"
       sodipodi:insensitive="true"
       style="fill:#ffffff">
      <path
         id="path963"
         d="m 76.259013,104.07917 c -0.592379,0.23384 -1.777273,0.70156 -2.743956,1.23167 -0.966684,0.5301 -1.715022,1.12253 -2.245139,1.60588 -0.530118,0.48334 -0.841927,0.85751 -1.20053,1.82423 -0.358604,0.96672 -0.763954,2.52576 -0.966609,3.91338 -0.202656,1.38763 -0.202656,2.54132 -0.01551,3.71066 0.187143,1.16934 0.561313,2.32303 0.904387,3.07137 0.343074,0.74834 0.654882,1.09133 1.044661,1.26269 0.389779,0.17136 0.857491,0.17136 1.481025,-0.0937 0.623533,-0.26506 1.403052,-0.79514 1.886313,-1.26279 0.48326,-0.46765 0.670344,-0.873 0.950979,-1.49663 0.280635,-0.62363 0.654804,-1.46551 1.060168,-2.38538 0.405363,-0.91986 0.841896,-1.91765 1.169305,-2.61925 0.327409,-0.7016 0.545675,-1.10695 0.639255,-1.49662 0.09358,-0.38968 0.0624,-0.76385 -0.04672,-1.3407 -0.109112,-0.57685 -0.296197,-1.35637 -0.498874,-2.15151 -0.202677,-0.79513 -0.420942,-1.60583 -0.561284,-2.27625 -0.140343,-0.67042 -0.202704,-1.20049 -0.233902,-1.46568 -0.0312,-0.26519 -0.03119,-0.26519 -0.623572,-0.0314 z"
         style="fill:#ffffff;stroke:#000000;stroke-width:0.264583px;stroke-linecap:butt;stroke-linejoin:miter;stroke-opacity:1" />
      <path
         sodipodi:nodetypes="ccccccccccccccccc"
         id="path967"
         d="m 104.02616,104.59392 c -0.51466,1.029 -0.79529,3.64825 -0.90436,5.05145 -0.10907,1.40319 -0.0467,1.59029 0.24955,2.22952 0.29625,0.63923 0.82632,1.73056 1.32524,2.6816 0.49892,0.95104 0.96663,1.76174 1.2316,2.4789 0.26497,0.71717 0.32734,1.34079 0.70164,1.96441 0.37431,0.62362 1.06028,1.24723 1.77747,1.60571 0.7172,0.35848 1.46554,0.45202 1.93309,0.35849 0.46755,-0.0935 0.65464,-0.37417 0.91968,-1.10688 0.26504,-0.73272 0.60803,-1.91759 0.84189,-2.71272 0.23387,-0.79514 0.35859,-1.20049 0.29629,-1.94879 -0.0623,-0.74829 -0.31175,-1.83962 -0.50983,-2.86932 -0.19808,-1.02971 -0.36322,-2.11964 -0.53468,-2.89917 -0.17147,-0.77953 -0.35856,-1.3096 -0.88856,-1.90211 -0.53,-0.5925 -1.40305,-1.24728 -2.19818,-1.73065 -0.79512,-0.48336 -1.51228,-0.79517 -2.24507,-1.23167 -0.73278,-0.4365 -1.48112,-0.99776 -1.99577,0.0312 z"
         style="fill:#ffffff;stroke:#000000;stroke-width:0.264583px;stroke-linecap:butt;stroke-linejoin:miter;stroke-opacity:1" />
      <path
         transform="matrix(0.26458333,0,0,0.26458333,64.690628,69.982292)"
         id="path971"
         d="m 24.29263,191.01536 c -4.53794,-1.97358 -8.487623,-16.99547 -7.207504,-27.41244 0.972642,-7.91487 3.677165,-17.54776 5.811448,-20.69904 2.930114,-4.32632 10.856773,-9.40265 20.624025,-13.20787 l 1.836432,-0.71545 0.225844,1.66644 c 0.238367,1.75885 1.847042,8.8368 3.75368,16.51569 0.741823,2.98766 1.140621,5.46233 1.139514,7.07107 -0.0016,2.30463 -0.160544,2.81535 -2.310854,7.42462 -1.270033,2.72236 -4.021887,8.80633 -6.115233,13.51994 -2.740065,6.16983 -4.194914,9.01193 -5.194361,10.14736 -2.480546,2.81805 -8.332066,6.19036 -10.727803,6.18258 -0.388908,-0.001 -1.214743,-0.22307 -1.835188,-0.4929 z"
         style="fill:#ffffff;stroke-width:0.249882" />
      <path
         transform="matrix(0.26458333,0,0,0.26458333,64.690628,69.982292)"
         id="path973"
         d="m 168.86866,191.88087 c -1.84208,-0.38152 -5.15787,-2.12848 -6.70655,-3.53343 -2.26811,-2.0576 -3.59887,-4.21384 -4.53772,-7.3525 -0.5666,-1.8942 -2.97597,-7.19241 -6.28061,-13.81108 l -5.36136,-10.73798 0.0315,-4.46482 c 0.0429,-6.06785 1.04712,-13.58412 2.49843,-18.69945 0.61357,-2.16259 1.99367,-3.97337 3.02834,-3.97337 0.66918,0 5.30648,2.42059 12.10388,6.31801 3.37418,1.93465 7.33377,5.02339 9.13028,7.1222 2.21021,2.58214 2.25155,2.74524 6.49619,25.62744 0.71559,3.85765 0.46428,5.70344 -1.78261,13.09269 -2.09447,6.88799 -3.02089,9.31149 -3.80974,9.96617 -0.7203,0.5978 -3.03926,0.81287 -4.81007,0.44612 z"
         style="fill:#ffffff;stroke-width:0.249882" />
    </g>
    <g
       transform="translate(-30.856949,-5.177058)"
       id="CalfMuscle_B"
       inkscape:label="CalfMuscle_B"
       style="fill:#ffffff"
       sodipodi:insensitive="true">
      <path
         id="path2828"
         d="m 97.421926,194.31451 c -0.915199,-0.19847 -1.113635,0.11021 -1.326242,0.62743 -0.212607,0.51722 -0.426811,1.20267 -0.757546,2.07358 -0.330735,0.87091 -0.771697,1.90718 -1.146528,2.80016 -0.37483,0.89298 -0.683506,1.64262 -0.926032,2.55768 -0.242526,0.91507 -0.418911,1.99543 -0.462979,3.10893 -0.04407,1.11351 0.04412,2.26001 0.167045,3.35118 0.12292,1.09117 0.273978,2.08384 0.461396,3.25243 0.187418,1.1686 0.4079,2.49149 0.585613,3.704 0.177713,1.21252 0.307342,2.27116 0.57207,2.89947 0.264728,0.62831 0.661597,0.8047 1.323028,0.85974 0.66143,0.055 1.587452,-0.0111 2.259949,-0.0442 0.672497,-0.0331 1.091412,-0.0331 1.33212,-0.44098 0.240707,-0.40791 0.310224,-1.31163 0.5307,-2.1275 0.22047,-0.81588 0.59529,-1.58757 0.92602,-2.41437 0.33073,-0.8268 0.61736,-1.70873 0.93127,-2.61886 0.31391,-0.91012 0.67827,-1.91211 1.00901,-2.80508 0.33073,-0.89298 0.63941,-1.70877 0.81581,-2.49145 0.17641,-0.78268 0.22051,-1.53232 0.0883,-2.31502 -0.13222,-0.7827 -0.4409,-1.59848 -0.7055,-2.38121 -0.2646,-0.78274 -0.48508,-1.53238 -0.66149,-2.23794 -0.1764,-0.70557 -0.30869,-1.36702 -0.44153,-1.9868 -0.13285,-0.61978 -0.26402,-1.1882 -1.14586,-1.8277 -0.881842,-0.6395 -2.513405,-1.34505 -3.428604,-1.54352 z"
         style="fill:#ffffff;stroke:#000000;stroke-width:0.264583px;stroke-linecap:butt;stroke-linejoin:miter;stroke-opacity:1" />
      <path
         id="path2832"
         d="m 116.18519,196.07835 c 0.871,-0.63951 2.43645,-1.38916 3.30745,-1.67563 0.871,-0.28648 1.04738,-0.11009 1.28984,0.5073 0.24245,0.6174 0.55112,1.67571 0.95905,2.78918 0.40793,1.11347 0.91503,2.28203 1.31187,3.5388 0.39685,1.25678 0.68347,2.60172 0.77163,4.12306 0.0881,1.52134 -0.0221,3.21905 -0.17644,4.65221 -0.15436,1.43315 -0.35279,2.6017 -0.55123,3.67106 -0.19845,1.06937 -0.39688,2.03949 -0.55122,2.99863 -0.15433,0.95914 -0.26457,1.90721 -0.83772,2.42522 -0.57314,0.51802 -1.60939,0.60621 -2.46928,0.65032 -0.85989,0.0441 -1.54339,0.0441 -1.92936,-0.34161 -0.38596,-0.38571 -0.47415,-1.15739 -0.58439,-1.91807 -0.11023,-0.76068 -0.24252,-1.51032 -0.45194,-2.20485 -0.20942,-0.69453 -0.49605,-1.33393 -0.81575,-2.01744 -0.3197,-0.68352 -0.67248,-1.41111 -0.98118,-2.12769 -0.3087,-0.71659 -0.57327,-1.42213 -0.80479,-2.05052 -0.23152,-0.62839 -0.42995,-1.1796 -0.59533,-1.70877 -0.16538,-0.52917 -0.29767,-1.03628 -0.32102,-1.66486 -0.0234,-0.62858 0.0673,-1.42202 0.22277,-2.14196 0.15543,-0.71993 0.37371,-1.37476 0.60522,-1.98111 0.23151,-0.60636 0.47404,-1.15757 0.70556,-1.78594 0.23151,-0.62838 0.45199,-1.33392 0.65043,-1.95129 0.19844,-0.61737 0.37483,-1.14652 1.24583,-1.78604 z"
         style="fill:#ffffff;stroke:#000000;stroke-width:0.264583px;stroke-linecap:butt;stroke-linejoin:miter;stroke-opacity:1" />
      <path
         transform="matrix(0.26458333,0,0,0.26458333,82.417709,92.471878)"
         id="path3397"
         d="m 51.341557,479.70691 c -0.1375,-0.0546 -0.789122,-0.17193 -1.448049,-0.26079 -2.139759,-0.28856 -3.238266,-1.70399 -4.054058,-5.22368 -0.330319,-1.42515 -2.269934,-13.60428 -4.244855,-26.65408 -2.19494,-14.50363 -2.250687,-22.63652 -0.212491,-31 0.809505,-3.3217 1.675768,-5.70911 4.721513,-13.01241 1.344705,-3.22442 3.377495,-8.39384 4.517311,-11.48759 2.638564,-7.16173 2.791742,-7.31227 6.480604,-6.36898 5.284846,1.35139 12.371805,5.10233 14.343265,7.5915 1.13576,1.43402 1.41248,2.24981 2.66089,7.84449 1.3007,5.82901 1.546843,6.7099 3.858275,13.80799 1.997548,6.13418 2.502595,8.37162 2.502595,11.08684 0,3.81325 -0.670062,6.34595 -4.3754,16.53816 -1.274685,3.50625 -3.074922,8.56875 -4.000532,11.25 -0.92561,2.68125 -2.574223,7.08627 -3.663588,9.78893 -1.089362,2.70266 -2.24572,6.02141 -2.56968,7.375 -0.323962,1.35359 -0.82447,3.46981 -1.11224,4.70272 -0.650047,2.78502 -1.107338,3.3082 -3.164893,3.62088 -1.600094,0.24316 -9.824772,0.5653 -10.238667,0.40102 z"
         style="opacity:0.554098;fill:#ffffff;stroke-width:0.176693" />
      <path
         transform="matrix(0.26458333,0,0,0.26458333,82.417709,92.471878)"
         id="path3399"
         d="m 134.09402,480.19989 c -2.28714,-0.61366 -2.93605,-1.9717 -3.86624,-8.09136 -1.06105,-6.98058 -1.91342,-9.62798 -5.77817,-17.94651 -2.82738,-6.08567 -3.24783,-7.0801 -5.21898,-12.34366 -4.2887,-11.45211 -4.66255,-14.00315 -3.13306,-21.37892 0.68402,-3.29858 1.23121,-4.97717 3.62261,-11.1129 0.98855,-2.53637 2.36246,-6.36019 3.05313,-8.49738 0.69068,-2.13719 1.4747,-4.31886 1.74227,-4.84816 1.2074,-2.38839 4.60284,-4.97984 9.99092,-7.6252 3.56264,-1.74914 7.51516,-3.14056 8.33598,-2.93455 0.86821,0.21791 1.26515,1.03449 3.00297,6.17767 0.8872,2.62572 2.8523,8.06317 4.36688,12.08322 2.92203,7.75573 4.3609,12.77404 5.16426,18.01122 0.36217,2.36102 0.45963,4.43771 0.4576,9.75 -0.004,9.66597 -0.77715,16.48293 -3.4889,30.75 -0.47042,2.475 -1.13889,6.14727 -1.48547,8.16061 -0.80357,4.66794 -1.39436,6.28199 -2.79768,7.64331 -1.33488,1.29491 -3.32152,1.94652 -7.05957,2.31551 -3.37055,0.33272 -5.36945,0.30005 -6.90855,-0.1129 z"
         style="opacity:0.554098;fill:#ffffff;stroke-width:0.176693" />
    </g>
    <g
       transform="translate(-14.649311,24.373093)"
       id="ForearmMuscle_B"
       inkscape:label="ForearmMuscle_B"
       onclick="temp"
       style="fill:#ffffff">
      <path
         id="path2790"
         d="m 70.489498,107.77375 c 0.418963,0.52935 0.94813,1.80817 1.433296,2.55774 0.485166,0.74958 0.926133,0.97006 1.499308,0.92586 0.573175,-0.0442 1.278716,-0.35289 1.818764,-0.71795 0.540049,-0.36506 0.870922,-0.7373 1.047318,-0.38438 0.176396,0.35291 0.176396,1.45532 0.08907,2.12284 -0.08733,0.66753 -0.177282,0.78746 -0.300767,1.0477 -0.123485,0.26023 -0.185218,0.44543 -0.14107,1.15107 0.04415,0.70563 0.220534,1.85214 0.154337,2.97657 -0.0662,1.12443 -0.374872,2.22684 -0.793804,3.39541 -0.418933,1.16856 -0.948086,2.40325 -1.389061,3.54981 -0.440975,1.14655 -0.793745,2.20486 -0.992165,3.04276 -0.198421,0.8379 -0.242518,1.45525 -0.220436,2.05059 0.02208,0.59534 0.110272,1.16859 -0.661359,1.58736 -0.771632,0.41876 -2.403196,0.68334 -3.219103,0.3307 -0.815907,-0.35264 -0.815907,-1.32276 -0.83795,-2.27085 -0.02204,-0.9481 -0.06614,-1.87412 -0.110238,-2.97656 -0.0441,-1.10245 -0.0882,-2.38124 -0.154337,-3.59392 -0.06614,-1.21268 -0.154333,-2.35919 -0.198441,-3.37345 -0.04411,-1.01425 -0.04411,-1.89617 0.154307,-2.7341 0.198415,-0.83794 0.595284,-1.63168 0.74966,-2.57969 0.154376,-0.94801 0.06618,-2.05042 0.1916,-3.08916 0.125417,-1.03874 0.491869,-2.09229 0.822654,-2.70975 0.330784,-0.61746 0.639458,-0.83794 1.058422,-0.3086 z"
         style="fill:#ffffff;stroke:#000000;stroke-width:0.264583px;stroke-linecap:butt;stroke-linejoin:miter;stroke-opacity:1" />
      <path
         id="path2794"
         d="m 108.14858,109.89054 c -0.28677,0.35279 -0.24267,1.58751 -0.0441,2.46948 0.19854,0.88196 0.55131,1.41112 0.66142,1.85202 0.11011,0.44089 -0.0222,0.79366 -0.15415,1.51871 -0.13196,0.72504 -0.26488,1.83267 -0.0788,2.81938 0.18606,0.9867 0.652,1.79151 1.13705,2.84985 0.48504,1.05835 0.9701,2.33714 1.32285,3.57187 0.35274,1.23473 0.57322,2.42533 0.68344,3.4616 0.11021,1.03628 0.11021,1.91821 0.83799,2.55753 0.72778,0.63933 2.18296,1.03619 2.95449,0.94806 0.77152,-0.0881 0.85971,-0.66139 0.90383,-1.58742 0.0441,-0.92603 0.0441,-2.20483 0.0882,-3.59391 0.0441,-1.38909 0.13229,-2.88837 0.19844,-4.21129 0.0662,-1.32292 0.11024,-2.46943 0.0662,-3.5498 -0.0441,-1.08037 -0.17637,-2.09459 -0.35271,-2.86628 -0.17635,-0.77169 -0.39683,-1.30086 -0.48585,-2.18287 -0.089,-0.88201 -0.0434,-2.20485 -0.26382,-3.32931 -0.2204,-1.12446 -0.70546,-2.09458 -1.00692,-2.73671 -0.30145,-0.64213 -0.44824,-1.03356 -0.66881,-0.85726 -0.22058,0.1763 -0.52925,0.88184 -0.77179,1.56538 -0.24253,0.68355 -0.41892,1.34499 -0.72752,1.78584 -0.30861,0.44086 -0.74957,0.66134 -1.23454,0.66143 -0.48496,1e-4 -1.01412,-0.22038 -1.58741,-0.59516 -0.5733,-0.37478 -1.19064,-0.90393 -1.47741,-0.55114 z"
         style="fill:#ffffff;stroke:#000000;stroke-width:0.264583px;stroke-linecap:butt;stroke-linejoin:miter;stroke-opacity:1" />
      <path
         transform="matrix(0.26458333,0,0,0.26458333,66.278122,60.192711)"
         id="path2798"
         d="M 9.8752993,268.28783 C 7.705047,267.1901 7.4287488,265.76064 6.8999127,252.89436 6.6238998,246.17912 6.1250196,235.47087 5.79129,229.09824 5.1336907,216.54127 5.2262939,215.44685 7.6192418,207.4949 c 0.9007145,-2.99315 1.3915999,-6.20655 1.7185731,-11.25 0.2996484,-4.62198 0.8139471,-8.1824 1.4892761,-10.31006 1.30769,-4.11995 2.785557,-6.56941 3.742145,-6.20233 0.396732,0.15224 1.563659,1.89129 2.593172,3.86456 4.626221,8.86709 6.619335,10.75344 10.614231,10.04568 2.003074,-0.35488 6.366406,-2.35282 7.638031,-3.4974 1.624407,-1.46212 1.960629,-0.85239 1.960629,3.55555 0,2.77631 -0.276512,4.91522 -0.791823,6.125 -0.662287,1.55483 -0.73599,3.09529 -0.450525,9.41637 0.469295,10.39164 -0.01564,12.60647 -6.28227,28.69257 -4.663011,11.9697 -5.990899,16.7245 -6.340036,22.70194 -0.223276,3.82262 -0.493464,5.15618 -1.18474,5.84745 -2.048514,2.04852 -9.758356,3.16537 -12.4506057,1.8036 z"
         style="opacity:0.586885;fill:#ffffff;stroke-width:0.353386" />
      <path
         transform="matrix(0.26458333,0,0,0.26458333,66.278122,60.192711)"
         id="path2800"
         d="m 181.56664,269.96037 c -2.77548,-0.66259 -6.15839,-2.57488 -7.23852,-4.09179 -0.64399,-0.9044 -1.24759,-2.8818 -1.55131,-5.08208 -1.79957,-13.03699 -3.81384,-20.17539 -8.91714,-31.60166 -2.76563,-6.19225 -3.15505,-7.45725 -3.37469,-10.9625 -0.13656,-2.17937 0.037,-6.11792 0.38567,-8.75235 l 0.63396,-4.78986 -1.56466,-4.55699 c -1.12088,-3.26452 -1.56248,-5.46194 -1.55699,-7.74765 0.0108,-4.50054 0.30203,-4.75559 3.27117,-2.86475 5.73734,3.65371 8.83348,4.25485 11.77223,2.28569 1.33865,-0.89699 2.04733,-2.03684 3.3418,-5.375 0.90358,-2.33012 2.10924,-5.24909 2.67924,-6.48659 l 1.03638,-2.25 1.44044,2.84863 c 2.83447,5.60548 3.95853,9.97702 4.4899,17.4616 0.31706,4.46588 0.9873,8.95021 1.84597,12.35074 1.27211,5.03784 1.3477,5.98778 1.33995,16.83903 -0.005,6.325 -0.26724,18.09832 -0.58383,26.16294 -0.65376,16.65311 -0.76543,17.12547 -4.02744,17.03588 -1.02491,-0.0282 -2.56487,-0.21863 -3.42213,-0.42329 z"
         style="opacity:0.586885;fill:#ffffff;stroke-width:0.353386" />
    </g>
  </g>
</svg>
