<?xml version="1.0" encoding="UTF-8" standalone="no"?>
<svg
   xmlns:dc="http://purl.org/dc/elements/1.1/"
   xmlns:cc="http://creativecommons.org/ns#"
   xmlns:rdf="http://www.w3.org/1999/02/22-rdf-syntax-ns#"
   xmlns:svg="http://www.w3.org/2000/svg"
   xmlns="http://www.w3.org/2000/svg"
   xmlns:sodipodi="http://sodipodi.sourceforge.net/DTD/sodipodi-0.dtd"
   xmlns:inkscape="http://www.inkscape.org/namespaces/inkscape"
   width="51.064583mm"
   height="143.66875mm"
   viewBox="0 0 51.064583 143.66875"
   version="1.1"
   id="svg8"
   inkscape:version="1.0.2 (e86c870879, 2021-01-15, custom)"
   sodipodi:docname="back shoulder muscle SVG.svg">
  <defs
     id="defs2">
    <inkscape:path-effect
       effect="bspline"
       id="path-effect851"
       is_visible="true"
       lpeversion="1"
       weight="33.333333"
       steps="2"
       helper_size="0"
       apply_no_weight="true"
       apply_with_weight="true"
       only_selected="false" />
  </defs>
  <sodipodi:namedview
     id="base"
     pagecolor="#ffffff"
     bordercolor="#666666"
     borderopacity="1.0"
     inkscape:pageopacity="0.0"
     inkscape:pageshadow="2"
     inkscape:zoom="1.4142136"
     inkscape:cx="51.128824"
     inkscape:cy="166.68516"
     inkscape:document-units="mm"
     inkscape:current-layer="layer1"
     inkscape:document-rotation="0"
     showgrid="false"
     inkscape:snap-global="false"
     fit-margin-top="0"
     fit-margin-left="0"
     fit-margin-right="0"
     fit-margin-bottom="0"
     inkscape:window-width="958"
     inkscape:window-height="991"
     inkscape:window-x="952"
     inkscape:window-y="0"
     inkscape:window-maximized="0" />
  <metadata
     id="metadata5">
    <rdf:RDF>
      <cc:Work
         rdf:about="">
        <dc:format>image/svg+xml</dc:format>
        <dc:type
           rdf:resource="http://purl.org/dc/dcmitype/StillImage" />
        <dc:title></dc:title>
      </cc:Work>
    </rdf:RDF>
  </metadata>
  <g
     inkscape:label="Layer 1"
     inkscape:groupmode="layer"
     id="layer1"
     transform="translate(-69.717712,-62.30938)">
    <path
       style="fill:none;stroke:#000000;stroke-width:0.264583px;stroke-linecap:butt;stroke-linejoin:miter;stroke-opacity:1"
       d="m 95.999784,84.512438 c -0.838031,0.970168 -1.719957,3.108837 -3.219202,4.641153 -1.499246,1.532315 -3.61587,2.458338 -5.394004,3.379401 -1.778133,0.921063 -3.249006,1.857073 -3.877312,2.452558 -0.628307,0.595485 -0.429873,0.860064 0.650557,1.047337 1.080429,0.187274 3.042716,0.297515 4.993993,0.121091 1.951278,-0.176424 3.891478,-0.639426 5.159176,-1.488236 1.267698,-0.848811 1.862999,-2.083508 2.39235,-2.656798 0.52935,-0.573289 0.992362,-0.485097 1.528219,0.167972 0.535858,0.653068 1.161726,1.904805 2.606009,2.74254 1.44429,0.837735 3.71525,1.278698 5.40196,1.488127 1.6867,0.209428 2.78911,0.187379 3.57815,0.04657 0.78904,-0.140813 1.28337,-0.410449 1.56994,-0.60884 0.28657,-0.198391 0.37475,-0.330664 -0.39679,-0.947965 -0.77155,-0.6173 -2.40311,-1.719706 -3.82525,-2.568609 -1.42215,-0.848903 -2.6348,-1.444203 -3.63803,-2.083575 -1.00324,-0.639372 -1.79697,-1.322864 -2.50452,-2.253677 -0.70755,-0.930814 -1.365139,-2.177969 -1.784022,-2.894571 -0.418883,-0.716601 -0.617317,-0.937084 -1.113387,-1.146647 -0.49607,-0.209563 -1.289805,-0.407995 -2.127837,0.562174 z"
       id="path849"
       sodipodi:nodetypes="cccccccccccccccccccc" />
    <path
       style="opacity:1;fill:#ffffff;stroke:none;stroke-width:0.707107"
       d="m 134.08666,127.3972 c -7.18863,-1.30084 -14.35482,-3.68626 -17.15482,-5.71033 -1.28071,-0.92581 -4.09563,-3.83365 -6.25539,-6.46187 -4.78976,-5.82869 -6.77918,-6.42924 -9.7058,-2.92992 -8.348149,9.98177 -11.337504,11.89968 -21.549497,13.82575 -6.624909,1.24952 -25.394862,1.10898 -26.701962,-0.19992 -1.252632,-1.25436 3.696316,-4.97205 13.906999,-10.44704 19.17943,-10.28405 22.014722,-12.65116 29.148498,-24.335254 5.245492,-8.591364 7.521022,-10.277307 11.260982,-8.343296 1.44337,0.746393 3.22552,2.91066 5.15809,6.26403 6.54485,11.35655 10.03649,14.62801 23.97627,22.46432 7.90221,4.44226 18.35563,11.32575 19.74879,13.0044 0.57574,0.69372 0.71539,1.42068 0.33843,1.76172 -2.53145,2.29024 -12.79977,2.80314 -22.17059,1.10741 z"
       id="path861"
       transform="matrix(0.26458333,0,0,0.26458333,69.717712,62.30938)"
       inkscape:transform-center-y="16.276715" />
    <path
       style="opacity:1;fill:none;stroke-width:0.70677166;stroke-miterlimit:4;stroke-dasharray:none"
       d="m 134.08666,127.3972 c -7.18863,-1.30084 -14.35482,-3.68626 -17.15482,-5.71033 -1.28071,-0.92581 -4.09563,-3.83365 -6.25539,-6.46187 -4.77389,-5.80938 -6.65799,-6.37662 -9.64142,-2.90272 -8.730159,10.16536 -11.405141,11.8731 -21.613877,13.79855 -6.624909,1.24952 -25.394862,1.10898 -26.701962,-0.19992 -1.267865,-1.26962 3.737314,-5.00719 14.094595,-10.52501 18.819292,-10.02594 21.700689,-12.50977 29.822918,-25.707944 6.470346,-10.51396 9.900576,-10.312088 16.542516,0.973539 4.8983,8.322913 9.64996,13.082845 17.63447,17.665135 16.44462,9.43754 25.50889,15.58104 25.50889,17.28917 0,2.65608 -12.06218,3.62243 -22.23592,1.7814 z"
       id="path863"
       transform="matrix(0.26458333,0,0,0.26458333,69.717712,62.30938)" />
    <path
       style="opacity:1;fill:none;stroke-width:0.124941;stroke-miterlimit:4;stroke-dasharray:none;stroke:none"
       d="m 142.30369,128.71743 c -10.32851,-0.89974 -19.4883,-3.14864 -24.27255,-5.95937 -3.09712,-1.81955 -5.23319,-3.94593 -8.34094,-8.30313 -2.3547,-3.3014 -3.64802,-4.28592 -5.4355,-4.13769 -1.43149,0.11871 -2.1291,0.73424 -4.679441,4.12885 -2.833497,3.7715 -4.175081,5.24156 -6.106004,6.69074 -4.505571,3.38148 -11.887,5.5453 -21.499997,6.30258 -3.504423,0.27607 -12.554954,0.11338 -15.313875,-0.27526 -4.138596,-0.58301 -5.603538,-1.14669 -5.155554,-1.98376 0.400297,-0.74796 2.796644,-2.75312 5.218658,-4.36675 3.525068,-2.34852 6.630683,-4.11748 12.649228,-7.205 8.493615,-4.35723 11.43907,-6.08415 14.688056,-8.61159 4.288072,-3.33577 6.824289,-6.47868 11.573758,-14.342355 2.626256,-4.348282 3.603707,-5.764041 4.796521,-6.947382 2.03573,-2.019561 4.2561,-2.441375 6.83244,-1.297992 1.8453,0.818945 2.27709,1.367434 5.51682,7.007937 4.55805,7.93575 7.24763,11.260782 11.92373,14.740852 2.30908,1.71847 4.00322,2.75567 9.60129,5.87816 5.92755,3.30626 9.11658,5.21683 13.30666,7.9721 5.69917,3.7476 9.67288,6.75731 9.91062,7.50636 0.14682,0.46261 -0.2404,0.78302 -1.95567,1.61827 -2.53405,1.23396 -5.31393,1.71717 -9.63433,1.6747 -1.60424,-0.0158 -3.23501,-0.0564 -3.62392,-0.0903 z"
       id="path865"
       transform="matrix(0.26458333,0,0,0.26458333,69.717712,62.30938)" />
  </g>
</svg>
