<?xml version="1.0" encoding="UTF-8" standalone="no"?>
<svg
   xmlns:dc="http://purl.org/dc/elements/1.1/"
   xmlns:cc="http://creativecommons.org/ns#"
   xmlns:rdf="http://www.w3.org/1999/02/22-rdf-syntax-ns#"
   xmlns:svg="http://www.w3.org/2000/svg"
   xmlns="http://www.w3.org/2000/svg"
   xmlns:sodipodi="http://sodipodi.sourceforge.net/DTD/sodipodi-0.dtd"
   xmlns:inkscape="http://www.inkscape.org/namespaces/inkscape"
   width="59.795834mm"
   height="152.04167mm"
   viewBox="0 0 59.795834 152.04167"
   version="1.1"
   id="svg8"
   inkscape:version="1.0 (4035a4fb49, 2020-05-01)"
   sodipodi:docname="front-combined-muscle-structure.svg">
  <defs
     id="defs2">
    <inkscape:path-effect
       effect="bspline"
       id="path-effect1055"
       is_visible="true"
       lpeversion="1"
       weight="33.333333"
       steps="2"
       helper_size="0"
       apply_no_weight="true"
       apply_with_weight="true"
       only_selected="false" />
    <inkscape:path-effect
       effect="bspline"
       id="path-effect1051"
       is_visible="true"
       lpeversion="1"
       weight="33.333333"
       steps="2"
       helper_size="0"
       apply_no_weight="true"
       apply_with_weight="true"
       only_selected="false" />
    <inkscape:path-effect
       effect="bspline"
       id="path-effect1047"
       is_visible="true"
       lpeversion="1"
       weight="33.333333"
       steps="2"
       helper_size="0"
       apply_no_weight="true"
       apply_with_weight="true"
       only_selected="false" />
    <inkscape:path-effect
       effect="bspline"
       id="path-effect26"
       is_visible="true"
       lpeversion="1"
       weight="33.333333"
       steps="2"
       helper_size="0"
       apply_no_weight="true"
       apply_with_weight="true"
       only_selected="false" />
    <inkscape:path-effect
       effect="bspline"
       id="path-effect853"
       is_visible="true"
       lpeversion="1"
       weight="33.333333"
       steps="2"
       helper_size="0"
       apply_no_weight="true"
       apply_with_weight="true"
       only_selected="false" />
    <inkscape:path-effect
       effect="bspline"
       id="path-effect849"
       is_visible="true"
       lpeversion="1"
       weight="33.333333"
       steps="2"
       helper_size="0"
       apply_no_weight="true"
       apply_with_weight="true"
       only_selected="false" />
    <inkscape:path-effect
       effect="bspline"
       id="path-effect1451"
       is_visible="true"
       lpeversion="1"
       weight="33.333333"
       steps="2"
       helper_size="0"
       apply_no_weight="true"
       apply_with_weight="true"
       only_selected="false" />
    <inkscape:path-effect
       effect="bspline"
       id="path-effect3271"
       is_visible="true"
       lpeversion="1"
       weight="33.333333"
       steps="2"
       helper_size="0"
       apply_no_weight="true"
       apply_with_weight="true"
       only_selected="false" />
    <inkscape:path-effect
       effect="bspline"
       id="path-effect3267"
       is_visible="true"
       lpeversion="1"
       weight="33.333333"
       steps="2"
       helper_size="0"
       apply_no_weight="true"
       apply_with_weight="true"
       only_selected="false" />
    <inkscape:path-effect
       effect="bspline"
       id="path-effect3263"
       is_visible="true"
       lpeversion="1"
       weight="33.333333"
       steps="2"
       helper_size="0"
       apply_no_weight="true"
       apply_with_weight="true"
       only_selected="false" />
    <inkscape:path-effect
       effect="bspline"
       id="path-effect3259"
       is_visible="true"
       lpeversion="1"
       weight="33.333333"
       steps="2"
       helper_size="0"
       apply_no_weight="true"
       apply_with_weight="true"
       only_selected="false" />
    <inkscape:path-effect
       effect="bspline"
       id="path-effect1459"
       is_visible="true"
       lpeversion="1"
       weight="33.333333"
       steps="2"
       helper_size="0"
       apply_no_weight="true"
       apply_with_weight="true"
       only_selected="false" />
    <inkscape:path-effect
       effect="bspline"
       id="path-effect1455"
       is_visible="true"
       lpeversion="1"
       weight="33.333333"
       steps="2"
       helper_size="0"
       apply_no_weight="true"
       apply_with_weight="true"
       only_selected="false" />
    <inkscape:path-effect
       effect="bspline"
       id="path-effect2661"
       is_visible="true"
       lpeversion="1"
       weight="33.333333"
       steps="2"
       helper_size="0"
       apply_no_weight="true"
       apply_with_weight="true"
       only_selected="false" />
    <inkscape:path-effect
       effect="bspline"
       id="path-effect2096"
       is_visible="true"
       lpeversion="1"
       weight="33.333333"
       steps="2"
       helper_size="0"
       apply_no_weight="true"
       apply_with_weight="true"
       only_selected="false" />
    <inkscape:path-effect
       effect="bspline"
       id="path-effect2070"
       is_visible="true"
       lpeversion="1"
       weight="33.333333"
       steps="2"
       helper_size="0"
       apply_no_weight="true"
       apply_with_weight="true"
       only_selected="false" />
    <inkscape:path-effect
       effect="bspline"
       id="path-effect2066"
       is_visible="true"
       lpeversion="1"
       weight="33.333333"
       steps="2"
       helper_size="0"
       apply_no_weight="true"
       apply_with_weight="true"
       only_selected="false" />
  </defs>
  <sodipodi:namedview
     id="base"
     pagecolor="#ffffff"
     bordercolor="#666666"
     borderopacity="1.0"
     inkscape:pageopacity="0.0"
     inkscape:pageshadow="2"
     inkscape:zoom="0.50000001"
     inkscape:cx="423.54102"
     inkscape:cy="403.81939"
     inkscape:document-units="mm"
     inkscape:current-layer="layer1"
     inkscape:document-rotation="0"
     showgrid="false"
     inkscape:snap-global="false"
     fit-margin-top="0"
     fit-margin-left="0"
     fit-margin-right="0"
     fit-margin-bottom="0"
     inkscape:window-width="1424"
     inkscape:window-height="1030"
     inkscape:window-x="789"
     inkscape:window-y="15"
     inkscape:window-maximized="0" />
  <metadata
     id="metadata5">
    <rdf:RDF>
      <cc:Work
         rdf:about="">
        <dc:format>image/svg+xml</dc:format>
        <dc:type
           rdf:resource="http://purl.org/dc/dcmitype/StillImage" />
        <dc:title></dc:title>
      </cc:Work>
    </rdf:RDF>
  </metadata>
  <g
     inkscape:label="Layer 1"
     inkscape:groupmode="layer"
     id="layer1"
     transform="translate(-74.347916,-40.216663)">
    <path
       style="fill:#ffffff;stroke:#000000;stroke-width:0.264583px;stroke-linecap:butt;stroke-linejoin:miter;stroke-opacity:1"
       d="m 99.70189,53.94798 c 0.257037,-0.874119 0.257037,-2.519807 0.66849,-3.651371 0.41145,-1.131563 1.23428,-1.748685 2.16007,-2.160114 0.92579,-0.411428 1.95432,-0.617134 2.88006,-0.71997 0.92574,-0.102835 1.54285,-0.102835 2.31428,0.257288 0.77144,0.360123 1.59427,1.080099 2.21134,1.851559 0.61708,0.77146 1.02849,1.59429 1.28557,2.468556 0.25707,0.874267 0.35993,1.799947 0.46285,2.365667 0.10292,0.56572 0.20577,0.771429 0.43419,1.169238 0.22842,0.39781 0.4916,0.836446 0.54291,1.453519 0.0513,0.617073 -0.15441,1.337048 -0.46295,1.902669 -0.30855,0.565621 -0.71996,0.977039 -1.07998,1.697121 -0.36002,0.720083 -0.66858,1.748617 -0.51413,2.520072 0.15446,0.771455 0.77158,1.285722 1.85159,2.057129 1.08,0.771408 2.62281,1.799947 4.16566,2.777074 1.54285,0.977127 2.83093,2.396844 4.47419,2.931405 3.96058,1.868117 3.67681,2.85128 4.57688,6.171418 0.3086,1.028562 0.41146,1.234265 0.51427,1.645684 0.1028,0.411419 0.20565,1.028539 0.20561,1.594201 -5e-5,0.565661 -0.1029,1.079928 -0.15431,1.594241 -0.0514,0.514313 -0.0514,1.028581 0.15436,1.902892 0.20577,0.874311 0.61718,2.108549 0.97716,3.497107 0.35997,1.388559 0.66853,2.93136 0.82278,4.114187 0.15425,1.182826 0.15425,2.005651 0.46288,3.239962 0.30864,1.23431 0.92576,2.879964 1.28997,4.37101 0.3642,1.491046 0.45854,2.623136 0.50996,4.063116 0.0514,1.43999 0.0514,2.87993 -0.20576,4.78274 -0.25716,1.90282 -0.77143,4.16559 -0.87423,6.06849 -0.1028,1.9029 0.20577,3.4457 0.30858,4.98852 0.10281,1.54281 -4e-5,3.08561 -0.10289,4.78275 -0.10286,1.69713 -0.20571,3.54849 -0.43755,5.13561 -0.23184,1.58712 -0.48819,2.52703 -0.83231,3.21922 -0.34412,0.6922 -0.58146,0.85043 -0.99276,0.85051 -0.4113,8e-5 -0.92557,-0.20562 -1.33709,-0.71981 -0.41153,-0.51419 -0.72009,-1.33702 -0.61731,-2.21142 0.10278,-0.87439 0.61705,-1.80007 1.0799,-2.62293 0.46285,-0.82285 0.87426,-1.54282 0.77153,-2.31414 -0.10272,-0.77132 -0.71984,-1.59415 -1.13124,-2.10844 -0.41141,-0.51429 -0.61711,-0.72 -0.87441,-0.25718 -0.2573,0.46281 -0.56586,1.5942 -0.97722,2.31408 -0.41137,0.71988 -0.92564,1.02844 -1.13139,0.51429 -0.20576,-0.51414 -0.1029,-1.85124 -0.0515,-2.82837 0.0514,-0.97712 0.0514,-1.59424 0.2057,-2.31429 0.15426,-0.72006 0.46282,-1.54289 0.92569,-2.36579 0.46286,-0.8229 1.07998,-1.64573 1.23433,-2.51987 0.15434,-0.87415 -0.15421,-1.79983 -0.56563,-2.98268 -0.41143,-1.18285 -0.9257,-2.62279 -1.29561,-3.90653 -0.36991,-1.28373 -0.55584,-2.21337 -0.81294,-3.08764 -0.25711,-0.87428 -0.56567,-1.59425 -0.82285,-2.51996 -0.25718,-0.92572 -0.46289,-2.05711 -0.56577,-2.93141 -0.10288,-0.874293 -0.10288,-1.491412 -0.10288,-2.108551 0,-0.61714 0,-1.234259 -0.10283,-2.108524 -0.10283,-0.874264 -0.30854,-2.005652 -0.7199,-3.085638 -0.41136,-1.079987 -1.02848,-2.108525 -1.5653,-2.988006 -0.53681,-0.879481 -1.10886,-1.794762 -1.62326,-0.971948 -0.5144,0.822814 -1.02867,3.291295 -1.28579,5.091309 -0.25712,1.800014 -0.25712,2.931402 -0.20568,4.217119 0.0514,1.285716 0.15429,2.725669 0.41149,3.959959 0.2572,1.2343 0.66861,2.26282 0.87426,3.18851 0.20565,0.92568 0.20565,1.7485 0.20565,2.67421 0,0.92571 0,1.95425 0.10287,3.54854 0.10287,1.59429 0.30858,3.75421 0.56573,5.86278 0.25715,2.10856 0.56571,4.16563 1.02859,6.11991 0.46289,1.95428 1.08,3.80564 1.18278,5.86272 0.10278,2.05708 -0.30863,4.31985 -0.41145,6.42845 -0.10282,2.10859 0.10289,4.06282 0.10286,5.75991 -4e-5,1.6971 -0.20574,3.13705 -0.36002,4.47419 -0.15428,1.33714 -0.25713,2.57138 8e-5,4.06284 0.25721,1.49147 0.87433,3.23997 1.34322,4.75559 0.46888,1.51561 0.76534,2.70145 0.91959,3.88427 0.15424,1.18283 -0.14342,2.31422 -0.34916,3.44558 -0.20575,1.13136 -0.3195,2.26275 -0.73092,3.7542 -0.41142,1.49144 -0.82283,3.3428 -0.97708,4.93712 -0.15425,1.59432 -0.0514,2.93141 2e-5,3.95996 0.0514,1.02856 0.0514,1.74853 0.20576,2.57141 0.15434,0.82288 0.46289,1.74856 0.97722,2.82855 0.51432,1.08 1.23429,2.31424 1.9543,3.49709 0.72,1.18284 1.43997,2.31422 1.85132,3.1885 0.41136,0.87428 0.51421,1.4914 -6e-5,2.10836 -0.51427,0.61697 -1.64565,1.23408 -2.57132,1.64551 -0.92567,0.41143 -1.64564,0.61713 -2.31414,0.66861 -0.6685,0.0515 -1.28562,-0.0514 -2.00565,-0.56556 -0.72002,-0.51417 -1.54285,-1.43984 -1.85156,-2.21133 -0.30872,-0.77149 -0.10301,-1.3886 -0.30858,-2.05711 -0.20557,-0.6685 -0.82269,-1.38847 -1.18279,-2.31419 -0.36011,-0.92571 -0.46296,-2.05709 -0.46299,-2.9314 -3e-5,-0.87432 0.10282,-1.49144 0.15427,-2.05712 0.0514,-0.56569 0.0514,-1.07996 0.30857,-1.69721 0.25712,-0.61724 0.77139,-1.33722 0.72005,-2.31422 -0.0513,-0.97701 -0.66845,-2.21125 -1.18277,-3.65125 -0.51433,-1.43999 -0.92574,-3.08564 -1.49142,-4.67991 -0.56568,-1.59428 -1.28565,-3.13707 -1.69713,-4.26851 -0.41147,-1.13143 -0.51432,-1.8514 -0.56577,-2.51998 -0.0515,-0.66858 -0.0515,-1.2857 -0.0515,-1.90284 0,-0.61714 0,-1.02855 0.15426,-1.80003 0.15426,-0.77147 0.46282,-1.80001 0.41146,-3.03421 -0.0514,-1.23421 -0.46278,-2.67416 -0.82271,-3.59987 -0.35993,-0.92571 -0.66849,-1.33713 -0.8743,-2.21142 -0.20581,-0.87429 -0.30866,-2.21138 -0.5658,-4.73137 -0.25714,-2.51999 -0.66855,-6.22272 -1.13139,-9.25698 -0.46284,-3.03425 -0.97711,-5.39988 -1.59431,-5.50278 -0.6172,-0.10291 -1.33717,2.05701 -1.85145,3.95988 -0.51427,1.90286 -0.82283,3.54852 -1.02853,5.24568 -0.2057,1.69715 -0.30855,3.44565 -0.35997,4.93708 -0.0514,1.49143 -0.0514,2.72567 -0.30859,3.85701 -0.25717,1.13134 -0.77144,2.15987 -1.19592,3.28777 -0.42447,1.1279 -0.70693,2.16355 -0.70687,3.60361 5e-5,1.44005 0.0514,3.21195 0.25706,4.80621 0.2057,1.59427 0.30855,3.03422 -0.15434,4.42266 -0.462877,1.38843 -1.234169,2.70214 -1.954163,4.60508 -0.719994,1.90294 -1.375623,4.99884 -1.594348,6.19946 -0.46036,2.527 -0.713656,3.16105 0.05155,3.98335 0.595594,0.64003 0,1.38854 -0.05145,1.85136 -0.05145,0.46281 -0.154307,0.87423 -0.1028,1.38858 0.05151,0.51434 0.257213,1.13146 0.514414,1.64574 0.257202,0.51427 0.565759,0.92568 0.205644,1.64553 -0.360116,0.71985 -1.388649,1.74839 -1.800016,2.57139 -0.411367,0.82301 -0.205661,1.44013 -0.565708,2.15996 -0.360047,0.71983 -1.285729,1.54266 -2.005741,2.26268 -0.720013,0.72001 -0.969697,0.77489 -1.226825,0.87786 -0.257128,0.10297 -0.521711,0.2538 -0.881564,-0.003 -0.359853,-0.25725 -1.079827,-0.3601 -1.645552,-0.41155 -0.565725,-0.0515 -0.977139,-0.0515 -1.388549,-0.20563 -0.411411,-0.15417 -0.822825,-0.46273 -1.131488,-0.92554 -0.308663,-0.46281 -0.514373,-1.07994 -0.103017,-2.36576 0.411355,-1.28582 1.439887,-3.24003 2.211336,-4.47435 0.771449,-1.23432 1.285714,-1.74858 1.483108,-2.36418 0.197395,-0.6156 0.05003,-1.14602 0.214028,-1.74989 0.151196,-0.55674 -0.08014,-1.03291 0.606219,-2.7146 0.437987,-1.07312 0.894195,-4.00804 0.49648,-6.22266 -0.340739,-1.89736 -0.775238,-2.93501 -0.826679,-4.22073 -0.05144,-1.28572 -0.745972,-2.82489 -0.745972,-4.1106 0,-1.2857 -0.496093,-2.25171 -0.29111,-3.36417 0.204983,-1.11247 0.246729,-1.99549 0.50387,-2.71548 0.257142,-0.71999 0.462848,-1.33711 0.771445,-1.85147 0.308596,-0.51436 0.720014,-0.92577 0.772317,-2.3076 0.0523,-1.38183 -0.257978,-3.76065 -0.412281,-5.76637 -0.154302,-2.00571 -0.154302,-3.65136 -0.102882,-5.19422 0.05142,-1.54286 0.154273,-2.9828 1.7e-5,-5.09134 -0.154257,-2.10854 -0.914293,-4.72784 -0.47012,-7.00144 0.426277,-2.18201 1.293443,-4.16566 1.205126,-5.77469 -0.08624,-1.57107 0.143022,-2.77245 0.536083,-3.99668 0.412152,-1.28369 0.425967,-2.82124 0.631703,-4.20975 0.205736,-1.38851 0.205736,-2.82846 0.308582,-4.62846 0.102846,-1.80001 0.308554,-3.95994 0.308542,-4.88572 -1.2e-5,-0.92578 -0.205719,-0.61722 0.102875,-0.8744 0.308595,-0.25718 1.131423,-1.08001 1.440004,-2.417 0.308581,-1.33699 0.102874,-3.188354 3e-6,-4.422639 -0.102872,-1.234285 -0.102872,-1.851404 -0.359963,-2.931375 -0.25709,-1.079971 -0.771357,-2.622772 -1.079957,-3.754201 -0.308599,-1.131428 -0.411453,-1.851402 -0.514312,-2.622828 -0.102859,-0.771426 -0.205713,-1.594254 -0.617186,-0.822876 -0.411473,0.771378 -1.131447,3.137007 -1.645725,4.885566 -0.514279,1.748559 -0.82284,2.879949 -0.977099,4.011412 -0.154258,1.131463 -0.154258,2.26285 -0.205713,2.931333 -0.05146,0.668483 -0.154309,0.874191 -0.360012,2.108538 -0.205703,1.23435 -0.514263,3.49712 -1.131417,5.81135 -0.617155,2.31423 -1.542836,4.67986 -2.057107,6.11988 -0.514271,1.44001 -0.617123,1.95427 -0.617077,2.52003 4.5e-5,0.56577 0.102899,1.18289 0.44134,2.01754 0.338442,0.83466 0.9988,2.04531 1.46161,3.17673 0.462809,1.13142 0.77137,2.26281 0.71987,3.23984 -0.0515,0.97703 -0.462914,1.79986 -0.771378,2.00567 -0.308463,0.20581 -0.514168,-0.2056 -0.719915,-0.77131 -0.205747,-0.56571 -0.411456,-1.28569 -0.668483,-1.69722 -0.257027,-0.41152 -0.565589,-0.51438 -0.925759,-0.3087 -0.360169,0.20568 -0.771584,0.71995 -0.977282,1.28577 -0.205697,0.56583 -0.205697,1.18295 0.102976,1.9544 0.308674,0.77144 0.925794,1.69712 1.28582,2.21138 0.360025,0.51426 0.462882,0.61712 0.565644,0.87428 0.102763,0.25717 0.205618,0.66859 -1.23e-4,1.07984 -0.20574,0.41126 -0.720005,0.82267 -1.182874,1.23411 -0.462869,0.41144 -0.874287,0.82285 -1.28558,1.02856 -0.411292,0.20571 -0.822706,0.20571 -1.182822,-1.38844 -0.360115,-1.59415 -0.668676,-4.7826 -0.937103,-7.40418 -0.268428,-2.62158 -0.451557,-4.26973 -0.503004,-6.42974 -0.05145,-2.16001 0.0507,-4.62844 -0.131598,-6.98817 -0.182276,-2.35942 -0.784832,-4.81294 -0.536858,-6.69631 0.205489,-1.56069 0.53031,-2.58255 0.616968,-4.161064 0.08648,-1.575212 1.131407,-3.548471 1.388592,-4.936963 0.257184,-1.388492 0.154331,-2.108466 0.20572,-3.034221 0.05139,-0.925754 0.257097,-2.057141 0.668521,-3.137199 0.411423,-1.080058 1.028544,-2.108594 1.234315,-3.034184 0.205771,-0.92559 6.4e-5,-1.748418 -0.154248,-2.828428 -0.154313,-1.08001 -0.433739,-2.431787 -0.144901,-3.473718 0.29939,-1.08 0.384263,-1.879441 0.65467,-2.959511 0.272804,-1.089646 0.645032,-2.417163 1.622247,-3.445809 0.977215,-1.028646 2.033677,-1.795391 3.21653,-2.41253 1.182854,-0.617139 2.211387,-1.131406 3.342778,-1.851393 1.13139,-0.719987 2.365632,-1.645668 3.291466,-2.057048 0.925835,-0.41138 1.542956,-0.308527 2.159935,-0.617114 0.61698,-0.308588 1.2341,-1.028562 1.594093,-1.954164 0.36,-0.925602 0.46285,-2.05699 0.2573,-2.674213 -0.20556,-0.617223 -0.719825,-0.720076 -1.182742,-1.131378 -0.462917,-0.411303 -0.87433,-1.131277 -1.028714,-2.005598 -0.154383,-0.87432 -0.05153,-1.902854 0.257155,-2.468698 0.308685,-0.565845 0.822953,-0.668699 1.079989,-1.542817 z"
       id="MainBody_F"
       inkscape:label="MainBody_F"
       sodipodi:nodetypes="cssssccssccscssccsssssssscsssssssssssssssscssssssssssssscssssssssssssssssssssssssssssscccssscsscsssssssssssssssssssssssssccssssssssssssssssssssssssssssssssssssssssssssssssssssssssssssssssssssccssscc" />
    <g
       id="BicepMuscle_F"
       inkscape:label="BicepMuscle_F"
       style="fill:#ffffff"
       sodipodi:insensitive="true">
      <path
         id="path1049"
         d="m 120.05542,82.194055 c 0.76158,0.11078 1.72039,1.051403 2.53825,1.632295 0.81785,0.580892 1.49465,0.80221 1.97407,0.940514 0.4794,0.138305 0.7614,0.193634 1.09971,0.74709 0.33831,0.553458 0.7331,1.604726 0.98686,2.711337 0.25377,1.10661 0.36656,2.268535 0.36653,3.430469 -2e-5,1.161932 -0.11283,2.323857 -0.25383,3.375138 -0.14102,1.051279 -0.31022,1.991886 -0.53584,2.84949 -0.22562,0.857603 -0.50761,1.63222 -1.04325,1.770567 -0.53562,0.138346 -1.32521,-0.35962 -1.88929,-0.912871 -0.5641,-0.553253 -0.9025,-1.161878 -1.1845,-1.659861 -0.28201,-0.497983 -0.5076,-0.885293 -0.81787,-1.798265 -0.31026,-0.912973 -0.70507,-2.351548 -1.01527,-3.430505 -0.3102,-1.078957 -0.5358,-1.79824 -0.8178,-2.628212 -0.282,-0.829972 -0.6204,-1.770579 -0.81785,-2.628234 -0.19746,-0.857656 -0.25386,-1.632271 -0.31853,-2.162782 -0.0647,-0.530512 -0.10452,-0.686735 0.14928,-1.157202 0.25375,-0.470469 0.81775,-1.18975 1.57933,-1.078968 z"
         style="display:inline;fill:#ffffff;stroke:#000000;stroke-width:0.287404px;stroke-linecap:butt;stroke-linejoin:miter;stroke-opacity:1" />
      <path
         style="display:inline;fill:#ffffff;stroke:#000000;stroke-width:0.287404px;stroke-linecap:butt;stroke-linejoin:miter;stroke-opacity:1"
         d="m 90.980013,82.127909 c -0.76158,0.11078 -1.72039,1.051403 -2.53825,1.632295 -0.81785,0.580892 -1.49465,0.80221 -1.97407,0.940514 -0.4794,0.138305 -0.7614,0.193634 -1.09971,0.74709 -0.33831,0.553458 -0.7331,1.604726 -0.98686,2.711337 -0.25377,1.10661 -0.36656,2.268535 -0.36653,3.430469 2e-5,1.161932 0.11283,2.323857 0.25383,3.375138 0.14102,1.051279 0.31022,1.991886 0.53584,2.84949 0.22562,0.857599 0.50761,1.632219 1.04325,1.770569 0.53562,0.13834 1.32521,-0.35962 1.88929,-0.91287 0.5641,-0.553256 0.9025,-1.161881 1.1845,-1.659864 0.28201,-0.497983 0.5076,-0.885293 0.81787,-1.798265 0.31026,-0.912973 0.70507,-2.351548 1.01527,-3.430505 0.3102,-1.078957 0.5358,-1.79824 0.8178,-2.628212 0.282,-0.829972 0.6204,-1.770579 0.81785,-2.628234 0.19746,-0.857656 0.25386,-1.632271 0.31853,-2.162782 0.0647,-0.530512 0.10452,-0.686735 -0.14928,-1.157202 -0.25375,-0.470469 -0.81775,-1.18975 -1.57933,-1.078968 z"
         id="path65" />
    </g>
    <path
       style="fill:#ffffff;stroke:#000000;stroke-width:0.263388px;stroke-linecap:butt;stroke-linejoin:miter;stroke-opacity:1"
       d="m 94.964195,87.148526 c 0.385508,-0.06555 1.156292,-0.196615 1.581578,-0.262129 0.425285,-0.06551 0.505028,-0.06551 0.637946,1.27e-4 0.132919,0.06564 0.318966,0.196701 0.531576,0.393334 0.21261,0.196633 0.451813,0.458755 0.664454,0.681563 0.212641,0.222807 0.398687,0.406294 0.558009,0.393088 0.159323,-0.01321 0.292214,-0.222906 0.4384,-0.458822 0.146186,-0.235916 0.305662,-0.498045 0.531635,-0.734019 0.225967,-0.235974 0.518327,-0.445671 0.870787,-0.601371 0.35245,-0.155699 0.79056,-0.26372 1.21578,-0.460319 0.42521,-0.1966 0.85046,-0.484941 1.18275,-0.668438 0.33228,-0.183497 0.57151,-0.26214 0.78419,-0.301431 0.21269,-0.03929 0.39872,-0.03929 0.55815,0.09194 0.15942,0.131226 0.29231,0.393354 0.65112,0.40627 0.35881,0.01292 0.94354,-0.222998 1.32902,-0.327799 0.38547,-0.104801 0.57153,-0.07858 0.77088,-0.01299 0.19935,0.06559 0.41198,0.170441 0.66434,0.237211 0.25236,0.06677 0.49182,0.09039 0.86395,0.221525 0.37213,0.131135 0.85054,0.367047 1.21165,0.515021 0.3611,0.147975 0.54257,0.192716 0.72858,0.323892 0.18601,0.131176 0.34548,0.340881 0.46505,0.524361 0.11956,0.183481 0.19932,0.340802 0.29235,0.524294 0.093,0.183492 0.19934,0.393195 0.34553,0.471652 0.14619,0.07846 0.33225,0.02603 0.58467,-0.144343 0.25243,-0.170372 0.57137,-0.458709 0.81058,-0.68152 0.23921,-0.222812 0.39867,-0.380076 0.66461,-0.432479 0.26595,-0.0524 0.63805,2.3e-5 0.99687,0.05245 0.35881,0.05243 0.70432,0.104852 0.99669,0.144167 0.29237,0.03932 0.53158,0.06553 0.70424,0.288487 0.17266,0.222954 0.27898,0.642353 0.37566,0.995113 0.0967,0.352761 0.16912,0.590917 0.20893,0.813707 0.0398,0.222789 0.0398,0.406277 -0.13297,0.904266 -0.17279,0.497989 -0.51831,1.310571 -0.74423,1.900398 -0.22592,0.589826 -0.33223,0.956804 -0.40798,1.229702 -0.0757,0.272897 -0.0836,0.303827 -0.12336,0.382355 -0.0398,0.07853 -0.093,0.13096 -0.14614,0.576719 -0.0532,0.445759 -0.10634,1.284555 -0.11965,1.979227 -0.0133,0.694673 0.0132,1.245146 0.053,1.887365 0.0398,0.642219 0.093,1.376177 0.0797,1.979045 -0.0133,0.602875 -0.093,1.074695 -0.0598,1.382635 0.0333,0.30794 0.20623,0.47852 0.35232,0.76689 0.1461,0.28837 0.27899,0.70778 0.41194,1.02234 0.13295,0.31455 0.26584,0.52425 0.35879,0.77326 0.093,0.24902 0.14611,0.53737 0.18606,0.81394 0.04,0.27656 0.0662,0.53604 0.0794,0.90301 0.0132,0.36697 0.0132,0.73395 -0.0532,1.07464 -0.0665,0.3407 -0.19937,0.60281 -0.46511,0.86488 -0.26575,0.26207 -0.6644,0.52418 -0.9701,0.76012 -0.30569,0.23594 -0.51832,0.44565 -0.71763,0.60291 -0.19931,0.15725 -0.38534,0.26209 -0.55812,0.36695 -0.17278,0.10486 -0.33225,0.20971 -0.51833,0.36701 -0.18608,0.1573 -0.39871,0.36701 -0.53163,0.53746 -0.13293,0.17045 -0.18609,0.30151 -0.54491,0.95682 -0.35882,0.65531 -1.02329,1.83489 -1.62339,2.94974 -0.6001,1.11484 -1.13593,2.16513 -1.57449,3.00395 -0.43855,0.83883 -0.77988,1.46628 -1.11001,2.00279 -0.33013,0.53652 -0.64907,0.98212 -0.88822,1.24421 -0.23914,0.26208 -0.3986,0.34072 -0.61122,0.43247 -0.21262,0.0917 -0.47841,0.19659 -0.74415,0.26215 -0.26575,0.0656 -0.53178,0.0918 -0.79757,0.11805 0,0 -0.95684,-0.23593 -0.95684,-0.23593 0,0 -0.55815,-0.31455 -0.55815,-0.31455 0,0 -0.79738,-0.55047 -0.79738,-0.55047 -0.34552,-0.68154 -0.69089,-1.36276 -1.00984,-1.99189 -0.31895,-0.62912 -0.61132,-1.20582 -1.11632,-2.21504 -0.50501,-1.00921 -1.222632,-2.4509 -1.740918,-3.46011 -0.518286,-1.00921 -0.837226,-1.58589 -1.142849,-2.03154 -0.305623,-0.44564 -0.597987,-0.7602 -0.970074,-1.08789 -0.372086,-0.32768 -0.823929,-0.66845 -1.182732,-0.90439 -0.358802,-0.23595 -0.6246,-0.36702 -0.823946,-0.45879 -0.199345,-0.0918 -0.33221,-0.14418 -0.460236,-0.32187 -0.128026,-0.1777 -0.217711,-0.39882 -0.310763,-0.70027 -0.09305,-0.30145 -0.172787,-0.64223 -0.21269,-1.04855 -0.0399,-0.40633 -0.0399,-0.87815 -0.01335,-1.20587 0.02656,-0.32771 0.07971,-0.51121 0.199319,-0.76028 0.119609,-0.24908 0.305658,-0.56362 0.47843,-0.83887 0.172771,-0.27525 0.332246,-0.51116 0.451843,-0.72083 0.119597,-0.20968 0.19933,-0.39317 0.239224,-1.69067 0.03989,-1.297504 0.03989,-3.709053 0.01335,-5.019689 -0.02654,-1.310636 -0.0797,-1.520337 -0.398642,-2.529561 -0.318943,-1.009224 -0.903667,-2.817892 -1.220906,-3.905984 -0.317239,-1.088092 -0.373878,-1.507027 -0.187718,-1.716887 0.18616,-0.209859 0.61142,-0.236076 0.823928,-0.249176 0.212507,-0.0131 0.212782,-0.01318 0.598291,-0.07873 z"
       id="AbsMuscle_F"
       inkscape:label="AbsMuscle_F"
       sodipodi:insensitive="true" />
    <path
       style="fill:#ffffff;stroke:#000000;stroke-width:0.264583px;stroke-linecap:butt;stroke-linejoin:miter;stroke-opacity:1"
       d="m 98.21596,74.236131 c -1.18487,0.43654 -3.30521,1.184895 -4.45903,1.808632 -1.15382,0.62373 -1.3409,1.12262 -1.55917,1.87101 -0.21827,0.74838 -0.46771,1.74616 -0.46764,2.61932 8e-5,0.87315 0.24953,1.62149 0.90443,2.49455 0.65491,0.87306 1.71506,1.87085 2.96234,2.49438 1.24729,0.62353 2.68161,0.87297 4.00128,0.77564 1.31967,-0.0973 2.48431,-0.5264 3.26377,-0.96291 0.77945,-0.4365 1.15362,-0.87304 1.87097,-0.93536 0.71735,-0.0623 1.7775,0.24948 3.1495,0.65485 1.372,0.40536 3.05577,0.90426 4.45887,0.96654 1.40309,0.0623 2.5256,-0.31189 3.42983,-0.71724 0.90422,-0.40536 1.59019,-0.84189 2.18259,-1.52782 0.59239,-0.68593 1.09128,-1.62136 1.4031,-2.36967 0.31183,-0.74831 0.43655,-1.30956 0.31193,-1.93314 -0.12463,-0.62358 -0.49879,-1.30955 -1.02883,-1.93323 -0.53003,-0.62368 -1.21601,-1.18493 -1.93317,-1.65269 -0.71717,-0.467762 -1.46551,-0.841932 -2.21387,-1.184945 -0.74836,-0.343012 -1.4967,-0.65482 -2.12035,-0.841957 -0.62365,-0.187138 -1.12254,-0.249499 -1.65266,-0.24953 -0.53012,-3.1e-5 -1.09138,0.06233 -1.65269,0.187045 -0.56131,0.124714 -1.12256,0.311799 -1.55919,0.592476 -0.43664,0.280676 -0.74845,0.654847 -1.24719,0.748418 -0.49874,0.09357 -1.18471,-0.09351 -1.83954,-0.405269 -0.65482,-0.311757 -1.27843,-0.748284 -2.02682,-0.966662 -0.74838,-0.218377 -1.62145,-0.218377 -2.18279,-0.156039 -0.56135,0.06234 -0.8108,0.187062 -1.99567,0.623601 z"
       id="ChestMuscle_F"
       inkscape:label="ChestMuscle_F"
       sodipodi:insensitive="true" />
    <g
       inkscape:label="CalfMuscle_F"
       id="CalfMuscle_F"
       transform="matrix(0.9462302,0,0,1.021846,12.413899,-13.593209)"
       style="fill:#ffffff"
       sodipodi:insensitive="true">
      <path
         style="fill:#ffffff;stroke:#000000;stroke-width:0.264583px;stroke-linecap:butt;stroke-linejoin:miter;stroke-opacity:1"
         d="m 104.95682,163.07919 c 0.93558,0.49897 2.43229,2.61931 3.21175,3.83539 0.77946,1.21607 0.84182,1.52789 0.93535,2.40098 0.0935,0.87308 0.21825,2.30739 0.31179,3.74175 0.0935,1.43436 0.1559,2.86868 0.18707,4.33422 0.0312,1.46553 0.0312,2.96221 -10e-6,4.24065 -0.0312,1.27844 -0.0936,2.33859 -0.28065,3.05566 -0.18709,0.71706 -0.4989,1.09123 -0.77949,0.77955 -0.28058,-0.31168 -0.53003,-1.30946 -0.81066,-2.36965 -0.28063,-1.06018 -0.59244,-2.18268 -0.84187,-2.96222 -0.24943,-0.77954 -0.43651,-1.21607 -0.6247,-1.93891 -0.18819,-0.72284 -0.37316,-1.70933 -0.68492,-2.6136 -0.31176,-0.90426 -0.74829,-1.71496 -1.12248,-2.46332 -0.3742,-0.74836 -0.68601,-1.43434 -0.9043,-1.96443 -0.21829,-0.53009 -0.34301,-0.90426 -0.37425,-1.59029 -0.0312,-0.68604 0.0311,-1.68383 0.0623,-2.5569 0.0312,-0.87308 0.0312,-1.4967 0.21826,-2.40102 0.18706,-0.90433 0.56123,-2.02684 1.49681,-1.52786 z"
         id="path3265" />
      <path
         style="fill:#ffffff;stroke:#000000;stroke-width:0.264583px;stroke-linecap:butt;stroke-linejoin:miter;stroke-opacity:1"
         d="m 112.47144,162.23709 c -0.40536,0.53009 -0.96663,1.27845 -1.21606,2.49466 -0.24943,1.21621 -0.18706,2.89997 -0.0935,4.77088 0.0936,1.87091 0.21827,3.92885 0.31181,5.83093 0.0935,1.90208 0.1559,3.64821 0.18707,4.89547 0.0312,1.24726 0.0312,1.9956 0.28075,2.68161 0.24957,0.68601 0.74847,1.30962 1.02901,1.83972 0.28054,0.53009 0.3429,0.96662 0.37406,0.31178 0.0312,-0.65485 0.0312,-2.40097 0.0935,-3.86653 0.0623,-1.46555 0.18708,-2.65042 0.37416,-3.80416 0.18708,-1.15375 0.43653,-2.27626 0.71716,-3.39881 0.28063,-1.12256 0.59244,-2.24507 0.77955,-3.21167 0.18711,-0.9666 0.24947,-1.7773 0.0936,-2.77508 -0.15586,-0.99778 -0.53003,-2.18265 -0.90421,-3.36756 -0.37419,-1.18491 -0.74835,-2.36978 -1.06023,-2.80646 -0.31188,-0.43667 -0.56133,-0.12486 -0.96669,0.40522 z"
         id="path3269" />
      <path
         id="path69"
         d="m 84.877944,162.17236 c 0.405357,0.53009 0.966624,1.27845 1.216051,2.49466 0.24943,1.21621 0.18706,2.89997 0.0935,4.77088 -0.0936,1.87091 -0.218267,3.92885 -0.311807,5.83093 -0.0935,1.90208 -0.1559,3.64821 -0.18707,4.89547 -0.0312,1.24726 -0.0312,1.9956 -0.280747,2.68161 -0.24957,0.68601 -0.748467,1.30962 -1.029007,1.83972 -0.280537,0.53009 -0.342897,0.96662 -0.374057,0.31178 -0.0312,-0.65485 -0.0312,-2.40097 -0.0935,-3.86653 -0.0623,-1.46555 -0.187077,-2.65042 -0.374157,-3.80416 -0.18708,-1.15375 -0.436527,-2.27626 -0.717157,-3.39881 -0.280627,-1.12256 -0.592437,-2.24507 -0.779544,-3.21167 -0.18711,-0.9666 -0.24947,-1.7773 -0.0936,-2.77508 0.15586,-0.99778 0.530027,-2.18265 0.904204,-3.36756 0.374187,-1.18491 0.748347,-2.36978 1.060224,-2.80646 0.31188,-0.43667 0.561327,-0.12486 0.966687,0.40522 z"
         style="fill:#ffffff;stroke:#000000;stroke-width:0.264583px;stroke-linecap:butt;stroke-linejoin:miter;stroke-opacity:1" />
      <path
         id="path71"
         d="m 91.622285,163.07919 c -0.935574,0.49897 -2.432275,2.61931 -3.211732,3.83539 -0.779454,1.21607 -0.841814,1.52789 -0.935344,2.40098 -0.0935,0.87308 -0.21825,2.30739 -0.31179,3.74175 -0.0935,1.43436 -0.155897,2.86868 -0.187067,4.33422 -0.0312,1.46553 -0.0312,2.96221 10e-6,4.24065 0.0312,1.27844 0.0936,2.33859 0.280647,3.05566 0.18709,0.71706 0.498897,1.09123 0.779487,0.77955 0.280577,-0.31168 0.530027,-1.30946 0.810654,-2.36965 0.28063,-1.06018 0.592437,-2.18268 0.841867,-2.96222 0.249427,-0.77954 0.436507,-1.21607 0.624697,-1.93891 0.188187,-0.72284 0.373157,-1.70933 0.684917,-2.6136 0.311757,-0.90426 0.748284,-1.71496 1.122474,-2.46332 0.374197,-0.74836 0.686004,-1.43434 0.904294,-1.96443 0.21829,-0.53009 0.343007,-0.90426 0.374247,-1.59029 0.0312,-0.68604 -0.0311,-1.68383 -0.0623,-2.5569 -0.0312,-0.87308 -0.0312,-1.4967 -0.218257,-2.40102 -0.18706,-0.90433 -0.561227,-2.02684 -1.496804,-1.52786 z"
         style="fill:#ffffff;stroke:#000000;stroke-width:0.264583px;stroke-linecap:butt;stroke-linejoin:miter;stroke-opacity:1" />
    </g>
    <g
       inkscape:label="ForearmMuscle_F"
       id="ForearmMuscle_F"
       transform="matrix(0.86335423,0,0,0.93252687,18.059743,-13.680894)"
       style="fill:#ffffff"
       sodipodi:insensitive="true">
      <path
         style="fill:#ffffff;stroke:#000000;stroke-width:0.264583px;stroke-linecap:butt;stroke-linejoin:miter;stroke-opacity:1"
         d="m 127.34508,116.77474 c -0.68611,0.3429 -1.43446,2.21379 -2.15162,3.52335 -0.71716,1.30957 -1.40314,2.05791 -2.15134,2.21389 -0.7482,0.15598 -1.5589,-0.28055 -2.05798,-0.0934 -0.49909,0.18711 -0.68617,0.99781 -0.59256,2.08923 0.0936,1.09143 0.46778,2.46339 0.84196,3.83538 0.37418,1.372 0.74836,2.74396 1.2473,4.08478 0.49894,1.34081 1.12255,2.65041 1.59028,3.61704 0.46773,0.96662 0.77954,1.59024 0.74825,2.24495 -0.0313,0.65471 -0.40545,1.34068 -0.0313,0.81057 0.37419,-0.53011 1.4967,-2.27625 2.401,-3.46119 0.90429,-1.18493 1.59027,-1.80855 2.05796,-2.36977 0.46769,-0.56121 0.71714,-1.0601 0.87307,-2.21375 0.15593,-1.15366 0.21829,-2.96215 0.15597,-4.20939 -0.0623,-1.24723 -0.2494,-1.93321 -0.43652,-3.1805 -0.18711,-1.24729 -0.3742,-3.05578 -0.7795,-4.55248 -0.4053,-1.49671 -1.02891,-2.68158 -1.71501,-2.33867 z"
         id="path1457" />
      <path
         id="path73"
         d="m 75.51536,116.77474 c 0.68611,0.3429 1.43446,2.21379 2.15162,3.52335 0.71716,1.30957 1.40314,2.05791 2.15134,2.21389 0.7482,0.15598 1.5589,-0.28055 2.05798,-0.0934 0.49909,0.18711 0.68617,0.99781 0.59256,2.08923 -0.0936,1.09143 -0.46778,2.46339 -0.84196,3.83538 -0.37418,1.372 -0.74836,2.74396 -1.2473,4.08478 -0.49894,1.34081 -1.12255,2.65041 -1.59028,3.61704 -0.46773,0.96662 -0.77954,1.59024 -0.74825,2.24495 0.0313,0.65471 0.40545,1.34068 0.0313,0.81057 -0.37419,-0.53011 -1.4967,-2.27625 -2.401,-3.46119 -0.90429,-1.18493 -1.59027,-1.80855 -2.05796,-2.36977 -0.46769,-0.56121 -0.71714,-1.0601 -0.87307,-2.21375 -0.15593,-1.15366 -0.21829,-2.96215 -0.15597,-4.20939 0.0623,-1.24723 0.2494,-1.93321 0.43652,-3.1805 0.18711,-1.24729 0.3742,-3.05578 0.7795,-4.55248 0.4053,-1.49671 1.02891,-2.68158 1.71501,-2.33867 z"
         style="fill:#ffffff;stroke:#000000;stroke-width:0.264583px;stroke-linecap:butt;stroke-linejoin:miter;stroke-opacity:1" />
    </g>
    <g
       inkscape:label="QuadMuscle_F"
       id="QuadMuscle_F"
       transform="matrix(0.98238771,0,0,0.94934636,3.7475276,-8.5169216)"
       style="fill:#ffffff"
       sodipodi:insensitive="true">
      <path
         style="fill:#ffffff;stroke:#000000;stroke-width:0.264583px;stroke-linecap:butt;stroke-linejoin:miter;stroke-opacity:1"
         d="m 113.12637,129.30973 c -0.18718,0.65478 -0.24955,2.46331 -0.53021,3.86641 -0.28066,1.4031 -0.77955,2.40089 -1.21609,3.46109 -0.43655,1.06021 -0.81072,2.18271 -1.15372,3.2429 -0.343,1.06018 -0.65481,2.05797 -0.93544,2.93105 -0.28064,0.87308 -0.53009,1.62143 -0.75951,2.34463 -0.22943,0.72319 -0.3942,1.27243 -0.64366,2.11434 -0.24945,0.84191 -0.56126,1.90206 -0.84189,2.8375 -0.28064,0.93545 -0.53009,1.74615 -0.6236,2.68166 -0.0935,0.93551 -0.0312,1.99565 0.0936,3.14939 0.12474,1.15374 0.31182,2.40097 0.40535,3.46113 0.0935,1.06016 0.0935,1.93323 0.26542,2.51289 0.1719,0.57966 0.57674,0.91702 1.29384,0.82333 0.71709,-0.0937 1.77724,-0.59259 2.52553,-1.15381 0.74828,-0.56122 1.18481,-1.18484 1.46545,-1.8084 0.28063,-0.62356 0.40535,-1.24717 0.43658,-1.71484 0.0312,-0.46768 -0.0311,-0.77949 0.12489,-0.93555 0.15601,-0.15606 0.53018,-0.15606 0.71713,0.15589 0.18696,0.31196 0.18696,0.93557 0.37418,1.43448 0.18723,0.49891 0.5614,0.87308 0.99794,1.30962 0.43655,0.43655 0.93544,0.93544 1.34071,1.09119 0.40526,0.15575 0.71707,-0.0313 0.96647,-0.62367 0.24939,-0.59233 0.43648,-1.59011 0.53004,-2.43199 0.0936,-0.84188 0.0936,-1.2784 0.12475,-2.12032 0.0312,-0.84191 0.0935,-1.96443 0.12472,-2.96223 0.0312,-0.99781 0.0312,-1.87087 0.0624,-2.77515 0.0312,-0.90429 0.0935,-1.83971 0.12473,-2.96224 0.0312,-1.12254 0.0312,-2.43214 -0.12468,-3.67939 -0.15587,-1.24724 -0.46768,-2.43211 -0.6548,-3.36758 -0.18712,-0.93546 -0.24948,-1.62144 -0.37417,-2.24505 -0.12468,-0.62362 -0.31177,-1.18488 -0.68585,-1.65266 -0.37408,-0.46778 -0.93534,-0.84195 -1.37197,-1.40317 -0.43663,-0.56121 -0.74843,-1.30955 -0.93558,-2.21384 -0.18715,-0.9043 -0.24951,-1.96445 -0.43651,-2.74397 -0.18701,-0.77953 -0.49882,-1.27843 -0.68601,-0.62364 z"
         id="path851" />
      <path
         id="path67"
         d="m 93.954852,129.65811 c 0.187174,0.65478 0.249544,2.46331 0.530204,3.86641 0.280664,1.4031 0.779548,2.40089 1.216092,3.46109 0.43655,1.06021 0.810724,2.18271 1.153718,3.2429 0.343,1.06018 0.654804,2.05797 0.935434,2.93105 0.280644,0.87308 0.530094,1.62143 0.759518,2.34463 0.22943,0.72319 0.394194,1.27243 0.643654,2.11434 0.24945,0.84191 0.561264,1.90206 0.841898,2.8375 0.28064,0.93545 0.53009,1.74615 0.6236,2.68166 0.0935,0.93551 0.0312,1.99565 -0.0936,3.14939 -0.12474,1.15374 -0.31182,2.40097 -0.40535,3.46113 -0.0935,1.06016 -0.0935,1.93323 -0.265424,2.51289 -0.1719,0.57966 -0.576744,0.91702 -1.293838,0.82333 -0.717094,-0.0937 -1.777242,-0.59259 -2.52553,-1.15381 -0.748284,-0.56122 -1.184808,-1.18484 -1.465452,-1.8084 -0.28063,-0.62356 -0.40535,-1.24717 -0.43658,-1.71484 -0.0312,-0.46768 0.0311,-0.77949 -0.124884,-0.93555 -0.15601,-0.15606 -0.530184,-0.15606 -0.717134,0.15589 -0.18696,0.31196 -0.18696,0.93557 -0.374184,1.43448 -0.18723,0.49891 -0.561394,0.87308 -0.997934,1.30962 -0.436554,0.43655 -0.935448,0.93544 -1.340712,1.09119 -0.405264,0.15575 -0.717074,-0.0313 -0.966468,-0.62367 -0.24939,-0.59233 -0.436484,-1.59011 -0.530044,-2.43199 -0.0936,-0.84188 -0.0936,-1.2784 -0.12475,-2.12032 -0.0312,-0.84191 -0.0935,-1.96443 -0.12472,-2.96223 -0.0312,-0.99781 -0.0312,-1.87087 -0.0624,-2.77515 -0.0312,-0.90429 -0.0935,-1.83971 -0.124734,-2.96224 -0.0312,-1.12254 -0.0312,-2.43214 0.124684,-3.67939 0.15587,-1.24724 0.467684,-2.43211 0.654804,-3.36758 0.18712,-0.93546 0.24948,-1.62144 0.374164,-2.24505 0.12468,-0.62362 0.31177,-1.18488 0.685854,-1.65266 0.374074,-0.46778 0.935338,-0.84195 1.371968,-1.40317 0.436634,-0.56121 0.748428,-1.30955 0.935578,-2.21384 0.187154,-0.9043 0.249514,-1.96445 0.436514,-2.74397 0.18701,-0.77953 0.498824,-1.27843 0.686014,-0.62364 z"
         style="fill:#ffffff;stroke:#000000;stroke-width:0.264583px;stroke-linecap:butt;stroke-linejoin:miter;stroke-opacity:1"
         sodipodi:insensitive="true" />
    </g>
    <g
       inkscape:label="ShoulderMuscle_F"
       id="ShoulderMuscle_F"
       transform="translate(7.397615,-22.248971)"
       style="fill:#ffffff"
       sodipodi:insensitive="true">
      <path
         style="fill:#ffffff;stroke:#000000;stroke-width:0.264583px;stroke-linecap:butt;stroke-linejoin:miter;stroke-opacity:1"
         d="m 108.79206,95.789397 c 0,0 0,0 0.0623,-0.140257 0.0623,-0.140257 0.18706,-0.420887 0.46784,-0.576863 0.28079,-0.155977 0.71732,-0.187156 1.13829,-0.202738 0.42096,-0.01558 0.82631,-0.01558 1.27844,-0.01558 0.45214,0 0.95103,0 1.3408,0 0.38978,0 0.6704,0 0.8929,-0.131701 0.2225,-0.131701 0.36964,-0.367132 0.71282,-0.398292 0.34318,-0.03116 0.87326,0.155927 1.30979,0.405452 0.43652,0.249525 0.7795,0.561328 1.04449,0.904362 0.26499,0.343034 0.45207,0.717205 0.73266,1.715024 0.2806,0.997819 0.65476,2.61922 0.88861,3.741746 0.23385,1.12253 0.3274,1.74615 0.28058,2.46328 -0.0468,0.71713 -0.2339,1.52783 -0.39818,2.09228 -0.16427,0.56445 -0.27228,0.80747 -0.44375,1.05686 -0.17148,0.24939 -0.38974,0.46765 -0.90408,0.34301 -0.51435,-0.12464 -1.32505,-0.59235 -1.87072,-0.88859 -0.54567,-0.29624 -0.82631,-0.42097 -1.15374,-0.65478 -0.32743,-0.23381 -0.7016,-0.5768 -0.99788,-0.95095 -0.29627,-0.37415 -0.51454,-0.7795 -0.70165,-1.16927 -0.18711,-0.38977 -0.34301,-0.76394 -0.43662,-1.10695 -0.0936,-0.34301 -0.1248,-0.65482 -0.23389,-1.02899 -0.10909,-0.37417 -0.29618,-0.8107 -0.51439,-1.1693 -0.21822,-0.358612 -0.46767,-0.639241 -0.73273,-0.96664 -0.26505,-0.327399 -0.54568,-0.70157 -0.76399,-1.044557 -0.2183,-0.342988 -0.3742,-0.6548 -0.53014,-1.028981 -0.15593,-0.374182 -0.31183,-0.810712 -0.38984,-1.029141 -0.078,-0.21843 -0.078,-0.218433 -0.078,-0.218433 z"
         id="path2659" />
      <path
         id="path75"
         d="m 87.148435,95.789397 c 0,0 0,0 -0.0623,-0.140257 -0.0623,-0.140257 -0.18706,-0.420887 -0.467837,-0.576863 -0.28079,-0.155977 -0.717317,-0.187156 -1.138284,-0.202738 -0.420957,-0.01558 -0.826304,-0.01558 -1.278434,-0.01558 -0.452137,0 -0.951024,0 -1.340791,0 -0.389777,0 -0.670397,0 -0.892894,-0.131701 -0.2225,-0.131701 -0.36964,-0.367132 -0.712817,-0.398292 -0.343177,-0.03116 -0.873254,0.155927 -1.309784,0.405452 -0.436517,0.249525 -0.779494,0.561328 -1.044484,0.904362 -0.264987,0.343034 -0.452067,0.717205 -0.732654,1.715024 -0.2806,0.997819 -0.654757,2.61922 -0.888607,3.741746 -0.233847,1.12253 -0.327397,1.74615 -0.280577,2.46328 0.0468,0.71713 0.2339,1.52783 0.398177,2.09228 0.16427,0.56445 0.27228,0.80747 0.443747,1.05686 0.17148,0.24939 0.38974,0.46765 0.904077,0.34301 0.514347,-0.12464 1.325041,-0.59235 1.870708,-0.88859 0.545667,-0.29624 0.826307,-0.42097 1.153734,-0.65478 0.327427,-0.23381 0.701597,-0.5768 0.997874,-0.95095 0.29627,-0.37415 0.514537,-0.7795 0.701647,-1.16927 0.187107,-0.38977 0.343007,-0.76394 0.436617,-1.10695 0.0936,-0.34301 0.1248,-0.65482 0.233887,-1.02899 0.10909,-0.37417 0.29618,-0.8107 0.51439,-1.1693 0.218217,-0.358612 0.467667,-0.639241 0.732724,-0.96664 0.26505,-0.327399 0.545677,-0.70157 0.763987,-1.044557 0.218297,-0.342988 0.374197,-0.6548 0.530137,-1.028981 0.155927,-0.374182 0.311827,-0.810712 0.389837,-1.029141 0.078,-0.21843 0.078,-0.218433 0.078,-0.218433 z"
         style="fill:#ffffff;stroke:#000000;stroke-width:0.264583px;stroke-linecap:butt;stroke-linejoin:miter;stroke-opacity:1" />
    </g>
  </g>
</svg>
