<?xml version="1.0" encoding="UTF-8" standalone="no"?>
<svg
   xmlns:dc="http://purl.org/dc/elements/1.1/"
   xmlns:cc="http://creativecommons.org/ns#"
   xmlns:rdf="http://www.w3.org/1999/02/22-rdf-syntax-ns#"
   xmlns:svg="http://www.w3.org/2000/svg"
   xmlns="http://www.w3.org/2000/svg"
   xmlns:sodipodi="http://sodipodi.sourceforge.net/DTD/sodipodi-0.dtd"
   xmlns:inkscape="http://www.inkscape.org/namespaces/inkscape"
   width="29.795845mm"
   height="36.64888mm"
   viewBox="0 0 29.795845 36.64888"
   version="1.1"
   id="svg8"
   inkscape:version="1.0.2 (e86c870879, 2021-01-15, custom)"
   sodipodi:docname="quads.svg">
  <defs
     id="defs2">
    <inkscape:path-effect
       effect="bspline"
       id="path-effect853"
       is_visible="true"
       lpeversion="1"
       weight="33.333333"
       steps="2"
       helper_size="0"
       apply_no_weight="true"
       apply_with_weight="true"
       only_selected="false" />
    <inkscape:path-effect
       effect="bspline"
       id="path-effect849"
       is_visible="true"
       lpeversion="1"
       weight="33.333333"
       steps="2"
       helper_size="0"
       apply_no_weight="true"
       apply_with_weight="true"
       only_selected="false" />
  </defs>
  <sodipodi:namedview
     id="base"
     pagecolor="#ffffff"
     bordercolor="#666666"
     borderopacity="1.0"
     inkscape:pageopacity="0.0"
     inkscape:pageshadow="2"
     inkscape:zoom="1.4142136"
     inkscape:cx="-180.26996"
     inkscape:cy="122.15206"
     inkscape:document-units="mm"
     inkscape:current-layer="layer1"
     inkscape:document-rotation="0"
     showgrid="false"
     inkscape:window-width="1431"
     inkscape:window-height="1019"
     inkscape:window-x="64"
     inkscape:window-y="0"
     inkscape:window-maximized="0"
     fit-margin-top="0"
     fit-margin-left="0"
     fit-margin-right="0"
     fit-margin-bottom="0" />
  <metadata
     id="metadata5">
    <rdf:RDF>
      <cc:Work
         rdf:about="">
        <dc:format>image/svg+xml</dc:format>
        <dc:type
           rdf:resource="http://purl.org/dc/dcmitype/StillImage" />
        <dc:title></dc:title>
      </cc:Work>
    </rdf:RDF>
  </metadata>
  <g
     inkscape:label="Layer 1"
     inkscape:groupmode="layer"
     id="layer1"
     transform="translate(-88.748731,-126.23474)">
    <path
       style="fill:none;stroke:#000000;stroke-width:0.264583px;stroke-linecap:butt;stroke-linejoin:miter;stroke-opacity:1"
       d="m 93.170222,127.09569 c -0.0624,0.74852 0.06232,2.1205 0.03111,3.27419 -0.03122,1.15368 -0.218301,2.0891 -0.374209,2.86864 -0.155907,0.77954 -0.280631,1.40316 -0.530036,1.83958 -0.249404,0.43642 -0.623572,0.68587 -1.028903,0.90413 -0.405331,0.21827 -0.84186,0.40535 -1.157756,1.24689 -0.315895,0.84153 -0.494981,2.21452 -0.650885,3.64889 -0.155905,1.43438 -0.280627,2.86869 -0.374167,4.3966 -0.09354,1.52792 -0.155902,3.14932 -0.187078,4.39659 -0.03118,1.24727 -0.03118,2.12034 0.09357,3.36763 0.124751,1.24728 0.374199,2.86869 0.530091,4.27186 0.155893,1.40316 0.218255,2.58803 0.498978,3.11796 0.280724,0.52992 0.779617,0.4052 1.278426,0.0622 0.49881,-0.34298 0.9977,-0.90423 1.309502,-1.49659 0.311803,-0.59236 0.436527,-1.21598 0.467758,-1.68365 0.03123,-0.46768 -0.03113,-0.77949 0.09372,-0.84191 0.124854,-0.0624 0.436664,0.12467 0.748364,0.84192 0.311701,0.71725 0.623509,1.96448 1.216073,2.93107 0.592565,0.96659 1.465624,1.65257 2.307535,2.05784 0.841912,0.40527 1.652613,0.52999 2.151352,-0.0624 0.498742,-0.59237 0.685822,-1.90197 0.810562,-3.21159 0.12473,-1.30961 0.18709,-2.61921 0.21828,-3.67938 0.0312,-1.06017 0.0312,-1.87088 -0.0935,-3.11813 -0.1247,-1.24726 -0.37415,-2.93103 -0.717071,-4.11592 -0.342923,-1.1849 -0.779455,-1.87088 -1.184864,-2.77515 -0.405408,-0.90427 -0.779578,-2.02678 -1.216128,-3.39878 -0.436549,-1.372 -0.935441,-2.9934 -1.403149,-4.33421 -0.467707,-1.34081 -0.904239,-2.40096 -1.216098,-3.52351 -0.31186,-1.12256 -0.498945,-2.30743 -0.56134,-3.30527 -0.06239,-0.99784 -3.3e-5,-1.80854 -0.06234,-2.55687 -0.06231,-0.74832 -0.249397,-1.4343 -0.46766,-1.71512 -0.218262,-0.28081 -0.467711,-0.15609 -0.530113,0.59244 z"
       id="path847"
       inkscape:path-effect="#path-effect849"
       inkscape:original-d="m 92.983067,126.47194 c 0.12499,1.37225 0.249717,2.74423 0.374177,4.11595 -0.186828,0.93573 -0.373912,1.87115 -0.561266,2.80633 -0.124463,0.6239 -0.249187,1.24752 -0.374177,1.87089 -0.373919,0.24972 -0.74809,0.49916 -1.122531,0.74835 -0.436285,0.18736 -0.872816,0.37444 -1.309622,0.56127 -0.186827,1.497 -0.373912,2.86895 -0.561266,4.30304 -0.124462,1.43464 -0.249187,2.86895 -0.374176,4.30303 -0.0621,1.62174 -0.124463,3.24314 -0.18709,4.86431 2.65e-4,0.87336 2.65e-4,1.74643 0,2.61924 0.249722,1.62173 0.499169,3.24314 0.748356,4.86431 0.06263,1.18518 0.124989,2.37005 0.187089,3.55468 0.499177,-0.12446 0.99807,-0.24918 1.496709,-0.37417 0.499178,-0.56102 0.998071,-1.12227 1.496708,-1.6838 0.124994,-0.62338 0.249716,-1.247 0.374179,-1.87089 -0.0621,-0.31156 -0.124463,-0.62337 -0.18709,-0.93544 0.312087,0.18735 0.623893,0.37444 0.935443,0.56126 0.312086,1.24755 0.623895,2.49478 0.935445,3.74178 0.873363,0.68627 1.746424,1.37224 2.61924,2.05797 0.810998,0.125 1.6217,0.24972 2.432153,0.37418 0.187352,-1.30938 0.374442,-2.61898 0.561262,-3.92886 0.0626,-1.30938 0.125,-2.61898 0.18709,-3.92887 2.7e-4,-0.81046 2.7e-4,-1.62117 0,-2.43215 -0.24919,-1.68356 -0.49864,-3.36733 -0.748352,-5.05139 -0.436285,-0.68574 -0.872816,-1.37172 -1.309622,-2.05798 -0.373919,-1.12229 -0.748088,-2.2448 -1.122531,-3.36759 -0.498647,-1.62121 -0.99754,-3.24261 -1.496709,-4.86431 -0.436284,-1.05992 -0.872815,-2.12007 -1.309621,-3.18051 -0.186828,-1.18465 -0.373912,-2.36952 -0.561266,-3.55468 0.06263,-0.81047 0.124992,-1.62117 0.18709,-2.43215 -0.186828,-0.68574 -0.373915,-1.37172 -0.561266,-2.05798 -0.249193,0.12499 -0.498639,0.24972 -0.748356,0.37418 z" />
    <path
       style="fill:none;stroke:#000000;stroke-width:0.264583px;stroke-linecap:butt;stroke-linejoin:miter;stroke-opacity:1"
       d="m 113.12637,129.30973 c -0.18718,0.65478 -0.24955,2.46331 -0.53021,3.86641 -0.28066,1.4031 -0.77955,2.40089 -1.21609,3.46109 -0.43655,1.06021 -0.81072,2.18271 -1.15372,3.2429 -0.343,1.06018 -0.65481,2.05797 -0.93544,2.93105 -0.28064,0.87308 -0.53009,1.62143 -0.75951,2.34463 -0.22943,0.72319 -0.3942,1.27243 -0.64366,2.11434 -0.24945,0.84191 -0.56126,1.90206 -0.84189,2.8375 -0.28064,0.93545 -0.53009,1.74615 -0.6236,2.68166 -0.0935,0.93551 -0.0312,1.99565 0.0936,3.14939 0.12474,1.15374 0.31182,2.40097 0.40535,3.46113 0.0935,1.06016 0.0935,1.93323 0.26542,2.51289 0.1719,0.57966 0.57674,0.91702 1.29384,0.82333 0.71709,-0.0937 1.77724,-0.59259 2.52553,-1.15381 0.74828,-0.56122 1.18481,-1.18484 1.46545,-1.8084 0.28063,-0.62356 0.40535,-1.24717 0.43658,-1.71484 0.0312,-0.46768 -0.0311,-0.77949 0.12489,-0.93555 0.15601,-0.15606 0.53018,-0.15606 0.71713,0.15589 0.18696,0.31196 0.18696,0.93557 0.37418,1.43448 0.18723,0.49891 0.5614,0.87308 0.99794,1.30962 0.43655,0.43655 0.93544,0.93544 1.34071,1.09119 0.40526,0.15575 0.71707,-0.0313 0.96647,-0.62367 0.24939,-0.59233 0.43648,-1.59011 0.53004,-2.43199 0.0936,-0.84188 0.0936,-1.2784 0.12475,-2.12032 0.0312,-0.84191 0.0935,-1.96443 0.12472,-2.96223 0.0312,-0.99781 0.0312,-1.87087 0.0624,-2.77515 0.0312,-0.90429 0.0935,-1.83971 0.12473,-2.96224 0.0312,-1.12254 0.0312,-2.43214 -0.12468,-3.67939 -0.15587,-1.24724 -0.46768,-2.43211 -0.6548,-3.36758 -0.18712,-0.93546 -0.24948,-1.62144 -0.37417,-2.24505 -0.12468,-0.62362 -0.31177,-1.18488 -0.68585,-1.65266 -0.37408,-0.46778 -0.93534,-0.84195 -1.37197,-1.40317 -0.43663,-0.56121 -0.74843,-1.30955 -0.93558,-2.21384 -0.18715,-0.9043 -0.24951,-1.96445 -0.43651,-2.74397 -0.18701,-0.77953 -0.49882,-1.27843 -0.68601,-0.62364 z"
       id="path851"
       inkscape:path-effect="#path-effect853"
       inkscape:original-d="m 113.00156,128.15574 c -0.0621,1.80878 -0.12447,3.61731 -0.18709,5.42557 -0.49865,0.99809 -0.99755,1.99587 -1.49671,2.99342 -0.37392,1.12282 -0.74809,2.24532 -1.12254,3.36759 -0.31155,0.99809 -0.62336,1.99588 -0.93544,2.99342 -0.24919,0.74863 -0.49864,1.49698 -0.74835,2.24506 -0.24919,0.68628 -0.37392,1.24753 -0.56127,1.87089 -0.31155,1.06046 -0.62336,2.12061 -0.93544,3.18051 -0.24919,0.811 -0.49864,1.6217 -0.74836,2.43215 0.0626,1.06046 0.12499,2.1206 0.18709,3.18051 0.18736,1.24755 0.37444,2.49478 0.56127,3.74177 2.6e-4,0.87336 2.6e-4,1.74643 0,2.61924 0.37445,0.24973 0.74862,0.6239 1.12253,0.93545 1.06045,-0.49865 2.1206,-0.99754 3.18051,-1.49671 0.43681,-0.62338 0.87334,-1.247 1.30962,-1.87089 0.12499,-0.62338 0.24971,-1.24699 0.37418,-1.87089 -0.0621,-0.31155 -0.12447,-0.62336 -0.18709,-0.93544 0.37445,2.7e-4 0.74862,2.7e-4 1.12253,0 2.6e-4,0.62391 2.6e-4,1.24752 0,1.87089 0.37445,0.37445 0.74862,0.74862 1.12253,1.12253 0.49918,0.49918 0.99807,0.99807 1.49671,1.49671 0.31208,-0.18683 0.62389,-0.37391 0.93544,-0.56127 0.18736,-0.99756 0.37444,-1.99534 0.56127,-2.99342 2.6e-4,-0.68574 2.6e-4,-1.12226 0,-1.68379 0.0626,-1.12229 0.12499,-2.2448 0.18709,-3.3676 2.6e-4,-0.87283 2.6e-4,-1.74589 0,-2.61924 0.0626,-0.9352 0.12499,-1.87062 0.18709,-2.80633 2.6e-4,-1.30938 2.6e-4,-2.61898 0,-3.92886 -0.31156,-1.18466 -0.62337,-2.36953 -0.93545,-3.55469 -0.0621,-0.68574 -0.12446,-1.37172 -0.18709,-2.05797 -0.18682,-0.56101 -0.37391,-1.12227 -0.56126,-1.6838 -0.56101,-0.37392 -1.12227,-0.74809 -1.6838,-1.12253 -0.31155,-0.74811 -0.62336,-1.49645 -0.93544,-2.24507 -0.0621,-1.05992 -0.12446,-2.12007 -0.18709,-3.1805 -0.31156,-0.49865 -0.62337,-0.99755 -0.93544,-1.49671 z" />
  </g>
</svg>
