<?xml version="1.0" encoding="UTF-8" standalone="no"?>
<svg
   xmlns:dc="http://purl.org/dc/elements/1.1/"
   xmlns:cc="http://creativecommons.org/ns#"
   xmlns:rdf="http://www.w3.org/1999/02/22-rdf-syntax-ns#"
   xmlns:svg="http://www.w3.org/2000/svg"
   xmlns="http://www.w3.org/2000/svg"
   xmlns:sodipodi="http://sodipodi.sourceforge.net/DTD/sodipodi-0.dtd"
   xmlns:inkscape="http://www.inkscape.org/namespaces/inkscape"
   width="59.795834mm"
   height="164.04167mm"
   viewBox="0 0 59.795834 164.04167"
   version="1.1"
   id="svg8"
   inkscape:version="1.0.2 (e86c870879, 2021-01-15, custom)"
   sodipodi:docname="front-combined-muscle-structure.svg">
  <defs
     id="defs2">
    <inkscape:path-effect
       effect="bspline"
       id="path-effect1055"
       is_visible="true"
       lpeversion="1"
       weight="33.333333"
       steps="2"
       helper_size="0"
       apply_no_weight="true"
       apply_with_weight="true"
       only_selected="false" />
    <inkscape:path-effect
       effect="bspline"
       id="path-effect1051"
       is_visible="true"
       lpeversion="1"
       weight="33.333333"
       steps="2"
       helper_size="0"
       apply_no_weight="true"
       apply_with_weight="true"
       only_selected="false" />
    <inkscape:path-effect
       effect="bspline"
       id="path-effect1047"
       is_visible="true"
       lpeversion="1"
       weight="33.333333"
       steps="2"
       helper_size="0"
       apply_no_weight="true"
       apply_with_weight="true"
       only_selected="false" />
    <inkscape:path-effect
       effect="bspline"
       id="path-effect26"
       is_visible="true"
       lpeversion="1"
       weight="33.333333"
       steps="2"
       helper_size="0"
       apply_no_weight="true"
       apply_with_weight="true"
       only_selected="false" />
    <inkscape:path-effect
       effect="bspline"
       id="path-effect853"
       is_visible="true"
       lpeversion="1"
       weight="33.333333"
       steps="2"
       helper_size="0"
       apply_no_weight="true"
       apply_with_weight="true"
       only_selected="false" />
    <inkscape:path-effect
       effect="bspline"
       id="path-effect849"
       is_visible="true"
       lpeversion="1"
       weight="33.333333"
       steps="2"
       helper_size="0"
       apply_no_weight="true"
       apply_with_weight="true"
       only_selected="false" />
    <inkscape:path-effect
       effect="bspline"
       id="path-effect1451"
       is_visible="true"
       lpeversion="1"
       weight="33.333333"
       steps="2"
       helper_size="0"
       apply_no_weight="true"
       apply_with_weight="true"
       only_selected="false" />
    <inkscape:path-effect
       effect="bspline"
       id="path-effect3271"
       is_visible="true"
       lpeversion="1"
       weight="33.333333"
       steps="2"
       helper_size="0"
       apply_no_weight="true"
       apply_with_weight="true"
       only_selected="false" />
    <inkscape:path-effect
       effect="bspline"
       id="path-effect3267"
       is_visible="true"
       lpeversion="1"
       weight="33.333333"
       steps="2"
       helper_size="0"
       apply_no_weight="true"
       apply_with_weight="true"
       only_selected="false" />
    <inkscape:path-effect
       effect="bspline"
       id="path-effect3263"
       is_visible="true"
       lpeversion="1"
       weight="33.333333"
       steps="2"
       helper_size="0"
       apply_no_weight="true"
       apply_with_weight="true"
       only_selected="false" />
    <inkscape:path-effect
       effect="bspline"
       id="path-effect3259"
       is_visible="true"
       lpeversion="1"
       weight="33.333333"
       steps="2"
       helper_size="0"
       apply_no_weight="true"
       apply_with_weight="true"
       only_selected="false" />
    <inkscape:path-effect
       effect="bspline"
       id="path-effect1459"
       is_visible="true"
       lpeversion="1"
       weight="33.333333"
       steps="2"
       helper_size="0"
       apply_no_weight="true"
       apply_with_weight="true"
       only_selected="false" />
    <inkscape:path-effect
       effect="bspline"
       id="path-effect1455"
       is_visible="true"
       lpeversion="1"
       weight="33.333333"
       steps="2"
       helper_size="0"
       apply_no_weight="true"
       apply_with_weight="true"
       only_selected="false" />
    <inkscape:path-effect
       effect="bspline"
       id="path-effect2661"
       is_visible="true"
       lpeversion="1"
       weight="33.333333"
       steps="2"
       helper_size="0"
       apply_no_weight="true"
       apply_with_weight="true"
       only_selected="false" />
    <inkscape:path-effect
       effect="bspline"
       id="path-effect2096"
       is_visible="true"
       lpeversion="1"
       weight="33.333333"
       steps="2"
       helper_size="0"
       apply_no_weight="true"
       apply_with_weight="true"
       only_selected="false" />
    <inkscape:path-effect
       effect="bspline"
       id="path-effect2070"
       is_visible="true"
       lpeversion="1"
       weight="33.333333"
       steps="2"
       helper_size="0"
       apply_no_weight="true"
       apply_with_weight="true"
       only_selected="false" />
    <inkscape:path-effect
       effect="bspline"
       id="path-effect2066"
       is_visible="true"
       lpeversion="1"
       weight="33.333333"
       steps="2"
       helper_size="0"
       apply_no_weight="true"
       apply_with_weight="true"
       only_selected="false" />
  </defs>
  <sodipodi:namedview
     id="base"
     pagecolor="#ffffff"
     bordercolor="#666666"
     borderopacity="1.0"
     inkscape:pageopacity="0.0"
     inkscape:pageshadow="2"
     inkscape:zoom="1"
     inkscape:cx="38.187178"
     inkscape:cy="270.71085"
     inkscape:document-units="mm"
     inkscape:current-layer="layer1"
     inkscape:document-rotation="0"
     showgrid="false"
     inkscape:snap-global="false"
     fit-margin-top="0"
     fit-margin-left="0"
     fit-margin-right="0"
     fit-margin-bottom="0"
     inkscape:window-width="1431"
     inkscape:window-height="1019"
     inkscape:window-x="96"
     inkscape:window-y="0"
     inkscape:window-maximized="0" />
  <metadata
     id="metadata5">
    <rdf:RDF>
      <cc:Work
         rdf:about="">
        <dc:format>image/svg+xml</dc:format>
        <dc:type
           rdf:resource="http://purl.org/dc/dcmitype/StillImage" />
        <dc:title></dc:title>
      </cc:Work>
    </rdf:RDF>
  </metadata>
  <g
     inkscape:label="Layer 1"
     inkscape:groupmode="layer"
     id="layer1"
     transform="translate(-74.347916,-40.216663)">
    <path
       style="fill:none;stroke:#000000;stroke-width:0.263388px;stroke-linecap:butt;stroke-linejoin:miter;stroke-opacity:1"
       d="m 94.964195,87.148526 c 0.385508,-0.06555 1.156292,-0.196615 1.581578,-0.262129 0.425285,-0.06551 0.505028,-0.06551 0.637946,1.27e-4 0.132919,0.06564 0.318966,0.196701 0.531576,0.393334 0.21261,0.196633 0.451813,0.458755 0.664454,0.681563 0.212641,0.222807 0.398687,0.406294 0.558009,0.393088 0.159323,-0.01321 0.292214,-0.222906 0.4384,-0.458822 0.146186,-0.235916 0.305662,-0.498045 0.531635,-0.734019 0.225967,-0.235974 0.518327,-0.445671 0.870787,-0.601371 0.35245,-0.155699 0.79056,-0.26372 1.21578,-0.460319 0.42521,-0.1966 0.85046,-0.484941 1.18275,-0.668438 0.33228,-0.183497 0.57151,-0.26214 0.78419,-0.301431 0.21269,-0.03929 0.39872,-0.03929 0.55815,0.09194 0.15942,0.131226 0.29231,0.393354 0.65112,0.40627 0.35881,0.01292 0.94354,-0.222998 1.32902,-0.327799 0.38547,-0.104801 0.57153,-0.07858 0.77088,-0.01299 0.19935,0.06559 0.41198,0.170441 0.66434,0.237211 0.25236,0.06677 0.49182,0.09039 0.86395,0.221525 0.37213,0.131135 0.85054,0.367047 1.21165,0.515021 0.3611,0.147975 0.54257,0.192716 0.72858,0.323892 0.18601,0.131176 0.34548,0.340881 0.46505,0.524361 0.11956,0.183481 0.19932,0.340802 0.29235,0.524294 0.093,0.183492 0.19934,0.393195 0.34553,0.471652 0.14619,0.07846 0.33225,0.02603 0.58467,-0.144343 0.25243,-0.170372 0.57137,-0.458709 0.81058,-0.68152 0.23921,-0.222812 0.39867,-0.380076 0.66461,-0.432479 0.26595,-0.0524 0.63805,2.3e-5 0.99687,0.05245 0.35881,0.05243 0.70432,0.104852 0.99669,0.144167 0.29237,0.03932 0.53158,0.06553 0.70424,0.288487 0.17266,0.222954 0.27898,0.642353 0.37566,0.995113 0.0967,0.352761 0.16912,0.590917 0.20893,0.813707 0.0398,0.222789 0.0398,0.406277 -0.13297,0.904266 -0.17279,0.497989 -0.51831,1.310571 -0.74423,1.900398 -0.22592,0.589826 -0.33223,0.956804 -0.40798,1.229702 -0.0757,0.272897 -0.0836,0.303827 -0.12336,0.382355 -0.0398,0.07853 -0.093,0.13096 -0.14614,0.576719 -0.0532,0.445759 -0.10634,1.284555 -0.11965,1.979227 -0.0133,0.694673 0.0132,1.245146 0.053,1.887365 0.0398,0.642219 0.093,1.376177 0.0797,1.979045 -0.0133,0.602875 -0.093,1.074695 -0.0598,1.382635 0.0333,0.30794 0.20623,0.47852 0.35232,0.76689 0.1461,0.28837 0.27899,0.70778 0.41194,1.02234 0.13295,0.31455 0.26584,0.52425 0.35879,0.77326 0.093,0.24902 0.14611,0.53737 0.18606,0.81394 0.04,0.27656 0.0662,0.53604 0.0794,0.90301 0.0132,0.36697 0.0132,0.73395 -0.0532,1.07464 -0.0665,0.3407 -0.19937,0.60281 -0.46511,0.86488 -0.26575,0.26207 -0.6644,0.52418 -0.9701,0.76012 -0.30569,0.23594 -0.51832,0.44565 -0.71763,0.60291 -0.19931,0.15725 -0.38534,0.26209 -0.55812,0.36695 -0.17278,0.10486 -0.33225,0.20971 -0.51833,0.36701 -0.18608,0.1573 -0.39871,0.36701 -0.53163,0.53746 -0.13293,0.17045 -0.18609,0.30151 -0.54491,0.95682 -0.35882,0.65531 -1.02329,1.83489 -1.62339,2.94974 -0.6001,1.11484 -1.13593,2.16513 -1.57449,3.00395 -0.43855,0.83883 -0.77988,1.46628 -1.11001,2.00279 -0.33013,0.53652 -0.64907,0.98212 -0.88822,1.24421 -0.23914,0.26208 -0.3986,0.34072 -0.61122,0.43247 -0.21262,0.0917 -0.47841,0.19659 -0.74415,0.26215 -0.26575,0.0656 -0.53178,0.0918 -0.79757,0.11805 0,0 -0.95684,-0.23593 -0.95684,-0.23593 0,0 -0.55815,-0.31455 -0.55815,-0.31455 0,0 -0.79738,-0.55047 -0.79738,-0.55047 -0.34552,-0.68154 -0.69089,-1.36276 -1.00984,-1.99189 -0.31895,-0.62912 -0.61132,-1.20582 -1.11632,-2.21504 -0.50501,-1.00921 -1.222632,-2.4509 -1.740918,-3.46011 -0.518286,-1.00921 -0.837226,-1.58589 -1.142849,-2.03154 -0.305623,-0.44564 -0.597987,-0.7602 -0.970074,-1.08789 -0.372086,-0.32768 -0.823929,-0.66845 -1.182732,-0.90439 -0.358802,-0.23595 -0.6246,-0.36702 -0.823946,-0.45879 -0.199345,-0.0918 -0.33221,-0.14418 -0.460236,-0.32187 -0.128026,-0.1777 -0.217711,-0.39882 -0.310763,-0.70027 -0.09305,-0.30145 -0.172787,-0.64223 -0.21269,-1.04855 -0.0399,-0.40633 -0.0399,-0.87815 -0.01335,-1.20587 0.02656,-0.32771 0.07971,-0.51121 0.199319,-0.76028 0.119609,-0.24908 0.305658,-0.56362 0.47843,-0.83887 0.172771,-0.27525 0.332246,-0.51116 0.451843,-0.72083 0.119597,-0.20968 0.19933,-0.39317 0.239224,-1.69067 0.03989,-1.297504 0.03989,-3.709053 0.01335,-5.019689 -0.02654,-1.310636 -0.0797,-1.520337 -0.398642,-2.529561 -0.318943,-1.009224 -0.903667,-2.817892 -1.220906,-3.905984 -0.317239,-1.088092 -0.373878,-1.507027 -0.187718,-1.716887 0.18616,-0.209859 0.61142,-0.236076 0.823928,-0.249176 0.212507,-0.0131 0.212782,-0.01318 0.598291,-0.07873 z"
       id="path24" />
    <path
       style="fill:none;stroke:#000000;stroke-width:0.264583px;stroke-linecap:butt;stroke-linejoin:miter;stroke-opacity:1"
       d="m 98.21596,74.236131 c -1.18487,0.43654 -3.30521,1.184895 -4.45903,1.808632 -1.15382,0.62373 -1.3409,1.12262 -1.55917,1.87101 -0.21827,0.74838 -0.46771,1.74616 -0.46764,2.61932 8e-5,0.87315 0.24953,1.62149 0.90443,2.49455 0.65491,0.87306 1.71506,1.87085 2.96234,2.49438 1.24729,0.62353 2.68161,0.87297 4.00128,0.77564 1.31967,-0.0973 2.48431,-0.5264 3.26377,-0.96291 0.77945,-0.4365 1.15362,-0.87304 1.87097,-0.93536 0.71735,-0.0623 1.7775,0.24948 3.1495,0.65485 1.372,0.40536 3.05577,0.90426 4.45887,0.96654 1.40309,0.0623 2.5256,-0.31189 3.42983,-0.71724 0.90422,-0.40536 1.59019,-0.84189 2.18259,-1.52782 0.59239,-0.68593 1.09128,-1.62136 1.4031,-2.36967 0.31183,-0.74831 0.43655,-1.30956 0.31193,-1.93314 -0.12463,-0.62358 -0.49879,-1.30955 -1.02883,-1.93323 -0.53003,-0.62368 -1.21601,-1.18493 -1.93317,-1.65269 -0.71717,-0.467762 -1.46551,-0.841932 -2.21387,-1.184945 -0.74836,-0.343012 -1.4967,-0.65482 -2.12035,-0.841957 -0.62365,-0.187138 -1.12254,-0.249499 -1.65266,-0.24953 -0.53012,-3.1e-5 -1.09138,0.06233 -1.65269,0.187045 -0.56131,0.124714 -1.12256,0.311799 -1.55919,0.592476 -0.43664,0.280676 -0.74845,0.654847 -1.24719,0.748418 -0.49874,0.09357 -1.18471,-0.09351 -1.83954,-0.405269 -0.65482,-0.311757 -1.27843,-0.748284 -2.02682,-0.966662 -0.74838,-0.218377 -1.62145,-0.218377 -2.18279,-0.156039 -0.56135,0.06234 -0.8108,0.187062 -1.99567,0.623601 z"
       id="path1449" />
    <g
       inkscape:label="Layer 1"
       id="layer1-7"
       transform="matrix(0.9462302,0,0,1.021846,12.413899,-13.593209)">
      <path
         style="fill:none;stroke:#000000;stroke-width:0.264583px;stroke-linecap:butt;stroke-linejoin:miter;stroke-opacity:1"
         d="m 82.849197,162.92327 c -0.530232,0.71712 -1.0915,2.71274 -1.403315,3.80408 -0.311816,1.09134 -0.374179,1.27843 -0.280581,2.12041 0.0936,0.84199 0.343044,2.33867 0.530118,4.17838 0.187073,1.83972 0.311797,4.02238 0.623647,6.11158 0.311851,2.08919 0.810743,4.08476 1.060155,5.30081 0.249413,1.21606 0.249413,1.6526 0.498843,1.37188 0.24943,-0.28073 0.748325,-1.27852 0.997803,-1.93325 0.249478,-0.65473 0.249478,-0.84182 0.187124,-1.80845 -0.06235,-0.96663 -0.187077,-2.65039 -0.216921,-4.24062 -0.02984,-1.59022 0.02981,-2.96229 0.061,-4.27192 0.03119,-1.30963 0.03119,-2.4945 1.3e-5,-3.64822 -0.03118,-1.15372 -0.09354,-2.27623 -0.187064,-3.21167 -0.09353,-0.93543 -0.218252,-1.68377 -0.28064,-2.24506 -0.06239,-0.56129 -0.06239,-0.81074 -0.311722,-1.24728 -0.249335,-0.43653 -0.748225,-0.99778 -1.278458,-0.28067 z"
         id="path3257" />
      <path
         style="fill:none;stroke:#000000;stroke-width:0.264583px;stroke-linecap:butt;stroke-linejoin:miter;stroke-opacity:1"
         d="m 91.57999,162.79849 c -0.841998,0.65466 -2.338706,2.27609 -3.211811,3.46107 -0.873105,1.18497 -1.122551,1.93331 -1.278438,3.05591 -0.155886,1.12259 -0.218247,2.61927 -0.28061,4.11599 -0.06236,1.49673 -0.124726,2.99341 -0.124711,4.27187 1.4e-5,1.27846 0.06238,2.33861 0.155938,3.24289 0.09356,0.90428 0.218285,1.65262 0.405405,2.40099 0.18712,0.74837 0.436566,1.49671 0.686069,2.05798 0.249503,0.56126 0.498949,0.93543 0.685927,0.34293 0.186977,-0.59249 0.311701,-2.15153 0.498783,-3.61709 0.187081,-1.46556 0.436529,-2.83752 0.717162,-3.77303 0.280633,-0.93552 0.59244,-1.43441 0.841894,-2.08917 0.249454,-0.65476 0.436539,-1.46546 0.717175,-2.1827 0.280636,-0.71724 0.654802,-1.34085 1.028992,-1.90214 0.37419,-0.56129 0.748358,-1.06018 0.904291,-1.77724 0.155932,-0.71706 0.09357,-1.65249 -0.03115,-2.96212 -0.124721,-1.30963 -0.311806,-2.9934 -0.498821,-3.9912 -0.187014,-0.9978 -0.374095,-1.3096 -1.216094,-0.65494 z"
         id="path3261" />
      <path
         style="fill:none;stroke:#000000;stroke-width:0.264583px;stroke-linecap:butt;stroke-linejoin:miter;stroke-opacity:1"
         d="m 104.95682,163.07919 c 0.93558,0.49897 2.43229,2.61931 3.21175,3.83539 0.77946,1.21607 0.84182,1.52789 0.93535,2.40098 0.0935,0.87308 0.21825,2.30739 0.31179,3.74175 0.0935,1.43436 0.1559,2.86868 0.18707,4.33422 0.0312,1.46553 0.0312,2.96221 -10e-6,4.24065 -0.0312,1.27844 -0.0936,2.33859 -0.28065,3.05566 -0.18709,0.71706 -0.4989,1.09123 -0.77949,0.77955 -0.28058,-0.31168 -0.53003,-1.30946 -0.81066,-2.36965 -0.28063,-1.06018 -0.59244,-2.18268 -0.84187,-2.96222 -0.24943,-0.77954 -0.43651,-1.21607 -0.6247,-1.93891 -0.18819,-0.72284 -0.37316,-1.70933 -0.68492,-2.6136 -0.31176,-0.90426 -0.74829,-1.71496 -1.12248,-2.46332 -0.3742,-0.74836 -0.68601,-1.43434 -0.9043,-1.96443 -0.21829,-0.53009 -0.34301,-0.90426 -0.37425,-1.59029 -0.0312,-0.68604 0.0311,-1.68383 0.0623,-2.5569 0.0312,-0.87308 0.0312,-1.4967 0.21826,-2.40102 0.18706,-0.90433 0.56123,-2.02684 1.49681,-1.52786 z"
         id="path3265" />
      <path
         style="fill:none;stroke:#000000;stroke-width:0.264583px;stroke-linecap:butt;stroke-linejoin:miter;stroke-opacity:1"
         d="m 112.47144,162.23709 c -0.40536,0.53009 -0.96663,1.27845 -1.21606,2.49466 -0.24943,1.21621 -0.18706,2.89997 -0.0935,4.77088 0.0936,1.87091 0.21827,3.92885 0.31181,5.83093 0.0935,1.90208 0.1559,3.64821 0.18707,4.89547 0.0312,1.24726 0.0312,1.9956 0.28075,2.68161 0.24957,0.68601 0.74847,1.30962 1.02901,1.83972 0.28054,0.53009 0.3429,0.96662 0.37406,0.31178 0.0312,-0.65485 0.0312,-2.40097 0.0935,-3.86653 0.0623,-1.46555 0.18708,-2.65042 0.37416,-3.80416 0.18708,-1.15375 0.43653,-2.27626 0.71716,-3.39881 0.28063,-1.12256 0.59244,-2.24507 0.77955,-3.21167 0.18711,-0.9666 0.24947,-1.7773 0.0936,-2.77508 -0.15586,-0.99778 -0.53003,-2.18265 -0.90421,-3.36756 -0.37419,-1.18491 -0.74835,-2.36978 -1.06023,-2.80646 -0.31188,-0.43667 -0.56133,-0.12486 -0.96669,0.40522 z"
         id="path3269" />
    </g>
    <g
       inkscape:label="Layer 1"
       id="layer1-0"
       transform="matrix(0.86335423,0,0,0.93252687,18.059743,-13.680894)">
      <path
         style="fill:none;stroke:#000000;stroke-width:0.264583px;stroke-linecap:butt;stroke-linejoin:miter;stroke-opacity:1"
         d="m 75.926862,116.71235 c 0.77963,0.90438 1.902162,3.46126 2.681764,4.95794 0.779603,1.49669 1.216134,1.93322 1.746084,1.77719 0.529949,-0.15604 1.153565,-0.90438 1.46539,-1.12252 0.311826,-0.21815 0.311826,0.0937 0.414779,0.55829 0.102953,0.46464 0.271329,0.96976 0.177705,2.06107 -0.09362,1.09131 -0.467792,2.71271 -0.841977,4.08469 -0.374185,1.37198 -0.748354,2.49448 -1.122536,3.52347 -0.374182,1.02898 -0.748354,1.96441 -1.060172,2.71276 -0.311817,0.74836 -0.561262,1.30961 -0.68596,1.9645 -0.124698,0.65489 -0.124698,1.2785 -0.06227,1.77743 0.06243,0.49893 0.187151,0.81075 -0.810629,-0.46773 -0.99778,-1.27848 -3.118077,-4.14712 -4.209533,-6.26748 -1.091455,-2.12036 -1.153817,-3.49232 -1.185005,-4.77077 -0.03119,-1.27846 -0.03119,-2.46333 0.155905,-3.243 0.187093,-0.77967 0.561263,-1.15384 0.873065,-2.2451 0.311801,-1.09126 0.561247,-2.89975 0.904238,-4.17827 0.342991,-1.27851 0.779523,-2.02685 1.559152,-1.12247 z"
         id="path1453" />
      <path
         style="fill:none;stroke:#000000;stroke-width:0.264583px;stroke-linecap:butt;stroke-linejoin:miter;stroke-opacity:1"
         d="m 127.34508,116.77474 c -0.68611,0.3429 -1.43446,2.21379 -2.15162,3.52335 -0.71716,1.30957 -1.40314,2.05791 -2.15134,2.21389 -0.7482,0.15598 -1.5589,-0.28055 -2.05798,-0.0934 -0.49909,0.18711 -0.68617,0.99781 -0.59256,2.08923 0.0936,1.09143 0.46778,2.46339 0.84196,3.83538 0.37418,1.372 0.74836,2.74396 1.2473,4.08478 0.49894,1.34081 1.12255,2.65041 1.59028,3.61704 0.46773,0.96662 0.77954,1.59024 0.74825,2.24495 -0.0313,0.65471 -0.40545,1.34068 -0.0313,0.81057 0.37419,-0.53011 1.4967,-2.27625 2.401,-3.46119 0.90429,-1.18493 1.59027,-1.80855 2.05796,-2.36977 0.46769,-0.56121 0.71714,-1.0601 0.87307,-2.21375 0.15593,-1.15366 0.21829,-2.96215 0.15597,-4.20939 -0.0623,-1.24723 -0.2494,-1.93321 -0.43652,-3.1805 -0.18711,-1.24729 -0.3742,-3.05578 -0.7795,-4.55248 -0.4053,-1.49671 -1.02891,-2.68158 -1.71501,-2.33867 z"
         id="path1457" />
    </g>
    <g
       inkscape:label="Layer 1"
       id="layer1-3"
       transform="matrix(0.98238771,0,0,0.94934636,3.7475276,-8.5169216)">
      <path
         style="fill:none;stroke:#000000;stroke-width:0.264583px;stroke-linecap:butt;stroke-linejoin:miter;stroke-opacity:1"
         d="m 93.170222,127.09569 c -0.0624,0.74852 0.06232,2.1205 0.03111,3.27419 -0.03122,1.15368 -0.218301,2.0891 -0.374209,2.86864 -0.155907,0.77954 -0.280631,1.40316 -0.530036,1.83958 -0.249404,0.43642 -0.623572,0.68587 -1.028903,0.90413 -0.405331,0.21827 -0.84186,0.40535 -1.157756,1.24689 -0.315895,0.84153 -0.494981,2.21452 -0.650885,3.64889 -0.155905,1.43438 -0.280627,2.86869 -0.374167,4.3966 -0.09354,1.52792 -0.155902,3.14932 -0.187078,4.39659 -0.03118,1.24727 -0.03118,2.12034 0.09357,3.36763 0.124751,1.24728 0.374199,2.86869 0.530091,4.27186 0.155893,1.40316 0.218255,2.58803 0.498978,3.11796 0.280724,0.52992 0.779617,0.4052 1.278426,0.0622 0.49881,-0.34298 0.9977,-0.90423 1.309502,-1.49659 0.311803,-0.59236 0.436527,-1.21598 0.467758,-1.68365 0.03123,-0.46768 -0.03113,-0.77949 0.09372,-0.84191 0.124854,-0.0624 0.436664,0.12467 0.748364,0.84192 0.311701,0.71725 0.623509,1.96448 1.216073,2.93107 0.592565,0.96659 1.465624,1.65257 2.307535,2.05784 0.841912,0.40527 1.652613,0.52999 2.151352,-0.0624 0.498743,-0.59237 0.685823,-1.90197 0.810563,-3.21159 0.12473,-1.30961 0.18709,-2.61921 0.21828,-3.67938 0.0312,-1.06017 0.0312,-1.87088 -0.0935,-3.11813 -0.1247,-1.24726 -0.37415,-2.93103 -0.717072,-4.11592 -0.342923,-1.1849 -0.779455,-1.87088 -1.184864,-2.77515 -0.405408,-0.90427 -0.779578,-2.02678 -1.216128,-3.39878 -0.436549,-1.372 -0.935441,-2.9934 -1.403149,-4.33421 -0.467707,-1.34081 -0.904239,-2.40096 -1.216098,-3.52351 -0.31186,-1.12256 -0.498945,-2.30743 -0.56134,-3.30527 -0.06239,-0.99784 -3.3e-5,-1.80854 -0.06234,-2.55687 -0.06231,-0.74832 -0.249397,-1.4343 -0.46766,-1.71512 -0.218262,-0.28081 -0.467711,-0.15609 -0.530113,0.59244 z"
         id="path847" />
      <path
         style="fill:none;stroke:#000000;stroke-width:0.264583px;stroke-linecap:butt;stroke-linejoin:miter;stroke-opacity:1"
         d="m 113.12637,129.30973 c -0.18718,0.65478 -0.24955,2.46331 -0.53021,3.86641 -0.28066,1.4031 -0.77955,2.40089 -1.21609,3.46109 -0.43655,1.06021 -0.81072,2.18271 -1.15372,3.2429 -0.343,1.06018 -0.65481,2.05797 -0.93544,2.93105 -0.28064,0.87308 -0.53009,1.62143 -0.75951,2.34463 -0.22943,0.72319 -0.3942,1.27243 -0.64366,2.11434 -0.24945,0.84191 -0.56126,1.90206 -0.84189,2.8375 -0.28064,0.93545 -0.53009,1.74615 -0.6236,2.68166 -0.0935,0.93551 -0.0312,1.99565 0.0936,3.14939 0.12474,1.15374 0.31182,2.40097 0.40535,3.46113 0.0935,1.06016 0.0935,1.93323 0.26542,2.51289 0.1719,0.57966 0.57674,0.91702 1.29384,0.82333 0.71709,-0.0937 1.77724,-0.59259 2.52553,-1.15381 0.74828,-0.56122 1.18481,-1.18484 1.46545,-1.8084 0.28063,-0.62356 0.40535,-1.24717 0.43658,-1.71484 0.0312,-0.46768 -0.0311,-0.77949 0.12489,-0.93555 0.15601,-0.15606 0.53018,-0.15606 0.71713,0.15589 0.18696,0.31196 0.18696,0.93557 0.37418,1.43448 0.18723,0.49891 0.5614,0.87308 0.99794,1.30962 0.43655,0.43655 0.93544,0.93544 1.34071,1.09119 0.40526,0.15575 0.71707,-0.0313 0.96647,-0.62367 0.24939,-0.59233 0.43648,-1.59011 0.53004,-2.43199 0.0936,-0.84188 0.0936,-1.2784 0.12475,-2.12032 0.0312,-0.84191 0.0935,-1.96443 0.12472,-2.96223 0.0312,-0.99781 0.0312,-1.87087 0.0624,-2.77515 0.0312,-0.90429 0.0935,-1.83971 0.12473,-2.96224 0.0312,-1.12254 0.0312,-2.43214 -0.12468,-3.67939 -0.15587,-1.24724 -0.46768,-2.43211 -0.6548,-3.36758 -0.18712,-0.93546 -0.24948,-1.62144 -0.37417,-2.24505 -0.12468,-0.62362 -0.31177,-1.18488 -0.68585,-1.65266 -0.37408,-0.46778 -0.93534,-0.84195 -1.37197,-1.40317 -0.43663,-0.56121 -0.74843,-1.30955 -0.93558,-2.21384 -0.18715,-0.9043 -0.24951,-1.96445 -0.43651,-2.74397 -0.18701,-0.77953 -0.49882,-1.27843 -0.68601,-0.62364 z"
         id="path851" />
    </g>
    <g
       inkscape:label="Layer 1"
       id="layer1-9"
       transform="translate(7.397615,-22.248971)">
      <path
         style="fill:none;stroke:#000000;stroke-width:0.264583px;stroke-linecap:butt;stroke-linejoin:miter;stroke-opacity:1"
         d="m 81.61748,93.981031 c 0.04682,0.156065 0.140363,0.467878 0.514632,0.623628 0.374268,0.15575 1.029064,0.15575 1.668284,0.140153 0.639219,-0.0156 1.262834,-0.04677 1.699411,8.4e-5 0.436577,0.04686 0.686022,0.171584 0.873002,0.436709 0.18698,0.265125 0.311704,0.670475 0.358417,1.0758 0.04671,0.405326 0.01553,0.810679 -0.06244,1.122417 -0.07797,0.311737 -0.202694,0.530004 -0.420942,0.795007 -0.218249,0.265003 -0.530056,0.57681 -0.841885,0.919822 -0.311829,0.343013 -0.623639,0.717183 -0.873105,1.060209 -0.249465,0.34302 -0.436545,0.65483 -0.576866,0.96669 -0.140321,0.31187 -0.233864,0.62368 -0.264991,0.8576 -0.03113,0.23393 5.5e-5,0.38984 0.01561,0.54573 0.01556,0.15588 0.01556,0.31179 -0.124767,0.54553 -0.140327,0.23374 -0.420954,0.54555 -0.982212,1.07563 -0.561258,0.53007 -1.403141,1.27841 -2.120263,1.7773 -0.717122,0.49888 -1.30956,0.74833 -1.637058,0.9355 -0.327497,0.18717 -0.389858,0.31189 -0.452062,0.3742 -0.0622,0.0623 -0.124565,0.0623 -0.374066,-0.32731 -0.249501,-0.38962 -0.686032,-1.16914 -0.919971,-1.7772 -0.23394,-0.60805 -0.265122,-1.04458 -0.218376,-1.69943 0.04675,-0.65485 0.171472,-1.52792 0.23385,-2.30744 0.06238,-0.77952 0.06238,-1.465495 0.218262,-2.182742 0.155883,-0.717248 0.467691,-1.465588 0.701553,-2.042443 0.233863,-0.576856 0.389766,-0.982205 0.514494,-1.278449 0.124728,-0.296244 0.218271,-0.483329 0.717275,-0.764046 0.499005,-0.280717 1.403248,-0.654887 1.855313,-0.841948 0.452066,-0.187062 0.452077,-0.187066 0.498897,-0.031 z"
         id="path2094" />
      <path
         style="fill:none;stroke:#000000;stroke-width:0.264583px;stroke-linecap:butt;stroke-linejoin:miter;stroke-opacity:1"
         d="m 108.79206,95.789397 c 0,0 0,0 0.0623,-0.140257 0.0623,-0.140257 0.18706,-0.420887 0.46784,-0.576863 0.28079,-0.155977 0.71732,-0.187156 1.13829,-0.202738 0.42096,-0.01558 0.82631,-0.01558 1.27844,-0.01558 0.45214,0 0.95103,0 1.3408,0 0.38978,0 0.6704,0 0.8929,-0.131701 0.2225,-0.131701 0.36964,-0.367132 0.71282,-0.398292 0.34318,-0.03116 0.87326,0.155927 1.30979,0.405452 0.43652,0.249525 0.7795,0.561328 1.04449,0.904362 0.26499,0.343034 0.45207,0.717205 0.73266,1.715024 0.2806,0.997819 0.65476,2.61922 0.88861,3.741746 0.23385,1.12253 0.3274,1.74615 0.28058,2.46328 -0.0468,0.71713 -0.2339,1.52783 -0.39818,2.09228 -0.16427,0.56445 -0.27228,0.80747 -0.44375,1.05686 -0.17148,0.24939 -0.38974,0.46765 -0.90408,0.34301 -0.51435,-0.12464 -1.32505,-0.59235 -1.87072,-0.88859 -0.54567,-0.29624 -0.82631,-0.42097 -1.15374,-0.65478 -0.32743,-0.23381 -0.7016,-0.5768 -0.99788,-0.95095 -0.29627,-0.37415 -0.51454,-0.7795 -0.70165,-1.16927 -0.18711,-0.38977 -0.34301,-0.76394 -0.43662,-1.10695 -0.0936,-0.34301 -0.1248,-0.65482 -0.23389,-1.02899 -0.10909,-0.37417 -0.29618,-0.8107 -0.51439,-1.1693 -0.21822,-0.358612 -0.46767,-0.639241 -0.73273,-0.96664 -0.26505,-0.327399 -0.54568,-0.70157 -0.76399,-1.044557 -0.2183,-0.342988 -0.3742,-0.6548 -0.53014,-1.028981 -0.15593,-0.374182 -0.31183,-0.810712 -0.38984,-1.029141 -0.078,-0.21843 -0.078,-0.218433 -0.078,-0.218433 z"
         id="path2659" />
    </g>
    <g
       inkscape:label="Layer 1"
       id="layer1-09"
       transform="matrix(0.99418701,0,0,1.0000615,-1.3517937,-21.25643)">
      <path
         style="fill:none;stroke:#000000;stroke-width:0.31025px;stroke-linecap:butt;stroke-linejoin:miter;stroke-opacity:1"
         d="m 87.108217,106.35275 c 0.115684,0.41562 -0.115983,1.33892 -0.376617,2.23915 -0.260634,0.90022 -0.550213,1.77735 -0.637039,2.72381 -0.08683,0.94645 0.02901,1.96207 0.231743,3.0239 0.202737,1.06182 0.492316,2.16977 0.839851,3.20851 0.347534,1.03874 0.752943,2.00819 0.695105,2.239 -0.05784,0.2308 -0.579081,-0.27701 -1.216251,-1.33881 -0.63717,-1.0618 -1.390075,-2.67756 -1.708716,-3.83175 -0.31864,-1.1542 -0.202809,-1.84666 -0.05802,-2.65457 0.144793,-0.8079 0.31854,-1.7312 0.521249,-2.72377 0.202709,-0.99257 0.434374,-2.05436 0.782022,-2.63156 0.347649,-0.5772 0.810986,-0.66953 0.92667,-0.25391 z"
         id="path2064" />
      <path
         style="fill:none;stroke:#000000;stroke-width:0.297204px;stroke-linecap:butt;stroke-linejoin:miter;stroke-opacity:1"
         d="m 127.85534,106.5849 c -1.4e-4,0.69952 0.36824,2.14489 0.55239,3.2171 0.18414,1.07221 0.18414,1.77186 0.1315,2.63442 -0.0526,0.86256 -0.15789,1.88829 -0.32368,2.70186 -0.16578,0.81358 -0.36049,1.33109 -0.51835,2.0072 -0.15786,0.67611 -0.26311,1.46872 -0.421,2.07479 -0.15789,0.60607 -0.36838,1.02569 -0.13155,0.79252 0.23682,-0.23317 0.92093,-1.11902 1.47348,-1.93494 0.55256,-0.81592 0.97354,-1.56191 1.21037,-2.14466 0.23682,-0.58275 0.28945,-1.00237 0.26317,-1.53852 -0.0263,-0.53615 -0.13151,-1.18889 -0.28939,-2.23797 -0.15788,-1.04908 -0.36838,-2.49442 -0.57885,-3.59011 -0.21048,-1.09568 -0.42097,-1.84167 -0.71028,-2.23813 -0.28931,-0.39645 -0.65767,-0.44307 -0.65781,0.25644 z"
         id="path2068" />
    </g>
    <path
       style="fill:none;stroke:#000000;stroke-width:0.264583px;stroke-linecap:butt;stroke-linejoin:miter;stroke-opacity:1"
       d="m 86.484886,98.690147 c 0.359969,-1.5e-4 0.977101,-0.617284 1.46565,-1.182968 0.488549,-0.565684 0.848536,-1.079951 1.208144,-1.486776 0.359608,-0.406825 0.617582,-0.621803 0.823262,-1.033116 0.20568,-0.411312 0.308534,-0.977007 0.4371,-1.568442 0.128567,-0.591436 0.282846,-1.208556 0.473922,-1.716559 0.191075,-0.508003 0.374627,-0.82922 0.528911,-1.189173 0.154284,-0.359953 0.257137,-0.71994 0.38571,-1.208504 0.128573,-0.488564 0.282852,-1.105684 0.38572,-1.67137 0.102867,-0.565685 0.154294,-1.079952 0.282852,-1.517166 0.128559,-0.437215 0.334266,-0.797201 0.437146,-1.105681 0.10288,-0.308479 0.10288,-0.565614 -0.05131,-0.951303 -0.154192,-0.38569 -0.462753,-0.899957 -0.686505,-1.36538 -0.223753,-0.465422 -0.290606,-0.665982 -0.419161,-1.000265 -0.128556,-0.334283 -0.282836,-0.69427 -0.334348,-1.054316 -0.05151,-0.360045 -8.5e-5,-0.720032 -0.205811,-0.411511 -0.205726,0.308521 -0.668567,1.285631 -1.204074,1.912369 -0.535508,0.626738 -1.058579,0.864497 -1.624326,1.198791 -0.565748,0.334295 -1.13144,0.745708 -1.568612,1.131448 -0.437171,0.38574 -0.745732,0.745727 -1.028602,1.414377 -0.28287,0.668651 -0.540004,1.64576 -0.69427,2.648644 -0.154265,1.002884 -0.205692,2.031417 -0.205678,3.034282 1.4e-5,1.002865 0.05144,1.979972 0.180076,2.699986 0.128635,0.720013 0.334342,1.182854 0.488586,1.671415 0.154243,0.488562 0.257097,1.00283 0.359948,1.568538 0.10285,0.565708 0.205704,1.182831 0.565673,1.18268 z"
       id="path1045" />
    <path
       style="fill:none;stroke:#000000;stroke-width:0.264583px;stroke-linecap:butt;stroke-linejoin:miter;stroke-opacity:1"
       d="m 119.88729,82.181846 c 0.69442,0.102966 1.56869,0.977236 2.31443,1.517151 0.74573,0.539915 1.36285,0.745621 1.79999,0.874169 0.43713,0.128548 0.69426,0.179974 1.00274,0.694389 0.30848,0.514416 0.66846,1.491526 0.89984,2.520075 0.23139,1.028549 0.33424,2.10851 0.33421,3.188479 -2e-5,1.079968 -0.10288,2.159929 -0.23145,3.137051 -0.12858,0.977121 -0.28286,1.851376 -0.48859,2.648483 -0.20572,0.797107 -0.46285,1.517081 -0.95125,1.645669 -0.48839,0.128587 -1.20836,-0.334252 -1.7227,-0.848476 -0.51435,-0.514225 -0.82291,-1.079917 -1.08005,-1.542772 -0.25714,-0.462854 -0.46284,-0.822843 -0.74575,-1.671413 -0.2829,-0.84857 -0.64289,-2.185666 -0.92574,-3.188512 -0.28285,-1.002846 -0.48855,-1.67139 -0.74569,-2.442814 -0.25713,-0.771425 -0.56569,-1.64568 -0.74573,-2.442835 -0.18005,-0.797156 -0.23147,-1.517128 -0.29044,-2.010216 -0.059,-0.493089 -0.0953,-0.638292 0.13612,-1.075572 0.23137,-0.437281 0.74564,-1.105823 1.44006,-1.002856 z"
       id="path1049" />
    <path
       style="fill:none;stroke:#000000;stroke-width:0.264583px;stroke-linecap:butt;stroke-linejoin:miter;stroke-opacity:1"
       d="m 99.70189,53.94798 c 0.257037,-0.874119 0.257037,-2.519807 0.66849,-3.651371 0.41145,-1.131563 1.23428,-1.748685 2.16007,-2.160114 0.92579,-0.411428 1.95432,-0.617134 2.88006,-0.71997 0.92574,-0.102835 1.54285,-0.102835 2.31428,0.257288 0.77144,0.360123 1.59427,1.080099 2.21134,1.851559 0.61708,0.77146 1.02849,1.59429 1.28557,2.468556 0.25707,0.874267 0.35993,1.799947 0.46285,2.365667 0.10292,0.56572 0.20577,0.771429 0.43419,1.169238 0.22842,0.39781 0.4916,0.836446 0.54291,1.453519 0.0513,0.617073 -0.15441,1.337048 -0.46295,1.902669 -0.30855,0.565621 -0.71996,0.977039 -1.07998,1.697121 -0.36002,0.720083 -0.66858,1.748617 -0.51413,2.520072 0.15446,0.771455 0.77158,1.285722 1.85159,2.057129 1.08,0.771408 2.62281,1.799947 4.16566,2.777074 1.54285,0.977127 3.08565,1.902807 4.47419,2.931405 1.38854,1.028597 2.62279,2.159989 3.13698,2.417152 0.51419,0.257164 0.30848,-0.359955 0.46276,0.257195 0.15427,0.61715 0.66854,2.468512 0.97714,3.497071 0.30861,1.028559 0.41146,1.234265 0.51427,1.645684 0.1028,0.411419 0.20565,1.028539 0.20561,1.594201 -5e-5,0.565661 -0.1029,1.079928 -0.15431,1.594241 -0.0514,0.514313 -0.0514,1.028581 0.15436,1.902892 0.20577,0.874311 0.61718,2.108549 0.97716,3.497107 0.35997,1.388559 0.66853,2.93136 0.82278,4.114187 0.15425,1.182826 0.15425,2.005651 0.46288,3.239962 0.30864,1.23431 0.92576,2.879964 1.28997,4.37101 0.3642,1.491046 0.45854,2.623136 0.50996,4.063116 0.0514,1.43999 0.0514,2.87993 -0.20576,4.78274 -0.25716,1.90282 -0.77143,4.16559 -0.87423,6.06849 -0.1028,1.9029 0.20577,3.4457 0.30858,4.98852 0.10281,1.54281 -4e-5,3.08561 -0.10289,4.78275 -0.10286,1.69713 -0.20571,3.54849 -0.43755,5.13561 -0.23184,1.58712 -0.48819,2.52703 -0.83231,3.21922 -0.34412,0.6922 -0.58146,0.85043 -0.99276,0.85051 -0.4113,8e-5 -0.92557,-0.20562 -1.33709,-0.71981 -0.41153,-0.51419 -0.72009,-1.33702 -0.61731,-2.21142 0.10278,-0.87439 0.61705,-1.80007 1.0799,-2.62293 0.46285,-0.82285 0.87426,-1.54282 0.77153,-2.31414 -0.10272,-0.77132 -0.71984,-1.59415 -1.13124,-2.10844 -0.41141,-0.51429 -0.61711,-0.72 -0.87441,-0.25718 -0.2573,0.46281 -0.56586,1.5942 -0.97722,2.31408 -0.41137,0.71988 -0.92564,1.02844 -1.13139,0.51429 -0.20576,-0.51414 -0.1029,-1.85124 -0.0515,-2.82837 0.0514,-0.97712 0.0514,-1.59424 0.2057,-2.31429 0.15426,-0.72006 0.46282,-1.54289 0.92569,-2.36579 0.46286,-0.8229 1.07998,-1.64573 1.23433,-2.51987 0.15434,-0.87415 -0.15421,-1.79983 -0.56563,-2.98268 -0.41143,-1.18285 -0.9257,-2.62279 -1.29561,-3.90653 -0.36991,-1.28373 -0.55584,-2.21337 -0.81294,-3.08764 -0.25711,-0.87428 -0.56567,-1.59425 -0.82285,-2.51996 -0.25718,-0.92572 -0.46289,-2.05711 -0.56577,-2.93141 -0.10288,-0.874293 -0.10288,-1.491412 -0.10288,-2.108551 0,-0.61714 0,-1.234259 -0.10283,-2.108524 -0.10283,-0.874264 -0.30854,-2.005652 -0.7199,-3.085638 -0.41136,-1.079987 -1.02848,-2.108525 -1.5653,-2.988006 -0.53681,-0.879481 -1.10886,-1.794762 -1.62326,-0.971948 -0.5144,0.822814 -1.02867,3.291295 -1.28579,5.091309 -0.25712,1.800014 -0.25712,2.931402 -0.20568,4.217119 0.0514,1.285716 0.15429,2.725669 0.41149,3.959959 0.2572,1.2343 0.66861,2.26282 0.87426,3.18851 0.20565,0.92568 0.20565,1.7485 0.20565,2.67421 0,0.92571 0,1.95425 0.10287,3.54854 0.10287,1.59429 0.30858,3.75421 0.56573,5.86278 0.25715,2.10856 0.56571,4.16563 1.02859,6.11991 0.46289,1.95428 1.08,3.80564 1.18278,5.86272 0.10278,2.05708 -0.30863,4.31985 -0.41145,6.42845 -0.10282,2.10859 0.10289,4.06282 0.10286,5.75991 -4e-5,1.6971 -0.20574,3.13705 -0.36002,4.47419 -0.15428,1.33714 -0.25713,2.57138 8e-5,4.06284 0.25721,1.49147 0.87433,3.23997 1.34322,4.75559 0.46888,1.51561 0.76534,2.70145 0.91959,3.88427 0.15424,1.18283 0.15424,2.31422 -0.0515,3.44558 -0.20575,1.13136 -0.61716,2.26275 -1.02858,3.7542 -0.41142,1.49144 -0.82283,3.3428 -0.97708,4.93712 -0.15425,1.59432 -0.0514,2.93141 2e-5,3.95996 0.0514,1.02856 0.0514,1.74853 0.20576,2.57141 0.15434,0.82288 0.46289,1.74856 0.97722,2.82855 0.51432,1.08 1.23429,2.31424 1.9543,3.49709 0.72,1.18284 1.43997,2.31422 1.85132,3.1885 0.41136,0.87428 0.51421,1.4914 -6e-5,2.10836 -0.51427,0.61697 -1.64565,1.23408 -2.57132,1.64551 -0.92567,0.41143 -1.64564,0.61713 -2.31414,0.66861 -0.6685,0.0515 -1.28562,-0.0514 -2.00565,-0.56556 -0.72002,-0.51417 -1.54285,-1.43984 -1.85156,-2.21133 -0.30872,-0.77149 -0.10301,-1.3886 -0.30858,-2.05711 -0.20557,-0.6685 -0.82269,-1.38847 -1.18279,-2.31419 -0.36011,-0.92571 -0.46296,-2.05709 -0.46299,-2.9314 -3e-5,-0.87432 0.10282,-1.49144 0.15427,-2.05712 0.0514,-0.56569 0.0514,-1.07996 0.30857,-1.69721 0.25712,-0.61724 0.77139,-1.33722 0.72005,-2.31422 -0.0513,-0.97701 -0.66845,-2.21125 -1.18277,-3.65125 -0.51433,-1.43999 -0.92574,-3.08564 -1.49142,-4.67991 -0.56568,-1.59428 -1.28565,-3.13707 -1.69713,-4.26851 -0.41147,-1.13143 -0.51432,-1.8514 -0.56577,-2.51998 -0.0515,-0.66858 -0.0515,-1.2857 -0.0515,-1.90284 0,-0.61714 0,-1.02855 0.15426,-1.80003 0.15426,-0.77147 0.46282,-1.80001 0.41146,-3.03421 -0.0514,-1.23421 -0.46278,-2.67416 -0.82271,-3.59987 -0.35993,-0.92571 -0.66849,-1.33713 -0.8743,-2.21142 -0.20581,-0.87429 -0.30866,-2.21138 -0.5658,-4.73137 -0.25714,-2.51999 -0.66855,-6.22272 -1.13139,-9.25698 -0.46284,-3.03425 -0.97711,-5.39988 -1.59431,-5.50278 -0.6172,-0.10291 -1.33717,2.05701 -1.85145,3.95988 -0.51427,1.90286 -0.82283,3.54852 -1.02853,5.24568 -0.2057,1.69715 -0.30855,3.44565 -0.35997,4.93708 -0.0514,1.49143 -0.0514,2.72567 -0.30859,3.85701 -0.25717,1.13134 -0.77144,2.15987 -1.19592,3.28777 -0.42447,1.1279 -0.70693,2.16355 -0.70687,3.60361 5e-5,1.44005 0.30862,3.18856 0.51431,4.78282 0.2057,1.59427 0.30855,3.03422 -0.15434,4.42266 -0.46288,1.38843 -1.491419,2.72553 -2.211413,4.62847 -0.719994,1.90294 -1.131408,4.37142 -1.337101,6.22285 -0.205693,1.85144 -0.205693,3.08568 -0.205693,3.95996 0,0.87428 0,1.38854 -0.05145,1.85136 -0.05145,0.46281 -0.154307,0.87423 -0.1028,1.38858 0.05151,0.51434 0.257213,1.13146 0.514414,1.64574 0.257202,0.51427 0.565759,0.92568 0.205644,1.64553 -0.360116,0.71985 -1.388649,1.74839 -1.800016,2.57139 -0.411367,0.82301 -0.205661,1.44013 -0.565708,2.15996 -0.360047,0.71983 -1.285729,1.54266 -2.005741,2.26268 -0.720013,0.72001 -1.23428,1.33713 -1.491408,1.4401 -0.257128,0.10297 -0.257128,-0.30844 -0.616981,-0.56569 -0.359853,-0.25725 -1.079827,-0.3601 -1.645552,-0.41155 -0.565725,-0.0515 -0.977139,-0.0515 -1.388549,-0.20563 -0.411411,-0.15417 -0.822825,-0.46273 -1.131488,-0.92554 -0.308663,-0.46281 -0.514373,-1.07994 -0.103017,-2.36576 0.411355,-1.28582 1.439887,-3.24003 2.211336,-4.47435 0.771449,-1.23432 1.285714,-1.74858 1.483108,-2.36418 0.197395,-0.6156 0.11122,-1.13265 0.214028,-1.74989 0.102807,-0.61723 0.411367,-1.23435 0.308563,-2.87996 -0.102805,-1.64562 -0.617072,-4.31981 -0.925656,-6.22266 -0.308584,-1.90285 -0.411436,-3.03423 -0.462877,-4.31995 -0.05144,-1.28572 -0.05144,-2.72567 -0.05144,-4.01138 0,-1.2857 0,-2.41708 0.204984,-3.52954 0.204983,-1.11247 0.412094,-1.66476 0.669235,-2.38475 0.257142,-0.71999 0.462848,-1.33711 0.771445,-1.85147 0.308596,-0.51436 0.720014,-0.92577 0.772317,-2.3076 0.0523,-1.38183 -0.257978,-3.76065 -0.412281,-5.76637 -0.154302,-2.00571 -0.154302,-3.65136 -0.102882,-5.19422 0.05142,-1.54286 0.154273,-2.9828 1.7e-5,-5.09134 -0.154257,-2.10854 -0.56567,-4.88558 -0.668558,-7.19988 -0.102889,-2.3143 0.102818,-4.16566 0.411376,-5.70854 0.308557,-1.54289 0.71997,-2.77713 1.131396,-4.06283 0.411426,-1.2857 0.822842,-2.6228 1.028578,-4.01131 0.205736,-1.38851 0.205736,-2.82846 0.308582,-4.62846 0.102846,-1.80001 0.308554,-3.95994 0.308542,-4.88572 -1.2e-5,-0.92578 -0.205719,-0.61722 0.102875,-0.8744 0.308595,-0.25718 1.131423,-1.08001 1.440004,-2.417 0.308581,-1.33699 0.102874,-3.188354 3e-6,-4.422639 -0.102872,-1.234285 -0.102872,-1.851404 -0.359963,-2.931375 -0.25709,-1.079971 -0.771357,-2.622772 -1.079957,-3.754201 -0.308599,-1.131428 -0.411453,-1.851402 -0.514312,-2.622828 -0.102859,-0.771426 -0.205713,-1.594254 -0.617186,-0.822876 -0.411473,0.771378 -1.131447,3.137007 -1.645725,4.885566 -0.514279,1.748559 -0.82284,2.879949 -0.977099,4.011412 -0.154258,1.131463 -0.154258,2.26285 -0.205713,2.931333 -0.05146,0.668483 -0.154309,0.874191 -0.360012,2.108538 -0.205703,1.23435 -0.514263,3.49712 -1.131417,5.81135 -0.617155,2.31423 -1.542836,4.67986 -2.057107,6.11988 -0.514271,1.44001 -0.617123,1.95427 -0.617077,2.52003 4.5e-5,0.56577 0.102899,1.18289 0.44134,2.01754 0.338442,0.83466 0.9988,2.04531 1.46161,3.17673 0.462809,1.13142 0.77137,2.26281 0.71987,3.23984 -0.0515,0.97703 -0.462914,1.79986 -0.771378,2.00567 -0.308463,0.20581 -0.514168,-0.2056 -0.719915,-0.77131 -0.205747,-0.56571 -0.411456,-1.28569 -0.668483,-1.69722 -0.257027,-0.41152 -0.565589,-0.51438 -0.925759,-0.3087 -0.360169,0.20568 -0.771584,0.71995 -0.977282,1.28577 -0.205697,0.56583 -0.205697,1.18295 0.102976,1.9544 0.308674,0.77144 0.925794,1.69712 1.28582,2.21138 0.360025,0.51426 0.462882,0.61712 0.565644,0.87428 0.102763,0.25717 0.205618,0.66859 -1.23e-4,1.07984 -0.20574,0.41126 -0.720005,0.82267 -1.182874,1.23411 -0.462869,0.41144 -0.874287,0.82285 -1.28558,1.02856 -0.411292,0.20571 -0.822706,0.20571 -1.182822,-1.38844 -0.360115,-1.59415 -0.668676,-4.7826 -0.937103,-7.40418 -0.268428,-2.62158 -0.451557,-4.26973 -0.503004,-6.42974 -0.05145,-2.16001 0.05141,-4.62849 -0.131598,-6.98817 -0.183003,-2.35969 -0.742621,-5.04586 -0.794105,-6.74308 -0.05148,-1.69721 0.35993,-2.62289 0.874215,-4.114294 0.514286,-1.491402 1.131407,-3.548471 1.388592,-4.936963 0.257184,-1.388492 0.154331,-2.108466 0.20572,-3.034221 0.05139,-0.925754 0.257097,-2.057141 0.668521,-3.137199 0.411423,-1.080058 1.028544,-2.108594 1.234315,-3.034184 0.205771,-0.92559 6.4e-5,-1.748418 -0.154248,-2.828428 -0.154313,-1.08001 -0.257166,-2.417103 -0.308604,-3.497104 -0.05144,-1.08 -0.05144,-1.902827 0.257107,-2.982897 0.308545,-1.08007 0.925665,-2.417163 1.90288,-3.445809 0.977215,-1.028646 2.31431,-1.748619 3.497163,-2.365758 1.182854,-0.617139 2.211387,-1.131406 3.342778,-1.851393 1.13139,-0.719987 2.365632,-1.645668 3.291466,-2.057048 0.925835,-0.41138 1.542956,-0.308527 2.159935,-0.617114 0.61698,-0.308588 1.2341,-1.028562 1.594091,-1.954164 0.36,-0.925602 0.46285,-2.05699 0.2573,-2.674213 -0.20556,-0.617223 -0.719823,-0.720076 -1.18274,-1.131378 -0.462917,-0.411303 -0.87433,-1.131277 -1.028714,-2.005598 -0.154383,-0.87432 -0.05153,-1.902854 0.257155,-2.468698 0.308685,-0.565845 0.822953,-0.668699 1.079989,-1.542817 z"
       id="path1053" />
  </g>
</svg>
