<?xml version="1.0" encoding="UTF-8" standalone="no"?>
<svg
   xmlns:dc="http://purl.org/dc/elements/1.1/"
   xmlns:cc="http://creativecommons.org/ns#"
   xmlns:rdf="http://www.w3.org/1999/02/22-rdf-syntax-ns#"
   xmlns:svg="http://www.w3.org/2000/svg"
   xmlns="http://www.w3.org/2000/svg"
   xmlns:sodipodi="http://sodipodi.sourceforge.net/DTD/sodipodi-0.dtd"
   xmlns:inkscape="http://www.inkscape.org/namespaces/inkscape"
   width="51.064583mm"
   height="143.66875mm"
   viewBox="0 0 51.064583 143.66875"
   version="1.1"
   id="svg981"
   inkscape:version="1.0.2 (e86c870879, 2021-01-15, custom)"
   sodipodi:docname="back glutes muscles SVG.svg">
  <defs
     id="defs975">
    <inkscape:path-effect
       effect="bspline"
       id="path-effect999"
       is_visible="true"
       lpeversion="1"
       weight="33.333333"
       steps="2"
       helper_size="0"
       apply_no_weight="true"
       apply_with_weight="true"
       only_selected="false" />
  </defs>
  <sodipodi:namedview
     id="base"
     pagecolor="#ffffff"
     bordercolor="#666666"
     borderopacity="1.0"
     inkscape:pageopacity="0.0"
     inkscape:pageshadow="2"
     inkscape:zoom="1.4142136"
     inkscape:cx="155.89736"
     inkscape:cy="270.72725"
     inkscape:document-units="mm"
     inkscape:current-layer="layer1"
     inkscape:document-rotation="0"
     showgrid="false"
     inkscape:snap-global="false"
     inkscape:window-width="958"
     inkscape:window-height="991"
     inkscape:window-x="952"
     inkscape:window-y="0"
     inkscape:window-maximized="0" />
  <metadata
     id="metadata978">
    <rdf:RDF>
      <cc:Work
         rdf:about="">
        <dc:format>image/svg+xml</dc:format>
        <dc:type
           rdf:resource="http://purl.org/dc/dcmitype/StillImage" />
        <dc:title></dc:title>
      </cc:Work>
    </rdf:RDF>
  </metadata>
  <g
     inkscape:label="Layer 1"
     inkscape:groupmode="layer"
     id="layer1"
     transform="translate(-132.68854,-53.048962)">
    <path
       style="fill:none;stroke:#000000;stroke-width:0.264583px;stroke-linecap:butt;stroke-linejoin:miter;stroke-opacity:1"
       d="m 147.59324,115.27161 c -0.15593,0.38983 -0.46775,1.16936 -0.68787,2.08905 -0.22012,0.91968 -0.34111,1.91791 -0.40346,2.85339 -0.0624,0.93547 -0.0624,1.71499 -0.17151,2.74396 -0.10915,1.02898 -0.32742,2.27621 -0.68602,3.72614 -0.3586,1.44993 -0.85749,3.10251 -1.1225,4.2095 -0.26502,1.10698 -0.29619,1.66825 0.43673,1.90197 0.73292,0.23373 2.2296,0.14019 3.49244,-1.4e-4 1.26284,-0.14033 2.2918,-0.32742 3.55463,-0.73279 1.26282,-0.40538 2.7595,-1.029 3.71051,-1.46553 0.95101,-0.43654 1.35636,-0.68598 1.8711,-0.78096 0.51475,-0.095 1.20045,-0.0297 2.16711,0.2822 0.96665,0.31188 2.24507,0.87313 3.52352,1.35643 1.27845,0.4833 2.55686,0.88864 3.55465,1.09127 0.99779,0.20263 1.71495,0.20263 2.72835,0.14026 1.01339,-0.0624 2.32298,-0.1871 2.93098,-0.34284 0.608,-0.15574 0.51445,-0.34283 0.31174,-0.96646 -0.20271,-0.62364 -0.51452,-1.68379 -0.77958,-2.6972 -0.26506,-1.01342 -0.48332,-1.98002 -0.65483,-2.85311 -0.17151,-0.87309 -0.29624,-1.65262 -0.35862,-2.41658 -0.0624,-0.76397 -0.0624,-1.51231 -0.12474,-2.3698 -0.0623,-0.85748 -0.18707,-1.82409 -0.35185,-2.76104 -0.16478,-0.93696 -0.39645,-1.9629 -0.58347,-2.55536 -0.18701,-0.59245 -0.34292,-0.81072 -0.60792,-1.04463 -0.265,-0.23391 -0.63917,-0.48336 -1.02893,-0.70166 -0.38976,-0.2183 -0.79512,-0.40539 -1.29403,-0.57692 -0.49891,-0.17153 -1.09135,-0.32743 -1.57467,-0.53005 -0.48332,-0.20263 -0.85749,-0.45207 -1.32525,-0.54573 -0.46776,-0.0937 -1.02902,-0.0313 -2.69724,-0.0157 -1.66822,0.0156 -4.44331,-0.0156 -5.95561,-0.0311 -1.51231,-0.0156 -1.76175,-0.0156 -2.01121,-0.0156 -0.24945,0 -0.4989,0 -0.86905,0.14717 -0.37014,0.14718 -0.81493,0.41404 -1.29821,0.6479 -0.48329,0.23386 -0.98218,0.42095 -1.57467,0.71718 -0.59248,0.29623 -1.27846,0.70158 -1.6215,0.90429 -0.34303,0.2027 -0.34308,0.20266 -0.49902,0.5925 z"
       id="path997" />
    <path
       style="fill:#ffffff;stroke-width:0.499763"
       d="m 45.623481,299.76053 c -0.879553,-1.0598 -0.549214,-3.00812 2.683652,-15.82803 3.053281,-12.10777 3.809813,-16.38099 4.403434,-24.87251 0.690118,-9.87185 2.426104,-19.14366 4.339648,-23.1778 0.692956,-1.4609 3.212407,-3.06452 10.458798,-6.65698 l 9.545942,-4.73249 20.973984,0.23956 c 20.621611,0.23554 21.055221,0.27058 25.809391,2.08541 8.52093,3.25274 13.91039,6.28496 15.20421,8.55422 1.82065,3.19324 3.98305,15.04942 4.77176,26.16295 0.76437,10.77073 1.75117,16.26838 5.11384,28.49028 1.20819,4.3913 2.00079,8.18011 1.76132,8.41958 -0.80426,0.80426 -7.11434,1.54281 -13.54464,1.58531 -7.53609,0.0498 -12.62548,-1.21326 -26.07317,-6.47067 -13.345169,-5.21734 -15.493459,-5.26637 -26.215178,-0.59826 -12.732284,5.54348 -18.977627,7.16321 -29.379706,7.61965 -7.783398,0.34153 -8.971177,0.24265 -9.853285,-0.82022 z"
       id="path1001"
       transform="matrix(0.26458333,0,0,0.26458333,132.68854,53.048962)" />
  </g>
</svg>
