<?xml version="1.0" encoding="UTF-8" standalone="no"?>
<svg
   xmlns:dc="http://purl.org/dc/elements/1.1/"
   xmlns:cc="http://creativecommons.org/ns#"
   xmlns:rdf="http://www.w3.org/1999/02/22-rdf-syntax-ns#"
   xmlns:svg="http://www.w3.org/2000/svg"
   xmlns="http://www.w3.org/2000/svg"
   xmlns:sodipodi="http://sodipodi.sourceforge.net/DTD/sodipodi-0.dtd"
   xmlns:inkscape="http://www.inkscape.org/namespaces/inkscape"
   width="51.064583mm"
   height="143.66875mm"
   viewBox="0 0 51.064583 143.66875"
   version="1.1"
   id="svg947"
   inkscape:version="1.0.2 (e86c870879, 2021-01-15, custom)"
   sodipodi:docname="back tricep muscles SVG.svg">
  <defs
     id="defs941">
    <inkscape:path-effect
       effect="bspline"
       id="path-effect969"
       is_visible="true"
       lpeversion="1"
       weight="33.333333"
       steps="2"
       helper_size="0"
       apply_no_weight="true"
       apply_with_weight="true"
       only_selected="false" />
    <inkscape:path-effect
       effect="bspline"
       id="path-effect965"
       is_visible="true"
       lpeversion="1"
       weight="33.333333"
       steps="2"
       helper_size="0"
       apply_no_weight="true"
       apply_with_weight="true"
       only_selected="false" />
  </defs>
  <sodipodi:namedview
     id="base"
     pagecolor="#ffffff"
     bordercolor="#666666"
     borderopacity="1.0"
     inkscape:pageopacity="0.0"
     inkscape:pageshadow="2"
     inkscape:zoom="2.8284271"
     inkscape:cx="148.63407"
     inkscape:cy="140.79873"
     inkscape:document-units="mm"
     inkscape:current-layer="layer1"
     inkscape:document-rotation="0"
     showgrid="false"
     inkscape:snap-global="false"
     inkscape:window-width="958"
     inkscape:window-height="991"
     inkscape:window-x="952"
     inkscape:window-y="0"
     inkscape:window-maximized="0" />
  <metadata
     id="metadata944">
    <rdf:RDF>
      <cc:Work
         rdf:about="">
        <dc:format>image/svg+xml</dc:format>
        <dc:type
           rdf:resource="http://purl.org/dc/dcmitype/StillImage" />
        <dc:title></dc:title>
      </cc:Work>
    </rdf:RDF>
  </metadata>
  <g
     inkscape:label="Layer 1"
     inkscape:groupmode="layer"
     id="layer1"
     transform="translate(-64.690628,-69.982292)">
    <path
       style="fill:none;stroke:#000000;stroke-width:0.264583px;stroke-linecap:butt;stroke-linejoin:miter;stroke-opacity:1"
       d="m 76.259013,104.07917 c -0.592379,0.23384 -1.777273,0.70156 -2.743956,1.23167 -0.966684,0.5301 -1.715022,1.12253 -2.245139,1.60588 -0.530118,0.48334 -0.841927,0.85751 -1.20053,1.82423 -0.358604,0.96672 -0.763954,2.52576 -0.966609,3.91338 -0.202656,1.38763 -0.202656,2.54132 -0.01551,3.71066 0.187143,1.16934 0.561313,2.32303 0.904387,3.07137 0.343074,0.74834 0.654882,1.09133 1.044661,1.26269 0.389779,0.17136 0.857491,0.17136 1.481025,-0.0937 0.623533,-0.26506 1.403052,-0.79514 1.886313,-1.26279 0.48326,-0.46765 0.670344,-0.873 0.950979,-1.49663 0.280635,-0.62363 0.654804,-1.46551 1.060168,-2.38538 0.405363,-0.91986 0.841896,-1.91765 1.169305,-2.61925 0.327409,-0.7016 0.545675,-1.10695 0.639255,-1.49662 0.09358,-0.38968 0.0624,-0.76385 -0.04672,-1.3407 -0.109112,-0.57685 -0.296197,-1.35637 -0.498874,-2.15151 -0.202677,-0.79513 -0.420942,-1.60583 -0.561284,-2.27625 -0.140343,-0.67042 -0.202704,-1.20049 -0.233902,-1.46568 -0.0312,-0.26519 -0.03119,-0.26519 -0.623572,-0.0314 z"
       id="path963" />
    <path
       style="fill:none;stroke:#000000;stroke-width:0.264583px;stroke-linecap:butt;stroke-linejoin:miter;stroke-opacity:1"
       d="m 104.02616,104.59392 c -0.51466,1.029 -0.79529,3.64825 -0.90436,5.05145 -0.10907,1.40319 -0.0467,1.59029 0.24955,2.22952 0.29625,0.63923 0.82632,1.73056 1.32524,2.6816 0.49892,0.95104 0.96663,1.76174 1.2316,2.4789 0.26497,0.71717 0.32734,1.34079 0.70164,1.96441 0.37431,0.62362 1.06028,1.24723 1.77747,1.60571 0.7172,0.35848 1.46554,0.45202 1.93309,0.35849 0.46755,-0.0935 0.65464,-0.37417 0.91968,-1.10688 0.26504,-0.73272 0.60803,-1.91759 0.84189,-2.71272 0.23387,-0.79514 0.35859,-1.20049 0.29629,-1.94879 -0.0623,-0.74829 -0.31175,-1.83962 -0.50983,-2.86932 -0.19808,-1.02971 -0.36322,-2.11964 -0.53468,-2.89917 -0.17147,-0.77953 -0.35856,-1.3096 -0.88856,-1.90211 -0.53,-0.5925 -1.40305,-1.24728 -2.19818,-1.73065 -0.79512,-0.48336 -1.51228,-0.79517 -2.24507,-1.23167 -0.73278,-0.4365 -1.48112,-0.99776 -1.99577,0.0312 z"
       id="path967"
       sodipodi:nodetypes="ccccccccccccccccc" />
    <path
       style="fill:#ffffff;stroke-width:0.249882"
       d="m 24.29263,191.01536 c -4.53794,-1.97358 -8.487623,-16.99547 -7.207504,-27.41244 0.972642,-7.91487 3.677165,-17.54776 5.811448,-20.69904 2.930114,-4.32632 10.856773,-9.40265 20.624025,-13.20787 l 1.836432,-0.71545 0.225844,1.66644 c 0.238367,1.75885 1.847042,8.8368 3.75368,16.51569 0.741823,2.98766 1.140621,5.46233 1.139514,7.07107 -0.0016,2.30463 -0.160544,2.81535 -2.310854,7.42462 -1.270033,2.72236 -4.021887,8.80633 -6.115233,13.51994 -2.740065,6.16983 -4.194914,9.01193 -5.194361,10.14736 -2.480546,2.81805 -8.332066,6.19036 -10.727803,6.18258 -0.388908,-0.001 -1.214743,-0.22307 -1.835188,-0.4929 z"
       id="path971"
       transform="matrix(0.26458333,0,0,0.26458333,64.690628,69.982292)" />
    <path
       style="fill:#ffffff;stroke-width:0.249882"
       d="m 168.86866,191.88087 c -1.84208,-0.38152 -5.15787,-2.12848 -6.70655,-3.53343 -2.26811,-2.0576 -3.59887,-4.21384 -4.53772,-7.3525 -0.5666,-1.8942 -2.97597,-7.19241 -6.28061,-13.81108 l -5.36136,-10.73798 0.0315,-4.46482 c 0.0429,-6.06785 1.04712,-13.58412 2.49843,-18.69945 0.61357,-2.16259 1.99367,-3.97337 3.02834,-3.97337 0.66918,0 5.30648,2.42059 12.10388,6.31801 3.37418,1.93465 7.33377,5.02339 9.13028,7.1222 2.21021,2.58214 2.25155,2.74524 6.49619,25.62744 0.71559,3.85765 0.46428,5.70344 -1.78261,13.09269 -2.09447,6.88799 -3.02089,9.31149 -3.80974,9.96617 -0.7203,0.5978 -3.03926,0.81287 -4.81007,0.44612 z"
       id="path973"
       transform="matrix(0.26458333,0,0,0.26458333,64.690628,69.982292)" />
  </g>
</svg>
