<?xml version="1.0" encoding="UTF-8" standalone="no"?>
<svg
   xmlns:dc="http://purl.org/dc/elements/1.1/"
   xmlns:cc="http://creativecommons.org/ns#"
   xmlns:rdf="http://www.w3.org/1999/02/22-rdf-syntax-ns#"
   xmlns:svg="http://www.w3.org/2000/svg"
   xmlns="http://www.w3.org/2000/svg"
   xmlns:sodipodi="http://sodipodi.sourceforge.net/DTD/sodipodi-0.dtd"
   xmlns:inkscape="http://www.inkscape.org/namespaces/inkscape"
   width="51.064583mm"
   height="143.66875mm"
   viewBox="0 0 51.064583 143.66875"
   version="1.1"
   id="svg1009"
   inkscape:version="1.0.2 (e86c870879, 2021-01-15, custom)"
   sodipodi:docname="back thigh (hamstring) muscles SVG.svg">
  <defs
     id="defs1003">
    <inkscape:path-effect
       effect="bspline"
       id="path-effect1592"
       is_visible="true"
       lpeversion="1"
       weight="33.333333"
       steps="2"
       helper_size="0"
       apply_no_weight="true"
       apply_with_weight="true"
       only_selected="false" />
    <inkscape:path-effect
       effect="bspline"
       id="path-effect1027"
       is_visible="true"
       lpeversion="1"
       weight="33.333333"
       steps="2"
       helper_size="0"
       apply_no_weight="true"
       apply_with_weight="true"
       only_selected="false" />
  </defs>
  <sodipodi:namedview
     id="base"
     pagecolor="#ffffff"
     bordercolor="#666666"
     borderopacity="1.0"
     inkscape:pageopacity="0.0"
     inkscape:pageshadow="2"
     inkscape:zoom="2"
     inkscape:cx="121.30338"
     inkscape:cy="278.13376"
     inkscape:document-units="mm"
     inkscape:current-layer="layer1"
     inkscape:document-rotation="0"
     showgrid="false"
     inkscape:snap-global="false"
     inkscape:window-width="958"
     inkscape:window-height="991"
     inkscape:window-x="952"
     inkscape:window-y="0"
     inkscape:window-maximized="0" />
  <metadata
     id="metadata1006">
    <rdf:RDF>
      <cc:Work
         rdf:about="">
        <dc:format>image/svg+xml</dc:format>
        <dc:type
           rdf:resource="http://purl.org/dc/dcmitype/StillImage" />
        <dc:title></dc:title>
      </cc:Work>
    </rdf:RDF>
  </metadata>
  <g
     inkscape:label="Layer 1"
     inkscape:groupmode="layer"
     id="layer1"
     transform="translate(-96.440628,-62.309376)">
    <path
       style="fill:none;stroke:#000000;stroke-width:0.264583px;stroke-linecap:butt;stroke-linejoin:miter;stroke-opacity:1"
       d="m 108.58949,141.97109 c -0.55133,0.28676 -0.59542,0.59544 -0.72771,1.94044 -0.13229,1.345 -0.35277,3.7262 -0.35274,5.75472 3e-5,2.02852 0.22051,3.70418 0.46304,6.39414 0.24253,2.68997 0.50711,6.39406 0.63939,8.46662 0.13228,2.07257 0.13228,2.51353 0.41889,2.18271 0.28661,-0.33082 0.85987,-1.43324 1.34512,-1.87417 0.48526,-0.44093 0.88213,-0.22044 1.67587,-0.0882 0.79374,0.13221 1.98434,0.1763 2.75601,0.46309 0.77167,0.28678 1.12444,0.81594 1.38897,1.41126 0.26452,0.59532 0.44091,1.25677 0.70542,1.16847 0.26452,-0.0883 0.61729,-0.92612 0.99213,-1.80808 0.37483,-0.88195 0.77169,-1.80798 1.05834,-3.30725 0.28665,-1.49926 0.46304,-3.57179 0.70557,-5.6003 0.24253,-2.0285 0.55121,-4.01284 0.79375,-5.95312 0.24254,-1.94029 0.41893,-3.83643 0.66145,-5.33578 0.24253,-1.49935 0.5512,-2.60175 0.68352,-3.77029 0.13232,-1.16854 0.0882,-2.40324 -0.19828,-3.02074 -0.28651,-0.6175 -0.81567,-0.6175 -1.32293,-0.3529 -0.50727,0.2646 -0.99232,0.79375 -1.60963,1.23469 -0.6173,0.44094 -1.36694,0.79371 -2.33711,1.32289 -0.97017,0.52918 -2.16075,1.23471 -3.04263,1.25692 -0.88187,0.0222 -1.45513,-0.63923 -2.27097,-0.83783 -0.81584,-0.1986 -1.87415,0.066 -2.42547,0.35274 z"
       id="path1025"
       sodipodi:nodetypes="cccccccccccccccccccccccc" />
    <path
       style="fill:none;stroke:#000000;stroke-width:0.264583px;stroke-linecap:butt;stroke-linejoin:miter;stroke-opacity:1"
       d="m 123.1857,139.67808 c -0.11033,1.12464 0.0661,3.2854 0.35272,5.22571 0.28666,1.94031 0.68353,3.66006 0.92604,5.33576 0.2425,1.6757 0.3307,3.30725 0.5071,5.26961 0.1764,1.96236 0.44098,4.25537 0.70559,5.93108 0.26461,1.67572 0.52918,2.73403 0.99227,3.81442 0.46308,1.08039 1.12452,2.18281 1.58742,2.38115 0.4629,0.19835 0.72748,-0.50719 1.71977,-1.279 0.99228,-0.77181 2.71204,-1.60964 3.7704,-1.56535 1.05835,0.0443 1.45521,0.97031 1.71981,1.56563 0.26459,0.59531 0.39688,0.85989 0.485,0.24249 0.0881,-0.61741 0.13221,-2.11669 0.15426,-3.616 0.0221,-1.49932 0.0221,-2.99859 0.17638,-4.71843 0.15432,-1.71984 0.463,-3.66008 0.6394,-5.42396 0.1764,-1.76388 0.2205,-3.35135 0.17641,-4.9609 -0.0441,-1.60955 -0.17637,-3.24112 -0.221,-4.33683 -0.0446,-1.09571 4.9e-4,-1.68245 -0.52854,-1.99125 -0.52903,-0.3088 -1.63144,-0.35289 -2.33715,-0.17648 -0.70571,0.1764 -1.01438,0.57326 -1.34497,0.77168 -0.33059,0.19842 -0.68336,0.19842 -1.01406,0.11032 -0.33071,-0.0881 -0.63938,-0.26449 -1.21266,-0.50706 -0.57327,-0.24257 -1.4111,-0.55124 -2.2269,-0.92605 -0.81581,-0.3748 -1.60955,-0.81576 -2.29307,-1.23467 -0.68351,-0.41891 -1.25676,-0.81578 -1.74189,-0.97025 -0.48514,-0.15446 -0.882,-0.0663 -0.99233,1.05838 z"
       id="path1590" />
    <path
       style="opacity:0.554098;fill:#ffffff;stroke-width:0.353386"
       d="m 75.818501,395.06359 c -2.458036,-5.93046 -4.454645,-7.05248 -15.120594,-8.49725 -4.895633,-0.66314 -6.641223,-0.73069 -7.599476,-0.29408 -0.684198,0.31174 -2.248663,2.06441 -3.476589,3.89482 l -2.232591,3.32801 -0.278916,-2.68066 c -0.153403,-1.47437 -0.400326,-4.59317 -0.548718,-6.93067 -0.502164,-7.9102 -2.271168,-30.20532 -3.015105,-38 -0.40682,-4.2625 -0.74045,-11.70159 -0.7414,-16.5313 -0.0018,-9.13554 1.201533,-24.47997 2.04306,-26.05238 0.766139,-1.43154 3.398976,-2.52695 6.712944,-2.79297 2.693536,-0.21621 3.445623,-0.0557 6.388907,1.36386 5.439669,2.6235 7.040374,2.39493 16.254741,-2.32112 4.208259,-2.15385 9.694815,-5.43484 12.192346,-7.29109 6.94647,-5.16285 8.36465,-4.57662 8.76943,3.625 0.158475,3.21108 -0.110315,5.90006 -1.099565,11 -0.720125,3.7125 -2.0696,12.7125 -2.998832,20 -0.929231,7.2875 -2.154782,16.7375 -2.723447,21 -0.568664,4.2625 -1.603109,12.5875 -2.298766,18.5 -1.408895,11.97442 -2.449124,16.97665 -4.718172,22.68865 -1.50486,3.78826 -3.893904,8.81135 -4.190789,8.81135 -0.08226,0 -0.675574,-1.26908 -1.318468,-2.82017 z"
       id="path1594"
       transform="matrix(0.26458333,0,0,0.26458333,96.440628,62.309376)" />
    <path
       style="opacity:0.554098;fill:#ffffff;stroke-width:0.353386"
       d="m 119.06742,395.80926 c -1.60275,-1.90476 -4.0671,-6.69654 -5.32651,-10.35708 -2.00223,-5.81958 -3.98348,-19.58771 -5.69396,-39.56842 -0.94715,-11.06398 -1.30535,-13.74827 -3.26933,-24.5 -2.80925,-15.37916 -3.76486,-28.19747 -2.31106,-31 0.94593,-1.82349 2.19339,-1.47221 8.80186,2.47861 7.15084,4.27507 20.47654,10.02086 23.24119,10.02117 1.3545,1.6e-4 2.73516,-0.49962 4.48857,-1.62478 2.33316,-1.49718 2.8566,-1.625 6.65489,-1.625 6.12504,0 5.97032,-0.27706 6.69176,11.9838 0.8071,13.71689 0.35249,28.08359 -1.28207,40.5162 -1.14561,8.71365 -2.00945,24.02385 -2.24279,39.75 l -0.026,1.75 -1.53032,-2.6686 c -2.75182,-4.79866 -7.04777,-5.52021 -14.15429,-2.37737 -3.2955,1.45742 -8.31828,4.9151 -10.52455,7.24508 -0.8077,0.85299 -1.63145,1.55089 -1.83055,1.55089 -0.19911,0 -0.9582,-0.70853 -1.68687,-1.5745 z"
       id="path1596"
       transform="matrix(0.26458333,0,0,0.26458333,96.440628,62.309376)" />
  </g>
</svg>
