<?xml version="1.0" encoding="UTF-8" standalone="no"?>
<svg
   xmlns:dc="http://purl.org/dc/elements/1.1/"
   xmlns:cc="http://creativecommons.org/ns#"
   xmlns:rdf="http://www.w3.org/1999/02/22-rdf-syntax-ns#"
   xmlns:svg="http://www.w3.org/2000/svg"
   xmlns="http://www.w3.org/2000/svg"
   xmlns:sodipodi="http://sodipodi.sourceforge.net/DTD/sodipodi-0.dtd"
   xmlns:inkscape="http://www.inkscape.org/namespaces/inkscape"
   width="42.275799mm"
   height="11.792693mm"
   viewBox="0 0 42.275799 11.792693"
   version="1.1"
   id="svg873"
   inkscape:version="1.0.2 (e86c870879, 2021-01-15, custom)"
   sodipodi:docname="back shoulder muscles SVG.svg">
  <defs
     id="defs867">
    <inkscape:path-effect
       effect="bspline"
       id="path-effect903"
       is_visible="true"
       lpeversion="1"
       weight="33.333333"
       steps="2"
       helper_size="0"
       apply_no_weight="true"
       apply_with_weight="true"
       only_selected="false" />
    <inkscape:path-effect
       effect="bspline"
       id="path-effect899"
       is_visible="true"
       lpeversion="1"
       weight="33.333333"
       steps="2"
       helper_size="0"
       apply_no_weight="true"
       apply_with_weight="true"
       only_selected="false" />
  </defs>
  <sodipodi:namedview
     id="base"
     pagecolor="#ffffff"
     bordercolor="#666666"
     borderopacity="1.0"
     inkscape:pageopacity="0.0"
     inkscape:pageshadow="2"
     inkscape:zoom="4"
     inkscape:cx="93.341814"
     inkscape:cy="-27.759787"
     inkscape:document-units="mm"
     inkscape:current-layer="layer1"
     inkscape:document-rotation="0"
     showgrid="false"
     inkscape:snap-global="false"
     inkscape:window-width="1920"
     inkscape:window-height="1001"
     inkscape:window-x="-9"
     inkscape:window-y="-9"
     inkscape:window-maximized="1" />
  <metadata
     id="metadata870">
    <rdf:RDF>
      <cc:Work
         rdf:about="">
        <dc:format>image/svg+xml</dc:format>
        <dc:type
           rdf:resource="http://purl.org/dc/dcmitype/StillImage" />
        <dc:title />
      </cc:Work>
    </rdf:RDF>
  </metadata>
  <g
     inkscape:label="Layer 1"
     inkscape:groupmode="layer"
     id="layer1"
     transform="translate(-65.364451,-109.07263)">
    <path
       style="fill:none;stroke:#000000;stroke-width:0.264583px;stroke-linecap:butt;stroke-linejoin:miter;stroke-opacity:1"
       d="m 69.552559,109.27293 c -0.694624,0.15428 -1.620668,0.5732 -2.216066,1.33401 -0.595398,0.76081 -0.859976,1.86322 -1.146614,2.95463 -0.286638,1.09141 -0.595313,2.17177 -0.672437,3.31837 -0.07712,1.1466 0.07721,2.35925 0.220624,3.05378 0.143409,0.69453 0.2757,0.87092 0.826827,0.56207 0.551126,-0.30885 1.521244,-1.10258 2.491453,-1.67586 0.97021,-0.57329 1.94033,-0.92606 2.722995,-1.36701 0.782664,-0.44096 1.377967,-0.97012 1.785836,-1.65354 0.407869,-0.68341 0.628351,-1.52124 0.507183,-2.3921 -0.121167,-0.87087 -0.584177,-1.77484 -1.124308,-2.4584 -0.540131,-0.68356 -1.157478,-1.14657 -1.697668,-1.43328 -0.540189,-0.28671 -1.003201,-0.39695 -1.697825,-0.24267 z"
       id="path897" />
    <path
       style="fill:none;stroke:#000000;stroke-width:0.264583px;stroke-linecap:butt;stroke-linejoin:miter;stroke-opacity:1"
       d="m 103.32003,109.26197 c 0.79382,0.0994 1.52142,0.58441 2.07255,1.29004 0.55113,0.70562 0.92595,1.63165 1.23461,2.56872 0.30866,0.93707 0.55119,1.88514 0.70541,2.72199 0.15422,0.83685 0.22055,1.56642 0.14278,2.40667 -0.0778,0.84024 -0.29713,1.78345 -0.57256,2.20232 -0.27543,0.41888 -0.60615,0.30864 -1.00304,0.0662 -0.3969,-0.24248 -0.85991,-0.6173 -1.36702,-0.95908 -0.50711,-0.34179 -1.05832,-0.65047 -1.65363,-0.95916 -0.59532,-0.30869 -1.23471,-0.61737 -1.74183,-0.85991 -0.50713,-0.24253 -0.88194,-0.41892 -1.31195,-0.8488 -0.430006,-0.42988 -0.915069,-1.11337 -1.179749,-1.76382 -0.26468,-0.65045 -0.308777,-1.2678 -0.253688,-1.86317 0.05509,-0.59536 0.209426,-1.16861 0.628391,-1.75301 0.418965,-0.58439 1.102456,-1.17969 1.874236,-1.62069 0.77178,-0.44099 1.63166,-0.72762 2.42549,-0.62827 z"
       id="path901" />
    <path
       style="fill:none;stroke-width:0.176693"
       d="m 21.003604,138.99797 c -0.735223,-1.75964 -1.197655,-5.65311 -1.204308,-10.13975 -0.0074,-4.97971 0.304211,-6.8246 2.593464,-15.35527 1.995499,-7.43603 3.083033,-9.80297 5.504438,-11.98002 2.233375,-2.008 6.168915,-3.66471 8.705565,-3.66471 3.214239,0 8.299872,3.58133 11.120915,7.83141 4.363667,6.57415 4.189845,13.21443 -0.48103,18.37591 -1.949368,2.15412 -3.546094,3.17333 -10.084216,6.43688 -4.328919,2.1608 -6.577374,3.46849 -9.644877,5.60939 -3.591168,2.50638 -5.578041,3.74641 -6.002797,3.74641 -0.08124,0 -0.309463,-0.38711 -0.507154,-0.86025 z"
       id="path905"
       transform="matrix(0.26458333,0,0,0.26458333,60.457291,83.476044)" />
    <path
       style="fill:none;stroke-width:0.176693"
       d="m 170.45397,138.24281 c -4.84905,-3.36212 -7.11376,-4.69052 -12.94041,-7.59041 -6.58933,-3.27946 -7.65171,-3.98112 -9.48508,-6.26457 -4.31717,-5.377 -5.26409,-11.02932 -2.72728,-16.27961 1.80412,-3.73389 7.07727,-7.9492 11.78003,-9.416866 1.72893,-0.539573 2.40473,-0.626773 4.125,-0.532262 2.86764,0.157546 4.49532,0.96169 6.94721,3.432218 1.58267,1.5947 2.12081,2.37061 3.31038,4.77308 2.23837,4.52063 4.3496,11.53753 5.31412,17.66199 0.90458,5.74391 -0.11485,13.39933 -2.08328,15.64434 -0.6671,0.76084 -1.47749,0.48797 -4.24069,-1.42791 z"
       id="path907"
       transform="matrix(0.26458333,0,0,0.26458333,60.457291,83.476044)" />
  </g>
</svg>
