<?xml version="1.0" encoding="UTF-8" standalone="no"?>
<svg
   xmlns:dc="http://purl.org/dc/elements/1.1/"
   xmlns:cc="http://creativecommons.org/ns#"
   xmlns:rdf="http://www.w3.org/1999/02/22-rdf-syntax-ns#"
   xmlns:svg="http://www.w3.org/2000/svg"
   xmlns="http://www.w3.org/2000/svg"
   xmlns:sodipodi="http://sodipodi.sourceforge.net/DTD/sodipodi-0.dtd"
   xmlns:inkscape="http://www.inkscape.org/namespaces/inkscape"
   width="26.938431mm"
   height="40.88966mm"
   viewBox="0 0 26.938431 40.889661"
   version="1.1"
   id="svg915"
   inkscape:version="1.0.2 (e86c870879, 2021-01-15, custom)"
   sodipodi:docname="back musle SVG.svg">
  <defs
     id="defs909">
    <inkscape:path-effect
       effect="bspline"
       id="path-effect937"
       is_visible="true"
       lpeversion="1"
       weight="33.333333"
       steps="2"
       helper_size="0"
       apply_no_weight="true"
       apply_with_weight="true"
       only_selected="false" />
  </defs>
  <sodipodi:namedview
     id="base"
     pagecolor="#ffffff"
     bordercolor="#666666"
     borderopacity="1.0"
     inkscape:pageopacity="0.0"
     inkscape:pageshadow="2"
     inkscape:zoom="2"
     inkscape:cx="51.491518"
     inkscape:cy="57.656465"
     inkscape:document-units="mm"
     inkscape:current-layer="layer1"
     inkscape:document-rotation="0"
     showgrid="false"
     inkscape:snap-global="false"
     inkscape:window-width="1920"
     inkscape:window-height="1001"
     inkscape:window-x="-9"
     inkscape:window-y="-9"
     inkscape:window-maximized="1" />
  <metadata
     id="metadata912">
    <rdf:RDF>
      <cc:Work
         rdf:about="">
        <dc:format>image/svg+xml</dc:format>
        <dc:type
           rdf:resource="http://purl.org/dc/dcmitype/StillImage" />
        <dc:title />
      </cc:Work>
    </rdf:RDF>
  </metadata>
  <g
     inkscape:label="Layer 1"
     inkscape:groupmode="layer"
     id="layer1"
     transform="translate(-103.60039,-102.26629)">
    <path
       style="fill:none;stroke:#000000;stroke-width:0.264583px;stroke-linecap:butt;stroke-linejoin:miter;stroke-opacity:1"
       d="m 103.87101,116.65646 c 0.18712,1.07592 0.5613,3.22744 0.85752,4.91125 0.29623,1.68381 0.51449,2.89986 0.85755,3.94445 0.34306,1.04459 0.81077,1.91766 1.09134,2.72837 0.28057,0.81072 0.37411,1.55906 0.42087,2.44772 0.0467,0.88867 0.0467,1.91764 0.0156,2.89986 -0.0312,0.98221 -0.0935,1.91763 -0.29626,2.79066 -0.2027,0.87304 -0.54569,1.68374 -0.78269,2.40029 -0.237,0.71655 -0.35543,1.27913 -0.41778,1.80925 -0.0623,0.53012 -0.0623,0.87311 0.0157,1.32527 0.078,0.45216 0.23391,0.95105 0.57692,1.07559 0.34301,0.12454 0.87309,-0.12491 1.59031,-0.34317 0.71723,-0.21826 1.62148,-0.40535 2.22955,-0.49888 0.60807,-0.0935 0.91988,-0.0935 3.21176,-0.0935 2.29188,0 6.56365,0 9.12055,0.078 2.55691,0.078 3.39879,0.23389 4.08479,0.46782 0.68601,0.23393 1.21608,0.54574 1.52773,0.21835 0.31164,-0.32739 0.40518,-1.294 0.34289,-2.08909 -0.0623,-0.79508 -0.28057,-1.4187 -0.53,-2.01116 -0.24943,-0.59246 -0.53005,-1.15371 -0.67045,-2.0736 -0.14039,-0.91989 -0.14039,-2.19831 -0.14039,-3.49235 0,-1.29404 0,-2.60364 0.21825,-3.77302 0.21824,-1.16938 0.65477,-2.19834 1.06014,-3.35205 0.40536,-1.15371 0.77953,-2.43212 1.06017,-3.53906 0.28064,-1.10693 0.46773,-2.04235 0.67041,-3.13371 0.20268,-1.09136 0.42095,-2.33859 0.42104,-3.18044 1e-4,-0.84186 -0.21816,-1.27839 -0.43645,-1.74612 -0.21828,-0.46773 -0.43655,-0.96661 -0.60808,-1.48112 -0.17153,-0.5145 -0.29625,-1.04457 -0.21228,-1.99771 0.084,-0.95313 0.41481,-2.50812 0.33701,-3.24098 -0.0778,-0.73286 -0.54552,-0.73286 -1.1068,-0.71728 -0.56127,0.0156 -1.21607,0.0467 -1.94882,-1e-5 -0.73276,-0.0468 -1.54346,-0.17148 -2.55686,-0.32739 -1.01341,-0.1559 -2.22945,-0.34299 -3.36764,-1.27831 -1.13819,-0.93533 -2.19832,-2.61907 -3.11831,-2.93102 -0.91998,-0.31196 -1.69949,0.74816 -2.55696,1.60563 -0.85746,0.85747 -1.79289,1.51228 -2.55677,1.91763 -0.76388,0.40535 -1.35631,0.56125 -2.07347,0.68599 -0.71716,0.12474 -1.55904,0.21829 -2.36978,0.32742 -0.81073,0.10913 -1.59025,0.23385 -2.15147,0.23393 -0.56122,7e-5 -0.90421,-0.12465 -1.07586,0.20283 -0.17166,0.32749 -0.17166,1.10701 -0.0151,1.84099 0.15651,0.73397 0.46725,1.41759 0.54511,2.08794 0.0778,0.67034 -0.0781,1.32515 -0.35869,2.02668 -0.28063,0.70154 -0.68598,1.44988 -0.88864,1.82401 -0.20265,0.37413 -0.20265,0.37417 -0.0155,1.45008 z"
       id="path935"
       sodipodi:nodetypes="sccccccccccccccccccccccccccccccccccccccccccccs" />
    <path
       style="fill:#ffffff;stroke-width:0.353386"
       d="m 56.667677,230.81402 c -0.310487,-0.37412 -0.794143,-1.70483 -1.074791,-2.95713 -0.688356,-3.07158 0.0071,-7.21039 2.467146,-14.68219 2.497256,-7.58486 2.969828,-10.97547 2.982121,-21.39608 0.01163,-9.85931 -0.629696,-13.63699 -3.468536,-20.43113 -1.079576,-2.58373 -2.422497,-6.37959 -2.984268,-8.43524 -1.121076,-4.10228 -6.037292,-31.40498 -6.037292,-33.5287 0,-0.72873 1.045341,-3.53169 2.322979,-6.22881 2.925149,-6.17505 3.329829,-9.68022 1.735624,-15.03326 -1.303146,-4.37572 -1.787002,-7.71869 -1.362179,-9.411325 0.301281,-1.2004 0.519444,-1.285454 3.297157,-1.285454 4.546504,0 20.163908,-2.379587 23.028891,-3.508858 4.001913,-1.577407 7.87791,-4.289057 12.477528,-8.729288 7.96237,-7.686457 7.77156,-7.689086 15.446743,0.21288 4.73519,4.875109 6.40141,6.252644 9.05326,7.484734 4.26527,1.981711 14.20851,3.632996 22,3.653566 7.80334,0.0206 7.7183,-0.04118 7.31879,5.317245 -0.17714,2.37585 -0.51719,5.92279 -0.75566,7.8821 -0.56678,4.65666 -0.0356,7.73107 2.25747,13.06419 2.37084,5.51419 2.57294,8.15691 1.2289,16.06989 -1.78905,10.53294 -3.50554,17.39705 -7.0778,28.30354 -1.89151,5.775 -3.67502,11.5125 -3.96336,12.75 -0.84678,3.63431 -1.20896,19.63354 -0.57483,25.39355 0.41661,3.78423 1.04819,6.36093 2.38986,9.75 1.52723,3.85783 1.85889,5.37841 2.04076,9.35645 0.1664,3.63951 0.0474,4.97607 -0.50903,5.71697 -0.71576,0.95308 -0.7808,0.95076 -4.52743,-0.16149 -5.82666,-1.72974 -11.34436,-2.03132 -38.489958,-2.10371 l -25.087715,-0.0669 -5.75,1.53159 c -3.1625,0.84237 -6.215717,1.67142 -6.784928,1.84233 -0.607519,0.18241 -1.268068,0.0298 -1.599452,-0.36946 z"
       id="path939"
       transform="matrix(0.26458333,0,0,0.26458333,91.148956,81.623962)" />
  </g>
</svg>
