<?xml version="1.0" encoding="UTF-8" standalone="no"?>
<svg
   xmlns:dc="http://purl.org/dc/elements/1.1/"
   xmlns:cc="http://creativecommons.org/ns#"
   xmlns:rdf="http://www.w3.org/1999/02/22-rdf-syntax-ns#"
   xmlns:svg="http://www.w3.org/2000/svg"
   xmlns="http://www.w3.org/2000/svg"
   xmlns:sodipodi="http://sodipodi.sourceforge.net/DTD/sodipodi-0.dtd"
   xmlns:inkscape="http://www.inkscape.org/namespaces/inkscape"
   width="51.064583mm"
   height="143.66875mm"
   viewBox="0 0 51.064583 143.66875"
   version="1.1"
   id="svg8"
   inkscape:version="1.0.2 (e86c870879, 2021-01-15, custom)"
   sodipodi:docname="back full body.svg">
  <defs
     id="defs2">
    <inkscape:path-effect
       effect="bspline"
       id="path-effect849"
       is_visible="true"
       lpeversion="1"
       weight="33.333333"
       steps="2"
       helper_size="0"
       apply_no_weight="true"
       apply_with_weight="true"
       only_selected="false" />
  </defs>
  <sodipodi:namedview
     id="base"
     pagecolor="#ffffff"
     bordercolor="#666666"
     borderopacity="1.0"
     inkscape:pageopacity="0.0"
     inkscape:pageshadow="2"
     inkscape:zoom="2.8284271"
     inkscape:cx="175.94265"
     inkscape:cy="34.865206"
     inkscape:document-units="mm"
     inkscape:current-layer="layer1"
     inkscape:document-rotation="0"
     showgrid="false"
     inkscape:snap-global="false"
     inkscape:window-width="1920"
     inkscape:window-height="1001"
     inkscape:window-x="-9"
     inkscape:window-y="-9"
     inkscape:window-maximized="1" />
  <metadata
     id="metadata5">
    <rdf:RDF>
      <cc:Work
         rdf:about="">
        <dc:format>image/svg+xml</dc:format>
        <dc:type
           rdf:resource="http://purl.org/dc/dcmitype/StillImage" />
        <dc:title></dc:title>
      </cc:Work>
    </rdf:RDF>
  </metadata>
  <g
     inkscape:label="Layer 1"
     inkscape:groupmode="layer"
     id="layer1"
     transform="translate(-51.46146,-84.534378)">
    <path
       style="fill:none;stroke:#000000;stroke-width:0.264583px;stroke-linecap:butt;stroke-linejoin:miter;stroke-opacity:1"
       d="m 71.932061,90.8955 c 0.07793,-0.467614 0.233842,-1.403058 0.420926,-2.073523 0.187083,-0.670465 0.405349,-1.075816 0.77959,-1.450065 0.37424,-0.374249 0.904314,-0.717238 1.465662,-0.935505 0.561348,-0.218267 1.153784,-0.31181 1.668295,-0.374164 0.514512,-0.06235 0.951044,-0.09353 1.621482,-0.03113 0.670439,0.0624 1.574684,0.218305 2.369795,0.654961 0.795112,0.436656 1.481091,1.153816 1.964308,2.182835 0.483218,1.029019 0.763845,2.369794 0.90413,3.274039 0.140284,0.904246 0.140284,1.371959 0.265048,1.52771 0.124764,0.155751 0.374211,-1.53e-4 0.592526,0.109166 0.218316,0.10932 0.405401,0.48349 0.498866,0.966782 0.09347,0.483292 0.09347,1.075727 -0.02341,1.505387 -0.116872,0.429659 -0.319685,0.661446 -0.506793,0.957723 -0.187109,0.296277 -0.343013,0.639266 -0.514433,0.857451 -0.17142,0.218185 -0.358505,0.311727 -0.545537,0.233946 -0.187033,-0.07778 -0.374118,-0.327228 -0.467773,-0.249286 -0.09366,0.07794 -0.09366,0.483292 -0.109256,0.873052 -0.0156,0.389761 -0.04678,0.763931 -0.124744,1.044472 -0.07796,0.280543 -0.20269,0.467633 -0.280632,0.779543 -0.07794,0.31191 -0.109121,0.74844 -0.03108,1.15384 0.07804,0.40539 0.265128,0.77956 0.654979,1.15369 0.38985,0.37412 0.982285,0.74829 1.605925,1.07567 0.62364,0.32738 1.278437,0.608 2.011209,0.91982 0.732773,0.31182 1.543473,0.6548 2.447739,1.15374 0.904265,0.49895 1.902053,1.15375 2.634813,1.66826 0.732761,0.51452 1.20047,0.88868 1.621432,1.20049 0.420962,0.3118 0.795135,0.56125 1.294051,0.82626 0.498916,0.26501 1.122531,0.54564 1.668154,1.02904 0.545623,0.4834 1.013336,1.16938 1.403052,2.02689 0.389716,0.8575 0.701525,1.88647 0.966562,2.82192 0.265037,0.93545 0.483301,1.77733 0.498827,2.5724 0.01553,0.79507 -0.17156,1.54341 -0.343061,2.18263 -0.171502,0.63922 -0.327407,1.1693 -0.238915,1.86694 0.08849,0.69765 0.379405,1.45402 0.628827,2.3427 0.249422,0.88867 0.436506,1.85527 0.530021,2.71274 0.09351,0.85748 0.09351,1.54346 0.09351,2.1515 0,0.60805 0,1.10694 0.171606,1.60587 0.171607,0.49893 0.514597,0.99782 0.826367,1.62146 0.31177,0.62364 0.5924,1.37199 0.74824,2.12033 0.15585,0.74834 0.18701,1.49668 0.20259,2.12031 0.0156,0.62362 0.0156,1.12252 0.14037,1.69941 0.12479,0.57689 0.37423,1.23169 0.5145,1.91766 0.14027,0.68598 0.17147,1.40314 0.14028,2.30739 -0.0312,0.90426 -0.12473,1.99559 -0.21828,2.79071 -0.0936,0.79512 -0.1871,1.294 -0.23386,1.8709 -0.0468,0.57689 -0.0468,1.23168 -0.0468,2.08918 0,0.85751 0,1.91765 -0.0312,2.96223 -0.0312,1.04458 -0.0936,2.07355 -0.10914,3.28966 -0.0156,1.2161 0.0156,2.61924 -0.0468,4.24067 -0.0624,1.62144 -0.21828,3.46111 -0.31182,4.64601 -0.0935,1.1849 -0.1247,1.71498 -0.23922,2.22727 -0.11453,0.51229 -0.29086,0.95312 -0.47795,1.40525 -0.18709,0.45213 -0.37418,0.88867 -0.576859,1.3252 -0.20268,0.43653 -0.420945,0.87306 -0.607857,1.07573 -0.186912,0.20266 -0.342821,0.1715 -0.420925,0.0469 -0.0781,-0.12462 -0.0781,-0.34289 -0.187175,-0.40541 -0.109071,-0.0625 -0.32734,0.031 -0.498814,-0.0312 -0.171474,-0.0622 -0.296199,-0.28045 -0.374212,-0.46754 -0.07801,-0.1871 -0.109195,-0.343 -0.2027,-0.59245 -0.09351,-0.24945 -0.24941,-0.59244 -0.327436,-0.91987 -0.07803,-0.32744 -0.07803,-0.63925 0.03109,-0.98234 0.109113,-0.34308 0.327378,-0.71725 0.623683,-0.99796 0.296304,-0.2807 0.670478,-0.46779 0.873094,-0.76387 0.202616,-0.29608 0.233796,-0.70143 0.311733,-1.02891 0.07794,-0.32747 0.202662,-0.57692 0.155992,-0.91981 -0.04667,-0.3429 -0.264936,-0.77943 -0.483208,-1.21597 -0.218272,-0.43655 -0.436536,-0.87308 -0.623586,-1.18491 -0.187049,-0.31183 -0.342956,-0.49892 -0.514443,-0.5926 -0.171487,-0.0937 -0.358571,-0.0937 -0.499039,0.18705 -0.140468,0.28075 -0.234011,0.84201 -0.343153,1.3409 -0.109143,0.49888 -0.233865,0.93541 -0.405298,1.21594 -0.171433,0.28052 -0.389697,0.40524 -0.607881,0.46763 -0.218184,0.0624 -0.436449,0.0624 -0.608053,-0.28046 -0.171604,-0.34285 -0.296327,-1.02883 -0.374305,-1.80839 -0.07798,-0.77956 -0.10916,-1.65263 -0.09359,-2.36983 0.01557,-0.71719 0.07793,-1.27845 0.374169,-1.85542 0.296234,-0.57697 0.826311,-1.16941 1.184883,-1.83973 0.358572,-0.67033 0.545657,-1.41867 0.608051,-2.29171 0.06239,-0.87304 3.2e-5,-1.87082 -0.249359,-2.83744 -0.249391,-0.96662 -0.685925,-1.90204 -1.04453,-2.75954 -0.358606,-0.8575 -0.639233,-1.63702 -0.888696,-2.38538 -0.249464,-0.74837 -0.467727,-1.46552 -0.623667,-2.24508 -0.15594,-0.77955 -0.249482,-1.62143 -0.29627,-2.32304 -0.04679,-0.7016 -0.04679,-1.26286 0.03114,-1.79299 0.07793,-0.53014 0.233834,-1.02904 0.09367,-1.49672 -0.140162,-0.46767 -0.576693,-0.9042 -0.779513,-1.40312 -0.20282,-0.49892 -0.171641,-1.06017 -0.156044,-1.57466 0.0156,-0.51449 0.0156,-0.9822 -0.06232,-1.51227 -0.07791,-0.53007 -0.233816,-1.1225 -0.389713,-1.65259 -0.155897,-0.53009 -0.3118,-0.9978 -0.561217,-1.52789 -0.249417,-0.53009 -0.592409,-1.12253 -0.841907,-1.6838 -0.249497,-0.56127 -0.4054,-1.09134 -0.608026,-1.54348 -0.202626,-0.45214 -0.452071,-0.82631 -0.701655,-0.63929 -0.249584,0.18702 -0.49903,0.93536 -0.795257,1.6837 -0.296227,0.74834 -0.639218,1.49668 -0.888664,2.27627 -0.249445,0.77959 -0.405349,1.59029 -0.530071,2.32307 -0.124722,0.73278 -0.218264,1.38758 -0.218235,2.24511 2.9e-5,0.85753 0.09357,1.91768 0.140332,2.86871 0.04676,0.95103 0.04676,1.79292 0.233945,2.52571 0.187186,0.7328 0.561352,1.35641 0.826337,2.02682 0.264984,0.6704 0.420888,1.38756 0.452016,2.01115 0.03113,0.62359 -0.06241,1.15366 -0.171545,1.49657 -0.109132,0.3429 -0.233854,0.49881 -0.155829,0.98227 0.07802,0.48346 0.358652,1.29416 0.576891,2.21402 0.21824,0.91985 0.374144,1.94881 0.452075,2.88425 0.07793,0.93544 0.07793,1.77732 0.140329,2.49452 0.0624,0.7172 0.18712,1.30964 0.389804,2.21391 0.202684,0.90427 0.483313,2.12033 0.786713,3.47857 0.3034,1.35823 0.600855,2.72652 0.772325,4.0985 0.171469,1.37199 0.202652,2.68158 0.218241,3.86648 0.01559,1.1849 0.01559,2.24505 -6e-6,3.67941 -0.01559,1.43437 -0.04678,3.24286 -0.09355,4.87989 -0.04678,1.63704 -0.109138,3.10254 -0.218282,4.49011 -0.109145,1.38758 -0.265049,2.69717 -0.389775,3.80412 -0.124726,1.10696 -0.218268,2.0112 -0.249433,2.93108 -0.03117,0.91988 1.4e-5,1.85531 0.233942,2.83756 0.233927,0.98225 0.67046,2.01122 0.997824,3.19611 0.327363,1.1849 0.54563,2.52568 0.639146,3.96001 0.09352,1.43434 0.06233,2.9622 -0.171552,4.64599 -0.233887,1.68379 -0.670416,3.52345 -0.997517,5.22073 -0.327101,1.69728 -0.545967,3.2606 -0.526651,4.55377 0.01932,1.29316 0.261427,2.26161 0.526491,3.15029 0.265064,0.88868 0.545691,1.6682 0.701562,2.1671 0.15587,0.49889 0.187049,0.71715 0.561364,1.06011 0.374315,0.34295 1.091479,0.81066 1.683929,1.20043 0.592451,0.38978 1.060163,0.70159 1.380971,0.87481 0.320809,0.17321 0.458728,0.20078 0.692572,0.21634 0.233843,0.0156 0.545651,0.0156 0.795037,0.24958 0.249385,0.23402 0.436469,0.70174 0.409101,1.00449 -0.02737,0.30276 -0.222124,0.41405 -0.440331,0.49202 -0.218208,0.078 -0.436459,0.10917 -0.592504,0.34316 -0.156045,0.23398 -0.249587,0.67051 -0.420992,0.93543 -0.171405,0.26492 -0.420854,0.35846 -0.841817,0.52996 -0.420963,0.1715 -1.0134,0.42095 -1.683801,0.686 -0.670401,0.26504 -1.418742,0.54567 -2.026843,0.87309 -0.6081,0.32742 -1.075806,0.70159 -1.621372,0.8887 -0.545567,0.1871 -1.169182,0.1871 -1.823972,0.0624 -0.65479,-0.12467 -1.34077,-0.37412 -1.870895,-0.71704 -0.530125,-0.34291 -0.904295,-0.77944 -1.106673,-1.55901 -0.202378,-0.77957 -0.234403,-1.96441 -0.07852,-2.97788 0.155879,-1.01348 0.498867,-1.88654 0.748322,-2.52576 0.249454,-0.63922 0.405358,-1.04457 0.358759,-1.34076 -0.0466,-0.29618 -0.296048,-0.48327 -0.436497,-0.73269 -0.140449,-0.24943 -0.171628,-0.56124 -0.109295,-1.2005 0.06233,-0.63927 0.218236,-1.60587 0.296207,-2.44775 0.07797,-0.84188 0.07797,-1.55904 5e-5,-2.2762 -0.07792,-0.71716 -0.233825,-1.43432 -0.467667,-2.24504 -0.233843,-0.81072 -0.545653,-1.71497 -0.841881,-2.58805 -0.296228,-0.87309 -0.576858,-1.71498 -0.919838,-2.58807 -0.342981,-0.87308 -0.74833,-1.77733 -1.075749,-2.55687 -0.327419,-0.77955 -0.576863,-1.43434 -0.748397,-2.0268 -0.171534,-0.59246 -0.265076,-1.12253 -0.233938,-1.83976 0.03114,-0.71723 0.187042,-1.62147 0.405306,-2.41665 0.218264,-0.79517 0.498893,-1.48115 0.701575,-2.02681 0.202682,-0.54567 0.327405,-0.95102 0.171603,-1.55899 -0.155801,-0.60797 -0.592332,-1.41867 -1.028871,-2.19821 -0.43654,-0.77955 -0.873072,-1.52789 -1.184958,-2.60367 -0.311886,-1.07578 -0.498971,-2.47892 -0.623713,-4.24071 -0.124743,-1.76178 -0.187105,-3.88207 -0.389765,-5.92446 -0.20266,-2.04239 -0.545649,-4.00678 -0.858088,-5.67806 -0.312438,-1.67128 -0.591814,-3.03712 -0.825658,-4.01933 -0.233843,-0.98222 -0.420929,-1.57466 -0.670301,-1.87104 -0.249372,-0.29638 -0.561181,-0.29638 -0.87315,0.54564 -0.311968,0.84201 -0.623778,2.52578 -0.892655,4.27149 -0.268877,1.74571 -0.479466,3.43043 -0.744513,5.42607 -0.265047,1.99563 -0.576855,4.24065 -0.873081,6.45456 -0.296226,2.2139 -0.576853,4.39655 -0.997817,5.95556 -0.420965,1.55901 -0.982218,2.49443 -1.309621,3.21168 -0.327402,0.71724 -0.420944,1.21613 -0.218185,2.18283 0.202759,0.96669 0.701653,2.40101 0.919859,3.61706 0.218206,1.21605 0.155844,2.21384 -0.155995,3.42988 -0.31184,1.21604 -0.873092,2.65035 -1.465546,4.06911 -0.592454,1.41876 -1.216072,2.8219 -1.621426,3.99125 -0.405355,1.16936 -0.592439,2.10478 -0.654774,3.19618 -0.06234,1.0914 2.7e-5,2.33863 0.09359,3.32087 0.09356,0.98224 0.218289,1.6994 0.180497,2.2414 -0.03779,0.542 -0.211765,0.86095 -0.320879,1.37553 -0.109115,0.51458 -0.140294,1.20056 -0.03109,1.90218 0.109199,0.70162 0.358646,1.41878 0.467721,2.44775 0.109076,1.02897 0.07789,2.36975 -0.358591,3.22709 -0.436485,0.85733 -1.278366,1.2315 -2.104593,1.34069 -0.826227,0.1092 -1.636926,-0.0467 -2.400877,-0.35846 -0.763951,-0.31175 -1.481109,-0.77946 -2.120332,-1.09133 -0.639222,-0.31187 -1.200478,-0.46778 -1.73057,-0.70159 -0.530092,-0.23381 -1.028986,-0.54562 -1.449936,-0.81066 -0.420951,-0.26505 -0.763943,-0.48331 -0.982288,-0.68593 -0.218346,-0.20262 -0.311891,-0.38971 -0.530106,-0.63919 -0.218215,-0.24949 -0.561199,-0.5613 -0.639312,-0.85762 -0.07811,-0.29632 0.108975,-0.57695 0.358551,-0.7485 0.249576,-0.17155 0.561384,-0.23391 0.997866,-0.43659 0.436482,-0.20269 0.997736,-0.54568 1.465453,-0.8419 0.467718,-0.29623 0.841889,-0.54568 1.262851,-0.81072 0.420963,-0.26505 0.888678,-0.54568 1.21602,-1.01329 0.327342,-0.46762 0.514427,-1.12242 0.763881,-2.0111 0.249454,-0.88868 0.561263,-2.01119 0.640967,-3.2586 0.0797,-1.2474 -0.07962,-2.68134 -0.266704,-4.03774 -0.187082,-1.3564 -0.405347,-2.66599 -0.639197,-3.8353 -0.233851,-1.16931 -0.483298,-2.19828 -0.608062,-3.13376 -0.124763,-0.93547 -0.124763,-1.77735 -0.04682,-2.77519 0.07794,-0.99784 0.233844,-2.15153 0.452109,-3.30527 0.218265,-1.15375 0.498893,-2.30744 0.810706,-3.25851 0.311813,-0.95108 0.654803,-1.69942 0.826328,-2.49448 0.171526,-0.79506 0.171526,-1.63695 0.078,-2.66593 -0.09352,-1.02899 -0.280608,-2.24504 -0.45211,-3.42994 -0.171502,-1.18491 -0.327407,-2.3386 -0.483318,-3.58587 -0.155912,-1.24727 -0.311817,-2.58805 -0.467727,-3.99123 -0.15591,-1.40319 -0.311814,-2.86869 -0.327429,-4.39661 -0.01561,-1.52793 0.109109,-3.11815 0.232518,-4.63058 0.123409,-1.51243 0.250767,-3.00888 0.578165,-4.78628 0.327398,-1.77739 0.857471,-3.8665 1.231651,-5.39439 0.374181,-1.5279 0.592447,-2.49451 0.701604,-3.63261 0.109157,-1.1381 0.109157,-2.4477 0.265042,-3.58588 0.155884,-1.13818 0.467691,-2.10478 0.514518,-3.13371 0.04683,-1.02893 -0.171438,-2.12026 -0.07795,-3.19611 0.09349,-1.07585 0.498842,-2.136 0.81073,-2.72855 0.311887,-0.59254 0.530151,-0.71726 0.639243,-1.21602 0.109092,-0.49875 0.109092,-1.37182 0.109092,-2.33846 0,-0.96663 0,-2.02678 0,-2.8375 0,-0.81072 0,-1.37198 -0.155835,-1.98 -0.155835,-0.60802 -0.46764,-1.26281 -0.717136,-2.01118 -0.249495,-0.74837 -0.43658,-1.59025 -0.639231,-2.27624 -0.20265,-0.686 -0.420915,-1.21607 -0.732795,-1.29418 -0.311879,-0.0781 -0.717231,0.29605 -1.138217,0.91975 -0.420987,0.6237 -0.857518,1.49676 -1.185975,2.34262 -0.328458,0.84585 -0.544615,1.64873 -0.669322,2.41272 -0.124708,0.76399 -0.155887,1.48115 -0.171471,2.22951 -0.01559,0.74837 -0.01559,1.52789 -0.155927,2.15143 -0.140342,0.62354 -0.420969,1.09125 -0.498881,1.85532 -0.07791,0.76407 0.04681,1.82421 -0.124737,3.02464 -0.171546,1.20043 -0.639261,2.54121 -1.075804,3.86644 -0.436544,1.32523 -0.841893,2.63482 -1.247256,3.91327 -0.405363,1.27845 -0.810712,2.52568 -0.950978,3.53916 -0.140265,1.01347 -0.01554,1.79299 0.296358,2.54136 0.3119,0.74836 0.810794,1.46552 1.091333,2.26064 0.280538,0.79513 0.3429,1.66819 0.374071,2.71277 0.03117,1.04458 0.03117,2.19827 -0.06235,2.85293 -0.09352,0.65466 -0.2806,0.77938 -0.467618,0.7016 -0.187018,-0.0778 -0.374104,-0.35841 -0.561237,-0.74818 -0.187133,-0.38977 -0.374217,-0.88866 -0.530137,-1.34079 -0.15592,-0.45214 -0.280644,-0.85749 -0.405261,-1.09143 -0.124616,-0.23394 -0.249339,-0.2963 -0.452203,-0.0937 -0.202864,0.20264 -0.483495,0.67036 -0.701768,1.15372 -0.218274,0.48336 -0.374177,0.98225 -0.483306,1.40323 -0.109129,0.42098 -0.171491,0.76396 -0.109057,1.23174 0.06243,0.46778 0.24952,1.06022 0.498789,1.49259 0.24927,0.43237 0.436905,0.59655 0.639501,0.92399 0.202595,0.32744 0.358502,0.76398 0.389605,1.23165 0.0311,0.46767 -0.06244,0.96656 -0.144066,1.35541 -0.08163,0.38885 -0.13665,0.60894 -0.244751,0.7528 -0.1081,0.14386 -0.203481,0.1677 -0.34376,0.1833 -0.140279,0.0156 -0.296183,0.0156 -0.452252,0.18717 -0.156068,0.17156 -0.311972,0.51455 -0.576915,0.29637 -0.264942,-0.21818 -0.639111,-0.9977 -0.88856,-1.51219 -0.249449,-0.5145 -0.374173,-0.76395 -0.483364,-1.16932 -0.109191,-0.40537 -0.202733,-0.96662 -0.249531,-1.43437 -0.0468,-0.46774 -0.0468,-0.84191 -0.140328,-1.93327 -0.09353,-1.09136 -0.280617,-2.89985 -0.374176,-4.58367 -0.09356,-1.68382 -0.09356,-3.24287 -0.124733,-4.5369 -0.03117,-1.29404 -0.09353,-2.323 -0.1559,-3.60145 -0.06237,-1.27846 -0.124729,-2.80632 -0.21826,-4.03799 -0.09353,-1.23167 -0.218255,-2.16709 -0.280637,-3.0402 -0.06238,-0.8731 -0.06238,-1.6838 -0.01562,-2.5569 0.04676,-0.87311 0.140304,-1.80853 0.327391,-2.46344 0.187088,-0.65491 0.467716,-1.02908 0.530111,-1.83969 0.0624,-0.8106 -0.09351,-2.05783 -0.04678,-2.99336 0.04673,-0.93553 0.296177,-1.55915 0.654778,-2.19842 0.358601,-0.63926 0.826315,-1.29406 1.106959,-2.47887 0.280644,-1.18482 0.374186,-2.89977 0.592441,-4.28739 0.218254,-1.38763 0.56124,-2.44777 0.785134,-3.04777 0.223894,-0.59999 0.306213,-0.70975 0.181536,-1.50476 -0.124677,-0.79501 -0.467666,-2.26051 -0.530085,-3.46106 -0.06242,-1.20055 0.155846,-2.13597 0.452069,-3.19617 0.296223,-1.06019 0.670392,-2.24506 1.138164,-3.05588 0.467772,-0.81083 1.029026,-1.24736 1.46564,-1.51241 0.436614,-0.26506 0.748417,-0.3586 1.060134,-0.60801 0.311717,-0.24941 0.623524,-0.65476 0.965552,-0.90821 0.342029,-0.25346 0.655989,-0.33909 1.37313,-0.68209 0.71714,-0.343 1.808471,-0.93543 2.853071,-1.46553 1.044599,-0.53009 2.042384,-0.9978 2.884292,-1.38757 0.841907,-0.38977 1.527886,-0.70158 2.167071,-1.09134 0.639184,-0.38976 1.23162,-0.85747 1.621346,-1.40305 0.389726,-0.54558 0.576812,-1.1692 0.561348,-1.63686 -0.01546,-0.46766 -0.233726,-0.77946 -0.389715,-1.21601 -0.155989,-0.436547 -0.249532,-0.997801 -0.280751,-1.418788 -0.03122,-0.420987 -4.1e-5,-0.701614 -0.07797,-0.764102 -0.07793,-0.06249 -0.265015,0.09342 -0.576724,-0.07794 -0.311709,-0.171351 -0.74824,-0.670245 -1.013391,-1.371832 -0.265151,-0.701588 -0.358694,-1.605832 -0.233965,-2.198438 0.124728,-0.592606 0.467717,-0.873234 0.748461,-0.88867 0.280743,-0.01544 0.499009,0.23401 0.608022,0.09368 0.109012,-0.14033 0.109012,-0.670404 0.109012,-1.091357 0,-0.420952 0,-0.732761 0,-0.888801 0,-0.156039 2e-5,-0.156053 0.07796,-0.623667 z"
       id="path847" />
  </g>
</svg>
