<?xml version="1.0" encoding="UTF-8" standalone="no"?>
<svg
   xmlns:dc="http://purl.org/dc/elements/1.1/"
   xmlns:cc="http://creativecommons.org/ns#"
   xmlns:rdf="http://www.w3.org/1999/02/22-rdf-syntax-ns#"
   xmlns:svg="http://www.w3.org/2000/svg"
   xmlns="http://www.w3.org/2000/svg"
   xmlns:sodipodi="http://sodipodi.sourceforge.net/DTD/sodipodi-0.dtd"
   xmlns:inkscape="http://www.inkscape.org/namespaces/inkscape"
   width="51.064583mm"
   height="143.66875mm"
   viewBox="0 0 51.064583 143.66875"
   version="1.1"
   id="svg2808"
   inkscape:version="1.0.2 (e86c870879, 2021-01-15, custom)"
   sodipodi:docname="back calf muscles SVG.svg">
  <defs
     id="defs2802">
    <inkscape:path-effect
       effect="bspline"
       id="path-effect2834"
       is_visible="true"
       lpeversion="1"
       weight="33.333333"
       steps="2"
       helper_size="0"
       apply_no_weight="true"
       apply_with_weight="true"
       only_selected="false" />
    <inkscape:path-effect
       effect="bspline"
       id="path-effect2830"
       is_visible="true"
       lpeversion="1"
       weight="33.333333"
       steps="2"
       helper_size="0"
       apply_no_weight="true"
       apply_with_weight="true"
       only_selected="false" />
  </defs>
  <sodipodi:namedview
     id="base"
     pagecolor="#ffffff"
     bordercolor="#666666"
     borderopacity="1.0"
     inkscape:pageopacity="0.0"
     inkscape:pageshadow="2"
     inkscape:zoom="4"
     inkscape:cx="91.091557"
     inkscape:cy="440.44336"
     inkscape:document-units="mm"
     inkscape:current-layer="layer1"
     inkscape:document-rotation="0"
     showgrid="false"
     inkscape:snap-global="false"
     inkscape:window-width="1920"
     inkscape:window-height="1001"
     inkscape:window-x="-9"
     inkscape:window-y="-9"
     inkscape:window-maximized="1" />
  <metadata
     id="metadata2805">
    <rdf:RDF>
      <cc:Work
         rdf:about="">
        <dc:format>image/svg+xml</dc:format>
        <dc:type
           rdf:resource="http://purl.org/dc/dcmitype/StillImage" />
        <dc:title></dc:title>
      </cc:Work>
    </rdf:RDF>
  </metadata>
  <g
     inkscape:label="Layer 1"
     inkscape:groupmode="layer"
     id="layer1"
     transform="translate(-82.417709,-92.471878)">
    <path
       style="fill:none;stroke:#000000;stroke-width:0.264583px;stroke-linecap:butt;stroke-linejoin:miter;stroke-opacity:1"
       d="m 97.421926,194.31451 c -0.915199,-0.19847 -1.113635,0.11021 -1.326242,0.62743 -0.212607,0.51722 -0.426811,1.20267 -0.757546,2.07358 -0.330735,0.87091 -0.771697,1.90718 -1.146528,2.80016 -0.37483,0.89298 -0.683506,1.64262 -0.926032,2.55768 -0.242526,0.91507 -0.418911,1.99543 -0.462979,3.10893 -0.04407,1.11351 0.04412,2.26001 0.167045,3.35118 0.12292,1.09117 0.273978,2.08384 0.461396,3.25243 0.187418,1.1686 0.4079,2.49149 0.585613,3.704 0.177713,1.21252 0.307342,2.27116 0.57207,2.89947 0.264728,0.62831 0.661597,0.8047 1.323028,0.85974 0.66143,0.055 1.587452,-0.0111 2.259949,-0.0442 0.672497,-0.0331 1.091412,-0.0331 1.33212,-0.44098 0.240707,-0.40791 0.310224,-1.31163 0.5307,-2.1275 0.22047,-0.81588 0.59529,-1.58757 0.92602,-2.41437 0.33073,-0.8268 0.61736,-1.70873 0.93127,-2.61886 0.31391,-0.91012 0.67827,-1.91211 1.00901,-2.80508 0.33073,-0.89298 0.63941,-1.70877 0.81581,-2.49145 0.17641,-0.78268 0.22051,-1.53232 0.0883,-2.31502 -0.13222,-0.7827 -0.4409,-1.59848 -0.7055,-2.38121 -0.2646,-0.78274 -0.48508,-1.53238 -0.66149,-2.23794 -0.1764,-0.70557 -0.30869,-1.36702 -0.44153,-1.9868 -0.13285,-0.61978 -0.26402,-1.1882 -1.14586,-1.8277 -0.881842,-0.6395 -2.513405,-1.34505 -3.428604,-1.54352 z"
       id="path2828" />
    <path
       style="fill:none;stroke:#000000;stroke-width:0.264583px;stroke-linecap:butt;stroke-linejoin:miter;stroke-opacity:1"
       d="m 116.18519,196.07835 c 0.871,-0.63951 2.43645,-1.38916 3.30745,-1.67563 0.871,-0.28648 1.04738,-0.11009 1.28984,0.5073 0.24245,0.6174 0.55112,1.67571 0.95905,2.78918 0.40793,1.11347 0.91503,2.28203 1.31187,3.5388 0.39685,1.25678 0.68347,2.60172 0.77163,4.12306 0.0881,1.52134 -0.0221,3.21905 -0.17644,4.65221 -0.15436,1.43315 -0.35279,2.6017 -0.55123,3.67106 -0.19845,1.06937 -0.39688,2.03949 -0.55122,2.99863 -0.15433,0.95914 -0.26457,1.90721 -0.83772,2.42522 -0.57314,0.51802 -1.60939,0.60621 -2.46928,0.65032 -0.85989,0.0441 -1.54339,0.0441 -1.92936,-0.34161 -0.38596,-0.38571 -0.47415,-1.15739 -0.58439,-1.91807 -0.11023,-0.76068 -0.24252,-1.51032 -0.45194,-2.20485 -0.20942,-0.69453 -0.49605,-1.33393 -0.81575,-2.01744 -0.3197,-0.68352 -0.67248,-1.41111 -0.98118,-2.12769 -0.3087,-0.71659 -0.57327,-1.42213 -0.80479,-2.05052 -0.23152,-0.62839 -0.42995,-1.1796 -0.59533,-1.70877 -0.16538,-0.52917 -0.29767,-1.03628 -0.32102,-1.66486 -0.0234,-0.62858 0.0673,-1.42202 0.22277,-2.14196 0.15543,-0.71993 0.37371,-1.37476 0.60522,-1.98111 0.23151,-0.60636 0.47404,-1.15757 0.70556,-1.78594 0.23151,-0.62838 0.45199,-1.33392 0.65043,-1.95129 0.19844,-0.61737 0.37483,-1.14652 1.24583,-1.78604 z"
       id="path2832" />
    <path
       style="opacity:0.554098;fill:#ffffff;stroke-width:0.176693"
       d="m 51.341557,479.70691 c -0.1375,-0.0546 -0.789122,-0.17193 -1.448049,-0.26079 -2.139759,-0.28856 -3.238266,-1.70399 -4.054058,-5.22368 -0.330319,-1.42515 -2.269934,-13.60428 -4.244855,-26.65408 -2.19494,-14.50363 -2.250687,-22.63652 -0.212491,-31 0.809505,-3.3217 1.675768,-5.70911 4.721513,-13.01241 1.344705,-3.22442 3.377495,-8.39384 4.517311,-11.48759 2.638564,-7.16173 2.791742,-7.31227 6.480604,-6.36898 5.284846,1.35139 12.371805,5.10233 14.343265,7.5915 1.13576,1.43402 1.41248,2.24981 2.66089,7.84449 1.3007,5.82901 1.546843,6.7099 3.858275,13.80799 1.997548,6.13418 2.502595,8.37162 2.502595,11.08684 0,3.81325 -0.670062,6.34595 -4.3754,16.53816 -1.274685,3.50625 -3.074922,8.56875 -4.000532,11.25 -0.92561,2.68125 -2.574223,7.08627 -3.663588,9.78893 -1.089362,2.70266 -2.24572,6.02141 -2.56968,7.375 -0.323962,1.35359 -0.82447,3.46981 -1.11224,4.70272 -0.650047,2.78502 -1.107338,3.3082 -3.164893,3.62088 -1.600094,0.24316 -9.824772,0.5653 -10.238667,0.40102 z"
       id="path3397"
       transform="matrix(0.26458333,0,0,0.26458333,82.417709,92.471878)" />
    <path
       style="opacity:0.554098;fill:#ffffff;stroke-width:0.176693"
       d="m 134.09402,480.19989 c -2.28714,-0.61366 -2.93605,-1.9717 -3.86624,-8.09136 -1.06105,-6.98058 -1.91342,-9.62798 -5.77817,-17.94651 -2.82738,-6.08567 -3.24783,-7.0801 -5.21898,-12.34366 -4.2887,-11.45211 -4.66255,-14.00315 -3.13306,-21.37892 0.68402,-3.29858 1.23121,-4.97717 3.62261,-11.1129 0.98855,-2.53637 2.36246,-6.36019 3.05313,-8.49738 0.69068,-2.13719 1.4747,-4.31886 1.74227,-4.84816 1.2074,-2.38839 4.60284,-4.97984 9.99092,-7.6252 3.56264,-1.74914 7.51516,-3.14056 8.33598,-2.93455 0.86821,0.21791 1.26515,1.03449 3.00297,6.17767 0.8872,2.62572 2.8523,8.06317 4.36688,12.08322 2.92203,7.75573 4.3609,12.77404 5.16426,18.01122 0.36217,2.36102 0.45963,4.43771 0.4576,9.75 -0.004,9.66597 -0.77715,16.48293 -3.4889,30.75 -0.47042,2.475 -1.13889,6.14727 -1.48547,8.16061 -0.80357,4.66794 -1.39436,6.28199 -2.79768,7.64331 -1.33488,1.29491 -3.32152,1.94652 -7.05957,2.31551 -3.37055,0.33272 -5.36945,0.30005 -6.90855,-0.1129 z"
       id="path3399"
       transform="matrix(0.26458333,0,0,0.26458333,82.417709,92.471878)" />
  </g>
</svg>
