<?xml version="1.0" encoding="UTF-8" standalone="no"?>
<svg
   xmlns:dc="http://purl.org/dc/elements/1.1/"
   xmlns:cc="http://creativecommons.org/ns#"
   xmlns:rdf="http://www.w3.org/1999/02/22-rdf-syntax-ns#"
   xmlns:svg="http://www.w3.org/2000/svg"
   xmlns="http://www.w3.org/2000/svg"
   xmlns:sodipodi="http://sodipodi.sourceforge.net/DTD/sodipodi-0.dtd"
   xmlns:inkscape="http://www.inkscape.org/namespaces/inkscape"
   width="51.064583mm"
   height="143.66875mm"
   viewBox="0 0 51.064583 143.66875"
   version="1.1"
   id="svg2213"
   inkscape:version="1.0.2 (e86c870879, 2021-01-15, custom)"
   sodipodi:docname="back forearm muscles SVG.svg">
  <defs
     id="defs2207">
    <inkscape:path-effect
       effect="bspline"
       id="path-effect2796"
       is_visible="true"
       lpeversion="1"
       weight="33.333333"
       steps="2"
       helper_size="0"
       apply_no_weight="true"
       apply_with_weight="true"
       only_selected="false" />
    <inkscape:path-effect
       effect="bspline"
       id="path-effect2792"
       is_visible="true"
       lpeversion="1"
       weight="33.333333"
       steps="2"
       helper_size="0"
       apply_no_weight="true"
       apply_with_weight="true"
       only_selected="false" />
  </defs>
  <sodipodi:namedview
     id="base"
     pagecolor="#ffffff"
     bordercolor="#666666"
     borderopacity="1.0"
     inkscape:pageopacity="0.0"
     inkscape:pageshadow="2"
     inkscape:zoom="2"
     inkscape:cx="183.3753"
     inkscape:cy="175.18484"
     inkscape:document-units="mm"
     inkscape:current-layer="layer1"
     inkscape:document-rotation="0"
     showgrid="false"
     inkscape:snap-global="false"
     inkscape:window-width="958"
     inkscape:window-height="991"
     inkscape:window-x="952"
     inkscape:window-y="0"
     inkscape:window-maximized="0" />
  <metadata
     id="metadata2210">
    <rdf:RDF>
      <cc:Work
         rdf:about="">
        <dc:format>image/svg+xml</dc:format>
        <dc:type
           rdf:resource="http://purl.org/dc/dcmitype/StillImage" />
        <dc:title></dc:title>
      </cc:Work>
    </rdf:RDF>
  </metadata>
  <g
     inkscape:label="Layer 1"
     inkscape:groupmode="layer"
     id="layer1"
     transform="translate(-66.278122,-60.192711)">
    <path
       style="fill:none;stroke:#000000;stroke-width:0.264583px;stroke-linecap:butt;stroke-linejoin:miter;stroke-opacity:1"
       d="m 70.489498,107.77375 c 0.418963,0.52935 0.94813,1.80817 1.433296,2.55774 0.485166,0.74958 0.926133,0.97006 1.499308,0.92586 0.573175,-0.0442 1.278716,-0.35289 1.818764,-0.71795 0.540049,-0.36506 0.870922,-0.7373 1.047318,-0.38438 0.176396,0.35291 0.176396,1.45532 0.08907,2.12284 -0.08733,0.66753 -0.177282,0.78746 -0.300767,1.0477 -0.123485,0.26023 -0.185218,0.44543 -0.14107,1.15107 0.04415,0.70563 0.220534,1.85214 0.154337,2.97657 -0.0662,1.12443 -0.374872,2.22684 -0.793804,3.39541 -0.418933,1.16856 -0.948086,2.40325 -1.389061,3.54981 -0.440975,1.14655 -0.793745,2.20486 -0.992165,3.04276 -0.198421,0.8379 -0.242518,1.45525 -0.220436,2.05059 0.02208,0.59534 0.110272,1.16859 -0.661359,1.58736 -0.771632,0.41876 -2.403196,0.68334 -3.219103,0.3307 -0.815907,-0.35264 -0.815907,-1.32276 -0.83795,-2.27085 -0.02204,-0.9481 -0.06614,-1.87412 -0.110238,-2.97656 -0.0441,-1.10245 -0.0882,-2.38124 -0.154337,-3.59392 -0.06614,-1.21268 -0.154333,-2.35919 -0.198441,-3.37345 -0.04411,-1.01425 -0.04411,-1.89617 0.154307,-2.7341 0.198415,-0.83794 0.595284,-1.63168 0.74966,-2.57969 0.154376,-0.94801 0.06618,-2.05042 0.1916,-3.08916 0.125417,-1.03874 0.491869,-2.09229 0.822654,-2.70975 0.330784,-0.61746 0.639458,-0.83794 1.058422,-0.3086 z"
       id="path2790" />
    <path
       style="fill:none;stroke:#000000;stroke-width:0.264583px;stroke-linecap:butt;stroke-linejoin:miter;stroke-opacity:1"
       d="m 108.14858,109.89054 c -0.28677,0.35279 -0.24267,1.58751 -0.0441,2.46948 0.19854,0.88196 0.55131,1.41112 0.66142,1.85202 0.11011,0.44089 -0.0222,0.79366 -0.15415,1.51871 -0.13196,0.72504 -0.26488,1.83267 -0.0788,2.81938 0.18606,0.9867 0.652,1.79151 1.13705,2.84985 0.48504,1.05835 0.9701,2.33714 1.32285,3.57187 0.35274,1.23473 0.57322,2.42533 0.68344,3.4616 0.11021,1.03628 0.11021,1.91821 0.83799,2.55753 0.72778,0.63933 2.18296,1.03619 2.95449,0.94806 0.77152,-0.0881 0.85971,-0.66139 0.90383,-1.58742 0.0441,-0.92603 0.0441,-2.20483 0.0882,-3.59391 0.0441,-1.38909 0.13229,-2.88837 0.19844,-4.21129 0.0662,-1.32292 0.11024,-2.46943 0.0662,-3.5498 -0.0441,-1.08037 -0.17637,-2.09459 -0.35271,-2.86628 -0.17635,-0.77169 -0.39683,-1.30086 -0.48585,-2.18287 -0.089,-0.88201 -0.0434,-2.20485 -0.26382,-3.32931 -0.2204,-1.12446 -0.70546,-2.09458 -1.00692,-2.73671 -0.30145,-0.64213 -0.44824,-1.03356 -0.66881,-0.85726 -0.22058,0.1763 -0.52925,0.88184 -0.77179,1.56538 -0.24253,0.68355 -0.41892,1.34499 -0.72752,1.78584 -0.30861,0.44086 -0.74957,0.66134 -1.23454,0.66143 -0.48496,1e-4 -1.01412,-0.22038 -1.58741,-0.59516 -0.5733,-0.37478 -1.19064,-0.90393 -1.47741,-0.55114 z"
       id="path2794" />
    <path
       style="opacity:0.586885;fill:#ffffff;stroke-width:0.353386"
       d="M 9.8752993,268.28783 C 7.705047,267.1901 7.4287488,265.76064 6.8999127,252.89436 6.6238998,246.17912 6.1250196,235.47087 5.79129,229.09824 5.1336907,216.54127 5.2262939,215.44685 7.6192418,207.4949 c 0.9007145,-2.99315 1.3915999,-6.20655 1.7185731,-11.25 0.2996484,-4.62198 0.8139471,-8.1824 1.4892761,-10.31006 1.30769,-4.11995 2.785557,-6.56941 3.742145,-6.20233 0.396732,0.15224 1.563659,1.89129 2.593172,3.86456 4.626221,8.86709 6.619335,10.75344 10.614231,10.04568 2.003074,-0.35488 6.366406,-2.35282 7.638031,-3.4974 1.624407,-1.46212 1.960629,-0.85239 1.960629,3.55555 0,2.77631 -0.276512,4.91522 -0.791823,6.125 -0.662287,1.55483 -0.73599,3.09529 -0.450525,9.41637 0.469295,10.39164 -0.01564,12.60647 -6.28227,28.69257 -4.663011,11.9697 -5.990899,16.7245 -6.340036,22.70194 -0.223276,3.82262 -0.493464,5.15618 -1.18474,5.84745 -2.048514,2.04852 -9.758356,3.16537 -12.4506057,1.8036 z"
       id="path2798"
       transform="matrix(0.26458333,0,0,0.26458333,66.278122,60.192711)" />
    <path
       style="opacity:0.586885;fill:#ffffff;stroke-width:0.353386"
       d="m 181.56664,269.96037 c -2.77548,-0.66259 -6.15839,-2.57488 -7.23852,-4.09179 -0.64399,-0.9044 -1.24759,-2.8818 -1.55131,-5.08208 -1.79957,-13.03699 -3.81384,-20.17539 -8.91714,-31.60166 -2.76563,-6.19225 -3.15505,-7.45725 -3.37469,-10.9625 -0.13656,-2.17937 0.037,-6.11792 0.38567,-8.75235 l 0.63396,-4.78986 -1.56466,-4.55699 c -1.12088,-3.26452 -1.56248,-5.46194 -1.55699,-7.74765 0.0108,-4.50054 0.30203,-4.75559 3.27117,-2.86475 5.73734,3.65371 8.83348,4.25485 11.77223,2.28569 1.33865,-0.89699 2.04733,-2.03684 3.3418,-5.375 0.90358,-2.33012 2.10924,-5.24909 2.67924,-6.48659 l 1.03638,-2.25 1.44044,2.84863 c 2.83447,5.60548 3.95853,9.97702 4.4899,17.4616 0.31706,4.46588 0.9873,8.95021 1.84597,12.35074 1.27211,5.03784 1.3477,5.98778 1.33995,16.83903 -0.005,6.325 -0.26724,18.09832 -0.58383,26.16294 -0.65376,16.65311 -0.76543,17.12547 -4.02744,17.03588 -1.02491,-0.0282 -2.56487,-0.21863 -3.42213,-0.42329 z"
       id="path2800"
       transform="matrix(0.26458333,0,0,0.26458333,66.278122,60.192711)" />
  </g>
</svg>
