<?xml version="1.0" encoding="UTF-8" standalone="no"?>
<svg
   xmlns:dc="http://purl.org/dc/elements/1.1/"
   xmlns:cc="http://creativecommons.org/ns#"
   xmlns:rdf="http://www.w3.org/1999/02/22-rdf-syntax-ns#"
   xmlns:svg="http://www.w3.org/2000/svg"
   xmlns="http://www.w3.org/2000/svg"
   xmlns:sodipodi="http://sodipodi.sourceforge.net/DTD/sodipodi-0.dtd"
   xmlns:inkscape="http://www.inkscape.org/namespaces/inkscape"
   width="210mm"
   height="297mm"
   viewBox="0 0 210 297"
   version="1.1"
   id="svg8"
   inkscape:version="1.0.2 (e86c870879, 2021-01-15, custom)"
   sodipodi:docname="abs3.svg">
  <defs
     id="defs2">
    <inkscape:path-effect
       effect="bspline"
       id="path-effect26"
       is_visible="true"
       lpeversion="1"
       weight="33.333333"
       steps="2"
       helper_size="0"
       apply_no_weight="true"
       apply_with_weight="true"
       only_selected="false" />
  </defs>
  <sodipodi:namedview
     id="base"
     pagecolor="#ffffff"
     bordercolor="#666666"
     borderopacity="1.0"
     inkscape:pageopacity="0.0"
     inkscape:pageshadow="2"
     inkscape:zoom="1.1759859"
     inkscape:cx="447.93449"
     inkscape:cy="472.88695"
     inkscape:document-units="mm"
     inkscape:current-layer="layer1"
     inkscape:document-rotation="0"
     showgrid="false"
     inkscape:window-width="1431"
     inkscape:window-height="1019"
     inkscape:window-x="224"
     inkscape:window-y="0"
     inkscape:window-maximized="0" />
  <metadata
     id="metadata5">
    <rdf:RDF>
      <cc:Work
         rdf:about="">
        <dc:format>image/svg+xml</dc:format>
        <dc:type
           rdf:resource="http://purl.org/dc/dcmitype/StillImage" />
        <dc:title></dc:title>
      </cc:Work>
    </rdf:RDF>
  </metadata>
  <g
     inkscape:label="Layer 1"
     inkscape:groupmode="layer"
     id="layer1"
	 transform="translate(50,-10)">
    <path
       style="fill:none;stroke:#000000;stroke-width:0.398988px;stroke-linecap:butt;stroke-linejoin:miter;stroke-opacity:1"
       d="m 76.177769,68.559228 c 0.623255,-0.09304 1.869395,-0.279073 2.556954,-0.372062 0.687559,-0.09299 0.816472,-0.09299 1.031352,1.77e-4 0.214879,0.09316 0.515664,0.279192 0.859398,0.558291 0.343735,0.2791 0.73046,0.651154 1.074237,0.967398 0.343777,0.316244 0.644564,0.576681 0.90216,0.557908 0.257597,-0.01877 0.472443,-0.316414 0.70878,-0.651267 0.236337,-0.334853 0.494157,-0.706908 0.859497,-1.041834 0.365341,-0.334926 0.838008,-0.63257 1.405383,-0.853023 0.567374,-0.220454 1.280548,-0.374831 1.967991,-0.653891 0.687444,-0.27906 1.374957,-0.688319 1.912163,-0.94876 0.537206,-0.260442 0.923935,-0.372058 1.267768,-0.427824 0.343833,-0.05577 0.644621,-0.05577 0.902365,0.130501 0.257744,0.186266 0.472593,0.558322 1.052701,0.576641 0.580107,0.01832 1.525438,-0.31653 2.148615,-0.465277 0.623177,-0.148747 0.923964,-0.111539 1.24626,-0.01844 0.322297,0.0931 0.666053,0.241918 1.074096,0.336691 0.408042,0.09477 0.795088,0.128284 1.396705,0.314405 0.601617,0.186121 1.375066,0.520969 1.958046,0.730824 0.58299,0.209855 0.878,0.273714 1.17874,0.459908 0.30074,0.186194 0.55856,0.483837 0.75187,0.744295 0.19332,0.260459 0.32223,0.483701 0.47263,0.744148 0.1504,0.260446 0.32228,0.55809 0.55864,0.669436 0.23637,0.111346 0.53716,0.03693 0.94526,-0.2049 0.4081,-0.241836 0.92374,-0.651097 1.31048,-0.96735 0.38673,-0.316254 0.64453,-0.539478 1.07444,-0.613833 0.42992,-0.07436 1.03151,5.7e-5 1.6116,0.07447 0.5801,0.07441 1.1387,0.148824 1.61138,0.204624 0.47268,0.0558 0.85941,0.093 1.13856,0.409466 0.27914,0.316462 0.45102,0.911746 0.60719,1.412043 0.15617,0.500297 0.27356,0.839133 0.33794,1.155343 0.0644,0.316209 0.0644,0.576648 -0.21497,1.283457 -0.27935,0.706809 -0.83795,1.860173 -1.2032,2.697356 -0.36526,0.837184 -0.53714,1.358061 -0.65942,1.744451 -0.12228,0.38639 -0.13548,0.432157 -0.19986,0.54363 -0.0644,0.111472 -0.15034,0.185896 -0.23633,0.818613 -0.086,0.632717 -0.17192,1.823279 -0.1934,2.809284 -0.0215,0.986005 0.0215,1.767315 0.0859,2.678873 0.0644,0.911559 0.15039,1.953315 0.12886,2.809006 -0.0215,0.855691 -0.15044,1.525379 -0.098,1.96127 0.0524,0.43589 0.3348,0.680396 0.571,1.089715 0.2362,0.40932 0.45105,1.004601 0.66598,1.45107 0.21494,0.446469 0.42979,0.744116 0.58007,1.097563 0.15027,0.353447 0.23622,0.762726 0.30092,1.155829 0.0647,0.393102 0.10709,0.760256 0.12854,1.281131 0.0215,0.520876 0.0215,1.041745 -0.086,1.525292 -0.10745,0.483547 -0.3223,0.85559 -0.75191,1.227564 -0.42961,0.371975 -1.07414,0.744022 -1.56836,1.078903 -0.49422,0.334881 -0.83797,0.632523 -1.16019,0.855742 -0.32221,0.223218 -0.62299,0.372037 -0.90232,0.520865 -0.27933,0.14882 -0.53715,0.29764 -0.838,0.5209 -0.30085,0.22327 -0.64459,0.52091 -0.85951,0.76285 -0.21492,0.24193 -0.30086,0.42796 -0.88097,1.35809 -0.5801,0.93013 -1.65433,2.60437 -2.62454,4.18679 -0.97021,1.58241 -1.83646,3.0731 -2.545476,4.2637 -0.709017,1.1906 -1.260831,2.08117 -1.794554,2.84269 -0.533723,0.76152 -1.04936,1.39401 -1.435973,1.76602 -0.386613,0.372 -0.644437,0.48362 -0.988186,0.61385 -0.343748,0.13022 -0.77344,0.27904 -1.203089,0.3721 -0.429649,0.0931 -0.859737,0.13032 -1.289441,0.16755 0,0 -1.546935,-0.33486 -1.546935,-0.33486 0,0 -0.902381,-0.44646 -0.902381,-0.44646 0,0 -1.289116,-0.78133 -1.289116,-0.78133 -0.558616,-0.96736 -1.11696,-1.93425 -1.632611,-2.82721 -0.515652,-0.89296 -0.988318,-1.71148 -1.804771,-3.14394 -0.816454,-1.43246 -1.976634,-3.47875 -2.814548,-4.9112 -0.837915,-1.43244 -1.353556,-2.25097 -1.847658,-2.88351 -0.494102,-0.63254 -0.966764,-1.079 -1.56833,-1.544125 -0.601565,-0.465122 -1.33205,-0.948793 -1.91214,-1.283697 -0.58009,-0.334904 -1.009791,-0.520935 -1.332077,-0.651181 -0.322286,-0.130245 -0.537115,-0.204649 -0.745265,-0.459428 -0.208151,-0.254779 -0.350752,-0.56346 -0.501197,-0.99134 -0.150444,-0.427881 -0.279353,-0.911551 -0.343868,-1.488294 -0.06452,-0.576743 -0.06452,-1.246436 -0.02158,-1.711605 0.04294,-0.46517 0.128872,-0.725601 0.322258,-1.079143 0.193386,-0.353543 0.494173,-0.8 0.773496,-1.190684 0.279324,-0.390684 0.537141,-0.725531 0.730486,-1.02313 0.193344,-0.297598 0.322252,-0.558035 0.386739,-2.399651 0.06449,-1.841617 0.06449,-5.264506 0.02158,-7.12478 -0.04291,-1.860275 -0.128844,-2.157907 -0.64448,-3.590369 -0.515637,-1.432462 -1.460967,-3.999634 -1.973867,-5.544144 -0.5129,-1.544509 -0.604436,-2.138936 -0.303465,-2.43681 0.300972,-0.297875 0.988484,-0.335082 1.332045,-0.353675 0.343561,-0.01859 0.343657,-0.01865 0.966912,-0.111695 z"
       id="path24"
       inkscape:path-effect="#path-effect26"
       inkscape:original-d="m 75.554514,68.652271 c 1.246574,-0.18566 2.492714,-0.371688 3.738429,-0.558093 0.129339,3.71e-4 0.258252,3.71e-4 0.386734,0 0.301229,0.186408 0.602015,0.372433 0.902379,0.558093 0.387174,0.37244 0.773898,0.744495 1.160202,1.116185 0.30123,0.260818 0.602017,0.521255 0.902381,0.781329 0.215287,-0.297286 0.430134,-0.594927 0.644556,-0.89295 0.258256,-0.371693 0.516075,-0.743749 0.773471,-1.116182 0.473111,-0.297281 0.945775,-0.594929 1.418026,-0.892945 0.644998,-0.222871 1.375482,-0.297279 2.062579,-0.446476 0.68797,-0.408903 1.375485,-0.81816 2.062582,-1.227803 0.38717,-0.111246 0.773898,-0.222865 1.160202,-0.334854 0.30123,3.71e-4 0.602018,3.71e-4 0.902381,0 0.215283,0.372442 0.430134,0.744497 0.644556,1.116183 0.945798,-0.334491 1.89113,-0.669337 2.836048,-1.004566 0.301231,0.03758 0.602018,0.07479 0.902381,0.111625 0.344201,0.1492 0.687958,0.29802 1.031294,0.446475 0.473107,0.03758 0.859832,0.07479 1.289113,0.111611 0.773916,0.335232 1.547365,0.670082 2.320402,1.004566 0.38717,0.111989 0.68795,0.149196 1.03129,0.223237 0.25826,0.298025 0.51608,0.595667 0.77347,0.892945 0.12932,0.223613 0.25825,0.446847 0.38674,0.669713 0.17231,0.298025 0.34419,0.595667 0.51564,0.892946 0.30123,-0.07405 0.60202,-0.148453 0.90238,-0.223237 0.51608,-0.408903 1.03172,-0.818163 1.54694,-1.227803 0.25827,-0.222871 0.51607,-0.446101 0.77346,-0.66971 0.60203,0.07477 1.20362,0.149196 1.80477,0.223238 0.55904,0.07478 1.11764,0.149196 1.67584,0.223237 0.38717,0.03758 0.7739,0.07479 1.1602,0.111611 0.17231,0.595682 0.34419,1.190966 0.51566,1.785895 0.12933,0.409645 0.25824,0.744492 0.38672,1.116183 4.4e-4,0.26082 4.4e-4,0.521259 0,0.781329 -0.5582,1.153785 -1.1168,2.30715 -1.67584,3.46017 -0.17147,0.521269 -0.34334,1.042149 -0.51565,1.562666 -0.0426,0.260799 -0.0855,0.297998 -0.12883,0.446458 -0.0855,0.07479 -0.17147,0.149202 -0.25785,0.223249 -0.0855,1.190997 -0.17144,2.381558 -0.25782,3.571796 0.0435,0.78171 0.0863,1.563028 0.12885,2.34398 0.0863,1.042159 0.1723,2.08391 0.25782,3.125312 -0.12852,0.670099 -0.25741,1.339791 -0.38674,2.009132 0.21528,0.223615 0.51608,0.446851 0.77345,0.669707 0.2153,0.595689 0.43015,1.190969 0.64456,1.785899 0.2153,0.298025 0.43015,0.595673 0.64456,0.892941 0.0863,0.409651 0.17233,0.818912 0.25783,1.22782 0.0863,0.372438 0.0863,0.744483 0.12884,1.116178 -0.0426,0.670098 4.1e-4,1.190967 0,1.785897 -0.21444,0.372438 -0.42928,0.744483 -0.64456,1.116178 -0.64415,0.372438 -1.28868,0.744497 -1.93367,1.116177 -0.34334,0.298045 -0.68711,0.595669 -1.0313,0.89296 -0.30037,0.149199 -0.60115,0.298022 -0.90237,0.446467 -0.2574,0.1492 -0.51522,0.29802 -0.77348,0.44647 -0.34334,0.29803 -0.68708,0.59568 -1.03128,0.89296 -0.0855,0.1864 -0.17146,0.37242 -0.25783,0.55807 -1.07385,1.67469 -2.14808,3.34893 -3.22278,5.02284 -0.8662,1.49061 -1.73197,2.98158 -2.598605,4.47183 -0.55141,0.89096 -1.103224,1.78153 -1.655477,2.67176 -0.515221,0.63288 -1.03086,1.26537 -1.54693,1.8975 -0.2574,0.11197 -0.515219,0.2236 -0.773471,0.33486 -0.429286,0.14919 -0.858978,0.29801 -1.289113,0.44647 -0.429286,0.0376 -1.289113,0.11169 -1.289113,0.11169 0,0 -1.546935,-0.33486 -1.546935,-0.33486 0,0 -0.902381,-0.44646 -0.902381,-0.44646 0,0 -1.289116,-0.78133 -1.289116,-0.78133 0,0 -1.116803,-1.93434 -1.675847,-2.90208 -0.472257,-0.81818 -0.944922,-1.6367 -1.418026,-2.45561 -1.159796,-2.04601 -2.319972,-4.09231 -3.480605,-6.13901 -0.515226,-0.81818 -1.030864,-1.63671 -1.546935,-2.4556 -0.472258,-0.44612 -0.944924,-0.89258 -1.418028,-1.33943 -0.73008,-0.483321 -1.460565,-0.966992 -2.191492,-1.451037 -0.429286,-0.185657 -0.858983,-0.371695 -1.289112,-0.558096 -0.21443,-0.07409 -0.429276,-0.148445 -0.644561,-0.223236 -0.257399,-0.408892 -0.343331,-0.743752 -0.515642,-1.116177 -0.128481,-0.48332 -0.257395,-0.966989 -0.386733,-1.451038 4.3e-4,-0.669355 4.3e-4,-1.339048 0,-2.009134 0.08638,-0.260086 0.172307,-0.52052 0.257819,-0.781348 0.301229,-0.446106 0.602016,-0.892563 0.902379,-1.339399 0.258256,-0.334509 0.516075,-0.669355 0.773471,-1.004567 0.12934,-0.260083 0.258253,-0.520517 0.386734,-0.78133 4.28e-4,-3.422664 4.28e-4,-6.845553 0,-10.26889 -0.08552,-0.297297 -0.171455,-0.59493 -0.257826,-0.892956 -0.94494,-2.566907 -1.89027,-5.134079 -2.836048,-7.701673 -0.08552,-0.520523 -0.171453,-1.115813 -0.257823,-1.674275 0.687971,-0.03684 1.375483,-0.07405 2.062584,-0.111624 z" />
  </g>
</svg>
