<?xml version="1.0" encoding="UTF-8" standalone="no"?>
<svg
   xmlns:dc="http://purl.org/dc/elements/1.1/"
   xmlns:cc="http://creativecommons.org/ns#"
   xmlns:rdf="http://www.w3.org/1999/02/22-rdf-syntax-ns#"
   xmlns:svg="http://www.w3.org/2000/svg"
   xmlns="http://www.w3.org/2000/svg"
   xmlns:sodipodi="http://sodipodi.sourceforge.net/DTD/sodipodi-0.dtd"
   xmlns:inkscape="http://www.inkscape.org/namespaces/inkscape"
   width="45.875408mm"
   height="19.730944mm"
   viewBox="0 0 45.875408 19.730944"
   version="1.1"
   id="svg8"
   inkscape:version="1.0.2 (e86c870879, 2021-01-15, custom)"
   sodipodi:docname="biceps.svg">
  <defs
     id="defs2" />
  <sodipodi:namedview
     id="base"
     pagecolor="#ffffff"
     bordercolor="#666666"
     borderopacity="1.0"
     inkscape:pageopacity="0.0"
     inkscape:pageshadow="2"
     inkscape:zoom="1.4142136"
     inkscape:cx="231.38709"
     inkscape:cy="234.78327"
     inkscape:document-units="mm"
     inkscape:current-layer="layer1"
     inkscape:document-rotation="0"
     showgrid="false"
     inkscape:window-width="1920"
     inkscape:window-height="1001"
     inkscape:window-x="-9"
     inkscape:window-y="-9"
     inkscape:window-maximized="1"
     fit-margin-top="0"
     fit-margin-left="0"
     fit-margin-right="0"
     fit-margin-bottom="0" />
  <metadata
     id="metadata5">
    <rdf:RDF>
      <cc:Work
         rdf:about="">
        <dc:format>image/svg+xml</dc:format>
        <dc:type
           rdf:resource="http://purl.org/dc/dcmitype/StillImage" />
        <dc:title></dc:title>
      </cc:Work>
    </rdf:RDF>
  </metadata>
  <g
     inkscape:label="Layer 1"
     inkscape:groupmode="layer"
     id="layer1"
     transform="translate(-119.61957,-61.915087)">
    <path
       style="fill:none;stroke:#000000;stroke-width:0.29311px;stroke-linecap:butt;stroke-linejoin:miter;stroke-opacity:1"
       d="m 121.00293,67.295283 c -0.53759,1.099098 -0.8959,3.097201 -1.07503,4.462605 -0.17914,1.365405 -0.17914,1.831616 -0.14329,2.464366 0.0358,0.63275 0.1075,1.298773 0.25929,2.062774 0.15178,0.764002 0.34991,1.500542 0.70825,2.532911 0.35834,1.032369 0.85997,2.297811 1.64819,2.364241 0.78822,0.06643 1.86313,-1.065803 2.50808,-1.8317 0.64494,-0.765897 0.85993,-1.165512 1.08789,-1.626562 0.22796,-0.461051 0.41699,-0.870994 0.70365,-1.570327 0.28665,-0.699334 0.64496,-1.631762 0.93161,-2.364409 0.28666,-0.732647 0.50164,-1.265463 0.6808,-1.764978 0.17916,-0.499516 0.32248,-0.965729 0.53747,-1.698373 0.21499,-0.732643 0.50164,-1.731675 0.64499,-2.56418 0.14336,-0.832506 0.14336,-1.498526 0.14336,-2.031358 0,-0.532832 0,-0.932444 -0.25074,-1.59846 -0.25073,-0.666016 -0.75236,-1.598445 -1.50492,-1.598606 -0.75256,-1.61e-4 -1.75581,0.932266 -2.61574,1.631587 -0.85992,0.699321 -1.57653,1.16554 -2.2931,1.498552 -0.71656,0.333012 -1.43318,0.532819 -1.97076,1.631917 z"
       id="path847" />
    <path
       style="fill:none;stroke:#000000;stroke-width:0.291402px;stroke-linecap:butt;stroke-linejoin:miter;stroke-opacity:1"
       d="m 158.05756,62.490084 c 0.82945,0.687014 2.34377,2.322533 3.3894,3.172872 1.04564,0.850338 1.62251,0.915758 2.02983,1.272455 0.40732,0.356698 0.60202,0.88659 0.78227,1.47538 0.18026,0.588789 0.32447,1.177562 0.50475,1.92991 0.18028,0.752348 0.39661,1.668222 0.50473,2.420543 0.10813,0.752322 0.10813,1.341097 -6e-5,2.224262 -0.10819,0.883165 -0.32452,2.060716 -0.54086,2.943872 -0.21634,0.883155 -0.43267,1.471933 -0.649,2.126159 -0.21633,0.654226 -0.43266,1.373838 -0.93724,1.439283 -0.50459,0.06545 -1.29779,-0.523331 -1.91078,-1.112087 -0.61299,-0.588756 -1.04564,-1.17753 -1.98314,-3.107467 -0.9375,-1.929937 -2.37983,-5.201246 -3.82204,-8.472282 -0.14422,-0.654208 -0.28837,-1.308099 -0.25238,-1.929677 0.036,-0.621577 0.25232,-1.210355 0.4326,-1.733716 0.18028,-0.523362 0.3245,-0.981299 0.54083,-1.439296 0.21634,-0.457997 0.50477,-0.915935 0.7211,-1.275742 0.21633,-0.359808 0.36055,-0.621483 1.18999,0.06553 z"
       id="path851" />
  </g>
</svg>
