<?xml version="1.0" encoding="UTF-8" standalone="no"?>
<svg
   xmlns:dc="http://purl.org/dc/elements/1.1/"
   xmlns:cc="http://creativecommons.org/ns#"
   xmlns:rdf="http://www.w3.org/1999/02/22-rdf-syntax-ns#"
   xmlns:svg="http://www.w3.org/2000/svg"
   xmlns="http://www.w3.org/2000/svg"
   xmlns:sodipodi="http://sodipodi.sourceforge.net/DTD/sodipodi-0.dtd"
   xmlns:inkscape="http://www.inkscape.org/namespaces/inkscape"
   width="34.62851mm"
   height="24.686911mm"
   viewBox="0 0 34.62851 24.686911"
   version="1.1"
   id="svg2680"
   inkscape:version="1.0.2 (e86c870879, 2021-01-15, custom)"
   sodipodi:docname="calves.svg">
  <defs
     id="defs2674">
    <inkscape:path-effect
       effect="bspline"
       id="path-effect3271"
       is_visible="true"
       lpeversion="1"
       weight="33.333333"
       steps="2"
       helper_size="0"
       apply_no_weight="true"
       apply_with_weight="true"
       only_selected="false" />
    <inkscape:path-effect
       effect="bspline"
       id="path-effect3267"
       is_visible="true"
       lpeversion="1"
       weight="33.333333"
       steps="2"
       helper_size="0"
       apply_no_weight="true"
       apply_with_weight="true"
       only_selected="false" />
    <inkscape:path-effect
       effect="bspline"
       id="path-effect3263"
       is_visible="true"
       lpeversion="1"
       weight="33.333333"
       steps="2"
       helper_size="0"
       apply_no_weight="true"
       apply_with_weight="true"
       only_selected="false" />
    <inkscape:path-effect
       effect="bspline"
       id="path-effect3259"
       is_visible="true"
       lpeversion="1"
       weight="33.333333"
       steps="2"
       helper_size="0"
       apply_no_weight="true"
       apply_with_weight="true"
       only_selected="false" />
  </defs>
  <sodipodi:namedview
     id="base"
     pagecolor="#ffffff"
     bordercolor="#666666"
     borderopacity="1.0"
     inkscape:pageopacity="0.0"
     inkscape:pageshadow="2"
     inkscape:zoom="1.4142136"
     inkscape:cx="-135.87851"
     inkscape:cy="-20.20511"
     inkscape:document-units="mm"
     inkscape:current-layer="layer1"
     inkscape:document-rotation="0"
     showgrid="false"
     inkscape:window-width="1920"
     inkscape:window-height="1001"
     inkscape:window-x="-9"
     inkscape:window-y="-9"
     inkscape:window-maximized="1"
     fit-margin-top="0"
     fit-margin-left="0"
     fit-margin-right="0"
     fit-margin-bottom="0" />
  <metadata
     id="metadata2677">
    <rdf:RDF>
      <cc:Work
         rdf:about="">
        <dc:format>image/svg+xml</dc:format>
        <dc:type
           rdf:resource="http://purl.org/dc/dcmitype/StillImage" />
        <dc:title></dc:title>
      </cc:Work>
    </rdf:RDF>
  </metadata>
  <g
     inkscape:label="Layer 1"
     inkscape:groupmode="layer"
     id="layer1"
     transform="translate(-80.994337,-161.49378)">
    <path
       style="fill:none;stroke:#000000;stroke-width:0.264583px;stroke-linecap:butt;stroke-linejoin:miter;stroke-opacity:1"
       d="m 82.849197,162.92327 c -0.530232,0.71712 -1.0915,2.71274 -1.403315,3.80408 -0.311816,1.09134 -0.374179,1.27843 -0.280581,2.12041 0.0936,0.84199 0.343044,2.33867 0.530118,4.17838 0.187073,1.83972 0.311797,4.02238 0.623647,6.11158 0.311851,2.08919 0.810743,4.08476 1.060155,5.30081 0.249413,1.21606 0.249413,1.6526 0.498843,1.37188 0.24943,-0.28073 0.748325,-1.27852 0.997803,-1.93325 0.249478,-0.65473 0.249478,-0.84182 0.187124,-1.80845 -0.06235,-0.96663 -0.187077,-2.65039 -0.216921,-4.24062 -0.02984,-1.59022 0.02981,-2.96229 0.061,-4.27192 0.03119,-1.30963 0.03119,-2.4945 1.3e-5,-3.64822 -0.03118,-1.15372 -0.09354,-2.27623 -0.187064,-3.21167 -0.09353,-0.93543 -0.218252,-1.68377 -0.28064,-2.24506 -0.06239,-0.56129 -0.06239,-0.81074 -0.311722,-1.24728 -0.249335,-0.43653 -0.748225,-0.99778 -1.278458,-0.28067 z"
       id="path3257" />
    <path
       style="fill:none;stroke:#000000;stroke-width:0.264583px;stroke-linecap:butt;stroke-linejoin:miter;stroke-opacity:1"
       d="m 91.57999,162.79849 c -0.841998,0.65466 -2.338706,2.27609 -3.211811,3.46107 -0.873105,1.18497 -1.122551,1.93331 -1.278438,3.05591 -0.155886,1.12259 -0.218247,2.61927 -0.28061,4.11599 -0.06236,1.49673 -0.124726,2.99341 -0.124711,4.27187 1.4e-5,1.27846 0.06238,2.33861 0.155938,3.24289 0.09356,0.90428 0.218285,1.65262 0.405405,2.40099 0.18712,0.74837 0.436566,1.49671 0.686069,2.05798 0.249503,0.56126 0.498949,0.93543 0.685927,0.34293 0.186977,-0.59249 0.311701,-2.15153 0.498783,-3.61709 0.187081,-1.46556 0.436529,-2.83752 0.717162,-3.77303 0.280633,-0.93552 0.59244,-1.43441 0.841894,-2.08917 0.249454,-0.65476 0.436539,-1.46546 0.717175,-2.1827 0.280636,-0.71724 0.654802,-1.34085 1.028992,-1.90214 0.37419,-0.56129 0.748358,-1.06018 0.904291,-1.77724 0.155932,-0.71706 0.09357,-1.65249 -0.03115,-2.96212 -0.124721,-1.30963 -0.311806,-2.9934 -0.498821,-3.9912 -0.187014,-0.9978 -0.374095,-1.3096 -1.216094,-0.65494 z"
       id="path3261" />
    <path
       style="fill:none;stroke:#000000;stroke-width:0.264583px;stroke-linecap:butt;stroke-linejoin:miter;stroke-opacity:1"
       d="m 104.95682,163.07919 c 0.93558,0.49897 2.43229,2.61931 3.21175,3.83539 0.77946,1.21607 0.84182,1.52789 0.93535,2.40098 0.0935,0.87308 0.21825,2.30739 0.31179,3.74175 0.0935,1.43436 0.1559,2.86868 0.18707,4.33422 0.0312,1.46553 0.0312,2.96221 -10e-6,4.24065 -0.0312,1.27844 -0.0936,2.33859 -0.28065,3.05566 -0.18709,0.71706 -0.4989,1.09123 -0.77949,0.77955 -0.28058,-0.31168 -0.53003,-1.30946 -0.81066,-2.36965 -0.28063,-1.06018 -0.59244,-2.18268 -0.84187,-2.96222 -0.24943,-0.77954 -0.43651,-1.21607 -0.6247,-1.93891 -0.18819,-0.72284 -0.37316,-1.70933 -0.68492,-2.6136 -0.31176,-0.90426 -0.74829,-1.71496 -1.12248,-2.46332 -0.3742,-0.74836 -0.68601,-1.43434 -0.9043,-1.96443 -0.21829,-0.53009 -0.34301,-0.90426 -0.37425,-1.59029 -0.0312,-0.68604 0.0311,-1.68383 0.0623,-2.5569 0.0312,-0.87308 0.0312,-1.4967 0.21826,-2.40102 0.18706,-0.90433 0.56123,-2.02684 1.49681,-1.52786 z"
       id="path3265" />
    <path
       style="fill:none;stroke:#000000;stroke-width:0.264583px;stroke-linecap:butt;stroke-linejoin:miter;stroke-opacity:1"
       d="m 112.47144,162.23709 c -0.40536,0.53009 -0.96663,1.27845 -1.21606,2.49466 -0.24943,1.21621 -0.18706,2.89997 -0.0935,4.77088 0.0936,1.87091 0.21827,3.92885 0.31181,5.83093 0.0935,1.90208 0.1559,3.64821 0.18707,4.89547 0.0312,1.24726 0.0312,1.9956 0.28075,2.68161 0.24957,0.68601 0.74847,1.30962 1.02901,1.83972 0.28054,0.53009 0.3429,0.96662 0.37406,0.31178 0.0312,-0.65485 0.0312,-2.40097 0.0935,-3.86653 0.0623,-1.46555 0.18708,-2.65042 0.37416,-3.80416 0.18708,-1.15375 0.43653,-2.27626 0.71716,-3.39881 0.28063,-1.12256 0.59244,-2.24507 0.77955,-3.21167 0.18711,-0.9666 0.24947,-1.7773 0.0936,-2.77508 -0.15586,-0.99778 -0.53003,-2.18265 -0.90421,-3.36756 -0.37419,-1.18491 -0.74835,-2.36978 -1.06023,-2.80646 -0.31188,-0.43667 -0.56133,-0.12486 -0.96669,0.40522 z"
       id="path3269" />
  </g>
</svg>
