<?xml version="1.0" encoding="UTF-8" standalone="no"?>
<svg
   xmlns:dc="http://purl.org/dc/elements/1.1/"
   xmlns:cc="http://creativecommons.org/ns#"
   xmlns:rdf="http://www.w3.org/1999/02/22-rdf-syntax-ns#"
   xmlns:svg="http://www.w3.org/2000/svg"
   xmlns="http://www.w3.org/2000/svg"
   xmlns:sodipodi="http://sodipodi.sourceforge.net/DTD/sodipodi-0.dtd"
   xmlns:inkscape="http://www.inkscape.org/namespaces/inkscape"
   width="28.250414mm"
   height="13.008556mm"
   viewBox="0 0 28.250414 13.008556"
   version="1.1"
   id="svg872"
   inkscape:version="1.0.2 (e86c870879, 2021-01-15, custom)"
   sodipodi:docname="chest.svg">
  <defs
     id="defs866">
    <inkscape:path-effect
       effect="bspline"
       id="path-effect1451"
       is_visible="true"
       lpeversion="1"
       weight="33.333333"
       steps="2"
       helper_size="0"
       apply_no_weight="true"
       apply_with_weight="true"
       only_selected="false" />
  </defs>
  <sodipodi:namedview
     id="base"
     pagecolor="#ffffff"
     bordercolor="#666666"
     borderopacity="1.0"
     inkscape:pageopacity="0.0"
     inkscape:pageshadow="2"
     inkscape:zoom="1.4142136"
     inkscape:cx="-247.71715"
     inkscape:cy="152.91265"
     inkscape:document-units="mm"
     inkscape:current-layer="layer1"
     inkscape:document-rotation="0"
     showgrid="false"
     inkscape:window-width="1431"
     inkscape:window-height="1019"
     inkscape:window-x="160"
     inkscape:window-y="0"
     inkscape:window-maximized="0"
     fit-margin-top="0"
     fit-margin-left="0"
     fit-margin-right="0"
     fit-margin-bottom="0" />
  <metadata
     id="metadata869">
    <rdf:RDF>
      <cc:Work
         rdf:about="">
        <dc:format>image/svg+xml</dc:format>
        <dc:type
           rdf:resource="http://purl.org/dc/dcmitype/StillImage" />
        <dc:title></dc:title>
      </cc:Work>
    </rdf:RDF>
  </metadata>
  <g
     inkscape:label="Layer 1"
     inkscape:groupmode="layer"
     id="layer1"
     transform="translate(-89.919752,-95.683073)">
    <path
       style="fill:none;stroke:#000000;stroke-width:0.264583px;stroke-linecap:butt;stroke-linejoin:miter;stroke-opacity:1"
       d="m 96.537882,96.475336 c -1.184871,0.43654 -3.30521,1.184895 -4.459029,1.808628 -1.153819,0.623732 -1.340904,1.122625 -1.559173,1.871016 -0.218269,0.74838 -0.467713,1.74616 -0.467636,2.61932 7.8e-5,0.87315 0.249524,1.62149 0.904428,2.49455 0.654904,0.87306 1.715055,1.87085 2.962341,2.49438 1.247286,0.62353 2.681604,0.87297 4.001273,0.77564 1.31967,-0.0973 2.484314,-0.5264 3.263774,-0.96291 0.77945,-0.4365 1.15362,-0.87304 1.87097,-0.93536 0.71735,-0.0623 1.7775,0.24948 3.1495,0.65485 1.372,0.40536 3.05577,0.90426 4.45887,0.96654 1.40309,0.0623 2.5256,-0.31189 3.42983,-0.71724 0.90422,-0.40536 1.59019,-0.84189 2.18259,-1.52782 0.59239,-0.68593 1.09128,-1.62136 1.4031,-2.36967 0.31183,-0.74831 0.43655,-1.30956 0.31193,-1.93314 -0.12463,-0.62358 -0.49879,-1.30955 -1.02883,-1.933229 -0.53003,-0.623678 -1.21601,-1.184928 -1.93317,-1.652691 -0.71717,-0.467764 -1.46551,-0.841934 -2.21387,-1.184947 -0.74836,-0.343012 -1.4967,-0.65482 -2.12035,-0.841957 -0.62365,-0.187138 -1.12254,-0.249499 -1.65266,-0.24953 -0.53012,-3.1e-5 -1.09138,0.06233 -1.65269,0.187045 -0.56131,0.124714 -1.12256,0.311799 -1.55919,0.592476 -0.43664,0.280676 -0.74845,0.654847 -1.24719,0.748418 -0.49874,0.09357 -1.18471,-0.09351 -1.83954,-0.405269 -0.65482,-0.311757 -1.27843,-0.748284 -2.02682,-0.966662 -0.748381,-0.218377 -1.621445,-0.218377 -2.182793,-0.156039 -0.561348,0.06234 -0.810794,0.187062 -1.995665,0.623601 z"
       id="path1449" />
  </g>
</svg>
