<?xml version="1.0" encoding="UTF-8" standalone="no"?>
<svg
   xmlns:dc="http://purl.org/dc/elements/1.1/"
   xmlns:cc="http://creativecommons.org/ns#"
   xmlns:rdf="http://www.w3.org/1999/02/22-rdf-syntax-ns#"
   xmlns:svg="http://www.w3.org/2000/svg"
   xmlns="http://www.w3.org/2000/svg"
   xmlns:sodipodi="http://sodipodi.sourceforge.net/DTD/sodipodi-0.dtd"
   xmlns:inkscape="http://www.inkscape.org/namespaces/inkscape"
   width="58.146217mm"
   height="23.389818mm"
   viewBox="0 0 58.146217 23.389818"
   version="1.1"
   id="svg872"
   inkscape:version="1.0.2 (e86c870879, 2021-01-15, custom)"
   sodipodi:docname="forearm.svg">
  <defs
     id="defs866">
    <inkscape:path-effect
       effect="bspline"
       id="path-effect1459"
       is_visible="true"
       lpeversion="1"
       weight="33.333333"
       steps="2"
       helper_size="0"
       apply_no_weight="true"
       apply_with_weight="true"
       only_selected="false" />
    <inkscape:path-effect
       effect="bspline"
       id="path-effect1455"
       is_visible="true"
       lpeversion="1"
       weight="33.333333"
       steps="2"
       helper_size="0"
       apply_no_weight="true"
       apply_with_weight="true"
       only_selected="false" />
  </defs>
  <sodipodi:namedview
     id="base"
     pagecolor="#ffffff"
     bordercolor="#666666"
     borderopacity="1.0"
     inkscape:pageopacity="0.0"
     inkscape:pageshadow="2"
     inkscape:zoom="1.4142136"
     inkscape:cx="-189.72372"
     inkscape:cy="134.76375"
     inkscape:document-units="mm"
     inkscape:current-layer="layer1"
     inkscape:document-rotation="0"
     showgrid="false"
     inkscape:snap-global="false"
     inkscape:window-width="1431"
     inkscape:window-height="1019"
     inkscape:window-x="192"
     inkscape:window-y="0"
     inkscape:window-maximized="0"
     fit-margin-top="0"
     fit-margin-left="0"
     fit-margin-right="0"
     fit-margin-bottom="0" />
  <metadata
     id="metadata869">
    <rdf:RDF>
      <cc:Work
         rdf:about="">
        <dc:format>image/svg+xml</dc:format>
        <dc:type
           rdf:resource="http://purl.org/dc/dcmitype/StillImage" />
        <dc:title></dc:title>
      </cc:Work>
    </rdf:RDF>
  </metadata>
  <g
     inkscape:label="Layer 1"
     inkscape:groupmode="layer"
     id="layer1"
     transform="translate(-72.286222,-116.18306)">
    <path
       style="fill:none;stroke:#000000;stroke-width:0.264583px;stroke-linecap:butt;stroke-linejoin:miter;stroke-opacity:1"
       d="m 75.926862,116.71235 c 0.77963,0.90438 1.902162,3.46126 2.681764,4.95794 0.779603,1.49669 1.216134,1.93322 1.746084,1.77719 0.529949,-0.15604 1.153565,-0.90438 1.46539,-1.12252 0.311826,-0.21815 0.311826,0.0937 0.414779,0.55829 0.102953,0.46464 0.271329,0.96976 0.177705,2.06107 -0.09362,1.09131 -0.467792,2.71271 -0.841977,4.08469 -0.374185,1.37198 -0.748354,2.49448 -1.122536,3.52347 -0.374182,1.02898 -0.748354,1.96441 -1.060172,2.71276 -0.311817,0.74836 -0.561262,1.30961 -0.68596,1.9645 -0.124698,0.65489 -0.124698,1.2785 -0.06227,1.77743 0.06243,0.49893 0.187151,0.81075 -0.810629,-0.46773 -0.99778,-1.27848 -3.118077,-4.14712 -4.209533,-6.26748 -1.091455,-2.12036 -1.153817,-3.49232 -1.185005,-4.77077 -0.03119,-1.27846 -0.03119,-2.46333 0.155905,-3.243 0.187093,-0.77967 0.561263,-1.15384 0.873065,-2.2451 0.311801,-1.09126 0.561247,-2.89975 0.904238,-4.17827 0.342991,-1.27851 0.779523,-2.02685 1.559153,-1.12247 z"
       id="path1453"
       inkscape:path-effect="#path-effect1455"
       inkscape:original-d="m 75.583822,115.05953 c 1.122796,2.55714 2.245328,5.11402 3.367595,7.67064 0.436814,0.43681 0.873345,0.87334 1.309621,1.30962 0.623906,-0.74811 1.247521,-1.49645 1.870888,-2.24507 2.64e-4,0.31209 2.64e-4,0.6239 0,0.93545 0.187356,0.6239 0.374441,1.12279 0.561265,1.68379 -0.373919,1.62174 -0.74809,3.24314 -1.122531,4.86431 -0.373923,1.12282 -0.748091,2.24533 -1.122532,3.3676 -0.373923,0.93572 -0.748091,1.87115 -1.122532,2.80632 -0.249193,0.56155 -0.498639,1.1228 -0.748355,1.6838 2.64e-4,0.74864 2.64e-4,1.37225 0,2.05798 0.124991,0.31208 0.249716,0.62389 0.374176,0.93544 -2.120117,-2.86848 -4.240411,-5.73712 -6.361015,-8.60608 -0.0621,-1.37174 -0.12446,-2.7437 -0.187089,-4.11595 2.65e-4,-1.18465 2.65e-4,-2.36952 0,-3.55468 0.374451,-0.37392 0.74862,-0.74809 1.122534,-1.12253 0.249719,-1.8083 0.499166,-3.61679 0.748353,-5.42558 0.436814,-0.7481 0.873345,-1.49644 1.309622,-2.24506 z" />
    <path
       style="fill:none;stroke:#000000;stroke-width:0.264583px;stroke-linecap:butt;stroke-linejoin:miter;stroke-opacity:1"
       d="m 127.34508,116.77474 c -0.68611,0.3429 -1.43446,2.21379 -2.15162,3.52335 -0.71716,1.30957 -1.40314,2.05791 -2.15134,2.21389 -0.7482,0.15598 -1.5589,-0.28055 -2.05798,-0.0934 -0.49909,0.18711 -0.68617,0.99781 -0.59256,2.08923 0.0936,1.09143 0.46778,2.46339 0.84196,3.83538 0.37418,1.372 0.74836,2.74396 1.2473,4.08478 0.49894,1.34081 1.12255,2.65041 1.59028,3.61704 0.46773,0.96662 0.77954,1.59024 0.74825,2.24495 -0.0313,0.65471 -0.40545,1.34068 -0.0313,0.81057 0.37419,-0.53011 1.4967,-2.27625 2.401,-3.46119 0.90429,-1.18493 1.59027,-1.80855 2.05796,-2.36977 0.46769,-0.56121 0.71714,-1.0601 0.87307,-2.21375 0.15593,-1.15366 0.21829,-2.96215 0.15597,-4.20939 -0.0623,-1.24723 -0.2494,-1.93321 -0.43652,-3.1805 -0.18711,-1.24729 -0.3742,-3.05578 -0.7795,-4.55248 -0.4053,-1.49671 -1.02891,-2.68158 -1.71501,-2.33867 z"
       id="path1457"
       inkscape:path-effect="#path-effect1459"
       inkscape:original-d="m 127.40738,115.24662 c -0.74809,1.87115 -1.49644,3.74204 -2.24506,5.61266 -0.68574,0.74863 -1.37172,1.49697 -2.05798,2.24506 -0.81047,-0.43628 -1.62117,-0.87281 -2.43215,-1.30962 -0.18683,0.811 -0.37391,1.6217 -0.56127,2.43215 0.37445,1.37228 0.74862,2.74424 1.12253,4.11595 0.37446,1.37228 0.74863,2.74424 1.12254,4.11596 0.6239,1.30991 1.24752,2.6195 1.87088,3.92886 0.31209,0.6239 0.6239,1.24752 0.93545,1.87088 -0.37392,0.68628 -0.74809,1.37225 -1.12253,2.05798 1.12281,-1.74593 2.24533,-3.49206 3.36759,-5.23848 0.68627,-0.62338 1.37225,-1.247 2.05798,-1.87089 0.24972,-0.49865 0.49916,-0.99754 0.74835,-1.49671 0.0626,-1.80829 0.12499,-3.61678 0.18709,-5.42557 -0.18683,-0.68574 -0.37391,-1.37172 -0.56126,-2.05798 -0.18683,-1.80829 -0.37392,-3.61678 -0.56127,-5.42557 -0.62338,-1.18465 -1.24699,-2.36952 -1.87089,-3.55468 z" />
  </g>
</svg>
