<?xml version="1.0" encoding="UTF-8" standalone="no"?>
<svg
   xmlns:dc="http://purl.org/dc/elements/1.1/"
   xmlns:cc="http://creativecommons.org/ns#"
   xmlns:rdf="http://www.w3.org/1999/02/22-rdf-syntax-ns#"
   xmlns:svg="http://www.w3.org/2000/svg"
   xmlns="http://www.w3.org/2000/svg"
   xmlns:sodipodi="http://sodipodi.sourceforge.net/DTD/sodipodi-0.dtd"
   xmlns:inkscape="http://www.inkscape.org/namespaces/inkscape"
   width="42.357956mm"
   height="13.660153mm"
   viewBox="0 0 42.357956 13.660153"
   version="1.1"
   id="svg2078"
   inkscape:version="1.0.2 (e86c870879, 2021-01-15, custom)"
   sodipodi:docname="shoulders.svg">
  <defs
     id="defs2072">
    <inkscape:path-effect
       effect="bspline"
       id="path-effect2661"
       is_visible="true"
       lpeversion="1"
       weight="33.333333"
       steps="2"
       helper_size="0"
       apply_no_weight="true"
       apply_with_weight="true"
       only_selected="false" />
    <inkscape:path-effect
       effect="bspline"
       id="path-effect2096"
       is_visible="true"
       lpeversion="1"
       weight="33.333333"
       steps="2"
       helper_size="0"
       apply_no_weight="true"
       apply_with_weight="true"
       only_selected="false" />
  </defs>
  <sodipodi:namedview
     id="base"
     pagecolor="#ffffff"
     bordercolor="#666666"
     borderopacity="1.0"
     inkscape:pageopacity="0.0"
     inkscape:pageshadow="2"
     inkscape:zoom="2.8284271"
     inkscape:cx="-91.649113"
     inkscape:cy="103.70771"
     inkscape:document-units="mm"
     inkscape:current-layer="layer1"
     inkscape:document-rotation="0"
     showgrid="false"
     inkscape:window-width="1431"
     inkscape:window-height="1019"
     inkscape:window-x="32"
     inkscape:window-y="0"
     inkscape:window-maximized="0"
     fit-margin-top="0"
     fit-margin-left="0"
     fit-margin-right="0"
     fit-margin-bottom="0" />
  <metadata
     id="metadata2075">
    <rdf:RDF>
      <cc:Work
         rdf:about="">
        <dc:format>image/svg+xml</dc:format>
        <dc:type
           rdf:resource="http://purl.org/dc/dcmitype/StillImage" />
        <dc:title></dc:title>
      </cc:Work>
    </rdf:RDF>
  </metadata>
  <g
     inkscape:label="Layer 1"
     inkscape:groupmode="layer"
     id="layer1"
     transform="translate(-76.727573,-93.735558)">
    <path
       style="fill:none;stroke:#000000;stroke-width:0.264583px;stroke-linecap:butt;stroke-linejoin:miter;stroke-opacity:1"
       d="m 81.61748,93.981031 c 0.04682,0.156065 0.140363,0.467878 0.514632,0.623628 0.374268,0.15575 1.029064,0.15575 1.668284,0.140153 0.639219,-0.0156 1.262834,-0.04677 1.699411,8.4e-5 0.436577,0.04686 0.686022,0.171584 0.873002,0.436709 0.18698,0.265125 0.311704,0.670475 0.358417,1.0758 0.04671,0.405326 0.01553,0.810679 -0.06244,1.122417 -0.07797,0.311737 -0.202694,0.530004 -0.420942,0.795007 -0.218249,0.265003 -0.530056,0.57681 -0.841885,0.919822 -0.311829,0.343013 -0.623639,0.717183 -0.873105,1.060209 -0.249465,0.34302 -0.436545,0.65483 -0.576866,0.96669 -0.140321,0.31187 -0.233864,0.62368 -0.264991,0.8576 -0.03113,0.23393 5.5e-5,0.38984 0.01561,0.54573 0.01556,0.15588 0.01556,0.31179 -0.124767,0.54553 -0.140327,0.23374 -0.420954,0.54555 -0.982212,1.07563 -0.561258,0.53007 -1.403141,1.27841 -2.120263,1.7773 -0.717122,0.49888 -1.30956,0.74833 -1.637058,0.9355 -0.327497,0.18717 -0.389858,0.31189 -0.452062,0.3742 -0.0622,0.0623 -0.124565,0.0623 -0.374066,-0.32731 -0.249501,-0.38962 -0.686032,-1.16914 -0.919971,-1.7772 -0.23394,-0.60805 -0.265122,-1.04458 -0.218376,-1.69943 0.04675,-0.65485 0.171472,-1.52792 0.23385,-2.30744 0.06238,-0.77952 0.06238,-1.465495 0.218262,-2.182742 0.155883,-0.717248 0.467691,-1.465588 0.701553,-2.042443 0.233863,-0.576856 0.389766,-0.982205 0.514494,-1.278449 0.124728,-0.296244 0.218271,-0.483329 0.717275,-0.764046 0.499005,-0.280717 1.403248,-0.654887 1.855313,-0.841948 0.452066,-0.187062 0.452077,-0.187066 0.498897,-0.031 z"
       id="path2094" />
    <path
       style="fill:none;stroke:#000000;stroke-width:0.264583px;stroke-linecap:butt;stroke-linejoin:miter;stroke-opacity:1"
       d="m 108.79206,95.789397 c 0,0 0,0 0.0623,-0.140257 0.0623,-0.140257 0.18706,-0.420887 0.46784,-0.576863 0.28079,-0.155977 0.71732,-0.187156 1.13829,-0.202738 0.42096,-0.01558 0.82631,-0.01558 1.27844,-0.01558 0.45214,0 0.95103,0 1.3408,0 0.38978,0 0.6704,0 0.8929,-0.131701 0.2225,-0.131701 0.36964,-0.367132 0.71282,-0.398292 0.34318,-0.03116 0.87326,0.155927 1.30979,0.405452 0.43652,0.249525 0.7795,0.561328 1.04449,0.904362 0.26499,0.343034 0.45207,0.717205 0.73266,1.715024 0.2806,0.997819 0.65476,2.61922 0.88861,3.741746 0.23385,1.12253 0.3274,1.74615 0.28058,2.46328 -0.0468,0.71713 -0.2339,1.52783 -0.39818,2.09228 -0.16427,0.56445 -0.27228,0.80747 -0.44375,1.05686 -0.17148,0.24939 -0.38974,0.46765 -0.90408,0.34301 -0.51435,-0.12464 -1.32505,-0.59235 -1.87072,-0.88859 -0.54567,-0.29624 -0.82631,-0.42097 -1.15374,-0.65478 -0.32743,-0.23381 -0.7016,-0.5768 -0.99788,-0.95095 -0.29627,-0.37415 -0.51454,-0.7795 -0.70165,-1.16927 -0.18711,-0.38977 -0.34301,-0.76394 -0.43662,-1.10695 -0.0936,-0.34301 -0.1248,-0.65482 -0.23389,-1.02899 -0.10909,-0.37417 -0.29618,-0.8107 -0.51439,-1.1693 -0.21822,-0.358612 -0.46767,-0.639241 -0.73273,-0.96664 -0.26505,-0.327399 -0.54568,-0.70157 -0.76399,-1.044557 -0.2183,-0.342988 -0.3742,-0.6548 -0.53014,-1.028981 -0.15593,-0.374182 -0.31183,-0.810712 -0.38984,-1.029141 -0.078,-0.21843 -0.078,-0.218433 -0.078,-0.218433 z"
       id="path2659" />
  </g>
</svg>
