<?xml version="1.0" encoding="UTF-8" standalone="no"?>
<svg
   xmlns:dc="http://purl.org/dc/elements/1.1/"
   xmlns:cc="http://creativecommons.org/ns#"
   xmlns:rdf="http://www.w3.org/1999/02/22-rdf-syntax-ns#"
   xmlns:svg="http://www.w3.org/2000/svg"
   xmlns="http://www.w3.org/2000/svg"
   xmlns:sodipodi="http://sodipodi.sourceforge.net/DTD/sodipodi-0.dtd"
   xmlns:inkscape="http://www.inkscape.org/namespaces/inkscape"
   width="45.667068mm"
   height="14.333594mm"
   viewBox="0 0 45.667068 14.333594"
   version="1.1"
   id="svg1487"
   inkscape:version="1.0.2 (e86c870879, 2021-01-15, custom)"
   sodipodi:docname="triceps.svg">
  <defs
     id="defs1481">
    <inkscape:path-effect
       effect="bspline"
       id="path-effect2070"
       is_visible="true"
       lpeversion="1"
       weight="33.333333"
       steps="2"
       helper_size="0"
       apply_no_weight="true"
       apply_with_weight="true"
       only_selected="false" />
    <inkscape:path-effect
       effect="bspline"
       id="path-effect2066"
       is_visible="true"
       lpeversion="1"
       weight="33.333333"
       steps="2"
       helper_size="0"
       apply_no_weight="true"
       apply_with_weight="true"
       only_selected="false" />
  </defs>
  <sodipodi:namedview
     id="base"
     pagecolor="#ffffff"
     bordercolor="#666666"
     borderopacity="1.0"
     inkscape:pageopacity="0.0"
     inkscape:pageshadow="2"
     inkscape:zoom="2"
     inkscape:cx="-132.96424"
     inkscape:cy="96.045415"
     inkscape:document-units="mm"
     inkscape:current-layer="layer1"
     inkscape:document-rotation="0"
     showgrid="false"
     inkscape:window-width="1431"
     inkscape:window-height="1019"
     inkscape:window-x="160"
     inkscape:window-y="0"
     inkscape:window-maximized="0"
     fit-margin-top="0"
     fit-margin-left="0"
     fit-margin-right="0"
     fit-margin-bottom="0" />
  <metadata
     id="metadata1484">
    <rdf:RDF>
      <cc:Work
         rdf:about="">
        <dc:format>image/svg+xml</dc:format>
        <dc:type
           rdf:resource="http://purl.org/dc/dcmitype/StillImage" />
        <dc:title></dc:title>
      </cc:Work>
    </rdf:RDF>
  </metadata>
  <g
     inkscape:label="Layer 1"
     inkscape:groupmode="layer"
     id="layer1"
     transform="translate(-84.579106,-105.89309)">
    <path
       style="fill:none;stroke:#000000;stroke-width:0.31025px;stroke-linecap:butt;stroke-linejoin:miter;stroke-opacity:1"
       d="m 87.108217,106.35275 c 0.115684,0.41562 -0.115983,1.33892 -0.376617,2.23915 -0.260634,0.90022 -0.550213,1.77735 -0.637039,2.72381 -0.08683,0.94645 0.02901,1.96207 0.231743,3.0239 0.202737,1.06182 0.492316,2.16977 0.839851,3.20851 0.347534,1.03874 0.752943,2.00819 0.695105,2.239 -0.05784,0.2308 -0.579081,-0.27701 -1.216251,-1.33881 -0.63717,-1.0618 -1.390075,-2.67756 -1.708716,-3.83175 -0.31864,-1.1542 -0.202809,-1.84666 -0.05802,-2.65457 0.144793,-0.8079 0.31854,-1.7312 0.521249,-2.72377 0.202709,-0.99257 0.434374,-2.05436 0.782022,-2.63156 0.347649,-0.5772 0.810986,-0.66953 0.92667,-0.25391 z"
       id="path2064" />
    <path
       style="fill:none;stroke:#000000;stroke-width:0.297204px;stroke-linecap:butt;stroke-linejoin:miter;stroke-opacity:1"
       d="m 127.85534,106.5849 c -1.4e-4,0.69952 0.36824,2.14489 0.55239,3.2171 0.18414,1.07221 0.18414,1.77186 0.1315,2.63442 -0.0526,0.86256 -0.15789,1.88829 -0.32368,2.70186 -0.16578,0.81358 -0.36049,1.33109 -0.51835,2.0072 -0.15786,0.67611 -0.26311,1.46872 -0.421,2.07479 -0.15789,0.60607 -0.36838,1.02569 -0.13155,0.79252 0.23682,-0.23317 0.92093,-1.11902 1.47348,-1.93494 0.55256,-0.81592 0.97354,-1.56191 1.21037,-2.14466 0.23682,-0.58275 0.28945,-1.00237 0.26317,-1.53852 -0.0263,-0.53615 -0.13151,-1.18889 -0.28939,-2.23797 -0.15788,-1.04908 -0.36838,-2.49442 -0.57885,-3.59011 -0.21048,-1.09568 -0.42097,-1.84167 -0.71028,-2.23813 -0.28931,-0.39645 -0.65767,-0.44307 -0.65781,0.25644 z"
       id="path2068" />
  </g>
</svg>
